NotoSansGujarati-Regular.ufo
<glyph name="exclam.gujr" format="2">
  <advance width="383"/>
  <unicode hex="0021"/>
  <outline>
    <contour>
      <point x="181" y="201" type="line"/>
      <point x="238" y="201" type="line"/>
      <point x="263" y="714" type="line"/>
      <point x="156" y="714" type="line"/>
    </contour>
    <contour>
      <point x="209" y="-14" type="curve" smooth="yes"/>
      <point x="242" y="-14"/>
      <point x="271" y="6"/>
      <point x="271" y="54" type="curve" smooth="yes"/>
      <point x="271" y="103"/>
      <point x="242" y="121"/>
      <point x="209" y="121" type="curve" smooth="yes"/>
      <point x="174" y="121"/>
      <point x="147" y="103"/>
      <point x="147" y="54" type="curve" smooth="yes"/>
      <point x="147" y="6"/>
      <point x="174" y="-14"/>
    </contour>
  </outline>
</glyph>
<glyph name="quotesingle.gujr" format="2">
  <advance width="326"/>
  <unicode hex="0027"/>
  <outline>
    <contour>
      <point x="140" y="471" type="line"/>
      <point x="201" y="471" type="line"/>
      <point x="226" y="729" type="line"/>
      <point x="115" y="729" type="line"/>
    </contour>
  </outline>
</glyph>
<glyph name="parenleft.gujr" format="2">
  <advance width="354"/>
  <unicode hex="0028"/>
  <outline>
    <contour>
      <point x="213" y="-165" type="curve"/>
      <point x="295" y="-165" type="line"/>
      <point x="201" y="-20"/>
      <point x="153" y="159"/>
      <point x="153" y="336" type="curve" smooth="yes"/>
      <point x="153" y="517"/>
      <point x="203" y="691"/>
      <point x="294" y="832" type="curve"/>
      <point x="213" y="832" type="line"/>
      <point x="112" y="696"/>
      <point x="68" y="523"/>
      <point x="68" y="337" type="curve" smooth="yes"/>
      <point x="68" y="153"/>
      <point x="113" y="-28"/>
    </contour>
  </outline>
</glyph>
<glyph name="parenright.gujr" format="2">
  <advance width="354"/>
  <unicode hex="0029"/>
  <outline>
    <contour>
      <point x="60" y="-165" type="curve"/>
      <point x="141" y="-165" type="line"/>
      <point x="241" y="-30"/>
      <point x="286" y="143"/>
      <point x="286" y="329" type="curve" smooth="yes"/>
      <point x="286" y="513"/>
      <point x="241" y="694"/>
      <point x="141" y="832" type="curve"/>
      <point x="59" y="832" type="line"/>
      <point x="152" y="686"/>
      <point x="200" y="508"/>
      <point x="200" y="330" type="curve" smooth="yes"/>
      <point x="200" y="153"/>
      <point x="150" y="-24"/>
    </contour>
  </outline>
</glyph>
<glyph name="comma.gujr" format="2">
  <advance width="268"/>
  <unicode hex="002C"/>
  <outline>
    <contour>
      <point x="56" y="-129" type="curve"/>
      <point x="123" y="-129" type="line"/>
      <point x="156" y="-56"/>
      <point x="191" y="34"/>
      <point x="209" y="105" type="curve"/>
      <point x="202" y="116" type="line"/>
      <point x="105" y="116" type="line"/>
      <point x="95" y="47"/>
      <point x="76" y="-50"/>
    </contour>
  </outline>
</glyph>
<glyph name="hyphen.gujr" format="2">
  <advance width="340"/>
  <unicode hex="002D"/>
  <outline>
    <contour>
      <point x="49" y="256" type="line"/>
      <point x="291" y="256" type="line"/>
      <point x="291" y="338" type="line"/>
      <point x="49" y="338" type="line"/>
    </contour>
  </outline>
</glyph>
<glyph name="period.gujr" format="2">
  <advance width="268"/>
  <unicode hex="002E"/>
  <outline>
    <contour>
      <point x="143" y="-14" type="curve" smooth="yes"/>
      <point x="177" y="-14"/>
      <point x="206" y="6"/>
      <point x="206" y="54" type="curve" smooth="yes"/>
      <point x="206" y="103"/>
      <point x="177" y="121"/>
      <point x="143" y="121" type="curve" smooth="yes"/>
      <point x="109" y="121"/>
      <point x="82" y="103"/>
      <point x="82" y="54" type="curve" smooth="yes"/>
      <point x="82" y="6"/>
      <point x="109" y="-14"/>
    </contour>
  </outline>
</glyph>
<glyph name="slash.gujr" format="2">
  <advance width="429"/>
  <unicode hex="002F"/>
  <outline>
    <contour>
      <point x="42" y="-166" type="line"/>
      <point x="125" y="-166" type="line"/>
      <point x="387" y="833" type="line"/>
      <point x="305" y="833" type="line"/>
    </contour>
  </outline>
</glyph>
<glyph name="two.gujr" format="2">
  <advance width="551"/>
  <unicode hex="0032"/>
  <outline>
    <contour>
      <point x="47" y="0" type="line"/>
      <point x="492" y="0" type="line"/>
      <point x="492" y="81" type="line"/>
      <point x="156" y="81" type="line"/>
      <point x="156" y="85" type="line"/>
      <point x="293" y="231" type="line" smooth="yes"/>
      <point x="398" y="343"/>
      <point x="464" y="421"/>
      <point x="464" y="533" type="curve" smooth="yes"/>
      <point x="464" y="650"/>
      <point x="386" y="724"/>
      <point x="260" y="724" type="curve" smooth="yes"/>
      <point x="173" y="724"/>
      <point x="108" y="687"/>
      <point x="56" y="640" type="curve"/>
      <point x="103" y="581" type="line"/>
      <point x="153" y="624"/>
      <point x="200" y="649"/>
      <point x="259" y="649" type="curve" smooth="yes"/>
      <point x="327" y="649"/>
      <point x="374" y="606"/>
      <point x="374" y="530" type="curve" smooth="yes"/>
      <point x="374" y="435"/>
      <point x="322" y="375"/>
      <point x="218" y="262" type="curve" smooth="yes"/>
      <point x="47" y="76" type="line"/>
    </contour>
  </outline>
</glyph>
<glyph name="three.gujr" format="2">
  <advance width="551"/>
  <unicode hex="0033"/>
  <outline>
    <contour>
      <point x="229" y="-10" type="curve" smooth="yes"/>
      <point x="409" y="-10"/>
      <point x="491" y="78"/>
      <point x="491" y="203" type="curve" smooth="yes"/>
      <point x="491" y="295"/>
      <point x="433" y="359"/>
      <point x="315" y="373" type="curve"/>
      <point x="315" y="376" type="line"/>
      <point x="409" y="394"/>
      <point x="469" y="451"/>
      <point x="469" y="547" type="curve" smooth="yes"/>
      <point x="469" y="648"/>
      <point x="398" y="724"/>
      <point x="256" y="724" type="curve" smooth="yes"/>
      <point x="164" y="724"/>
      <point x="92" y="690"/>
      <point x="43" y="651" type="curve"/>
      <point x="88" y="590" type="line"/>
      <point x="137" y="624"/>
      <point x="184" y="649"/>
      <point x="256" y="649" type="curve" smooth="yes"/>
      <point x="331" y="649"/>
      <point x="378" y="605"/>
      <point x="378" y="541" type="curve" smooth="yes"/>
      <point x="378" y="460"/>
      <point x="321" y="406"/>
      <point x="214" y="406" type="curve" smooth="yes"/>
      <point x="149" y="406" type="line"/>
      <point x="149" y="332" type="line"/>
      <point x="214" y="332" type="line" smooth="yes"/>
      <point x="333" y="332"/>
      <point x="400" y="291"/>
      <point x="400" y="205" type="curve" smooth="yes"/>
      <point x="400" y="118"/>
      <point x="346" y="65"/>
      <point x="227" y="65" type="curve" smooth="yes"/>
      <point x="166" y="65"/>
      <point x="97" y="82"/>
      <point x="40" y="111" type="curve"/>
      <point x="40" y="29" type="line"/>
      <point x="97" y="0"/>
      <point x="157" y="-10"/>
    </contour>
  </outline>
</glyph>
<glyph name="four.gujr" format="2">
  <advance width="551"/>
  <unicode hex="0034"/>
  <outline>
    <contour>
      <point x="341" y="0" type="line"/>
      <point x="427" y="0" type="line"/>
      <point x="427" y="160" type="line"/>
      <point x="531" y="160" type="line"/>
      <point x="531" y="241" type="line"/>
      <point x="427" y="241" type="line"/>
      <point x="427" y="718" type="line"/>
      <point x="335" y="718" type="line"/>
      <point x="11" y="238" type="line"/>
      <point x="11" y="160" type="line"/>
      <point x="341" y="160" type="line"/>
    </contour>
    <contour>
      <point x="98" y="241" type="line"/>
      <point x="299" y="538" type="line" smooth="yes"/>
      <point x="315" y="562"/>
      <point x="330" y="591"/>
      <point x="343" y="626" type="curve"/>
      <point x="347" y="626" type="line"/>
      <point x="344" y="568"/>
      <point x="341" y="496"/>
      <point x="341" y="415" type="curve" smooth="yes"/>
      <point x="341" y="241" type="line"/>
    </contour>
  </outline>
</glyph>
<glyph name="six.gujr" format="2">
  <advance width="551"/>
  <unicode hex="0036"/>
  <outline>
    <contour>
      <point x="288" y="-10" type="curve" smooth="yes"/>
      <point x="421" y="-10"/>
      <point x="505" y="82"/>
      <point x="505" y="230" type="curve" smooth="yes"/>
      <point x="505" y="368"/>
      <point x="425" y="447"/>
      <point x="302" y="447" type="curve" smooth="yes"/>
      <point x="225" y="447"/>
      <point x="178" y="411"/>
      <point x="152" y="364" type="curve"/>
      <point x="146" y="364" type="line"/>
      <point x="152" y="519"/>
      <point x="194" y="651"/>
      <point x="370" y="651" type="curve" smooth="yes"/>
      <point x="398" y="651"/>
      <point x="428" y="647"/>
      <point x="451" y="639" type="curve"/>
      <point x="451" y="715" type="line"/>
      <point x="430" y="721"/>
      <point x="392" y="724"/>
      <point x="367" y="724" type="curve" smooth="yes"/>
      <point x="107" y="724"/>
      <point x="55" y="510"/>
      <point x="55" y="305" type="curve" smooth="yes"/>
      <point x="55" y="91"/>
      <point x="157" y="-10"/>
    </contour>
    <contour>
      <point x="287" y="65" type="curve" smooth="yes"/>
      <point x="192" y="65"/>
      <point x="144" y="160"/>
      <point x="144" y="247" type="curve" smooth="yes"/>
      <point x="144" y="310"/>
      <point x="202" y="377"/>
      <point x="290" y="377" type="curve" smooth="yes"/>
      <point x="376" y="377"/>
      <point x="419" y="321"/>
      <point x="419" y="230" type="curve" smooth="yes"/>
      <point x="419" y="117"/>
      <point x="365" y="65"/>
    </contour>
  </outline>
</glyph>
<glyph name="equal.gujr" format="2">
  <advance width="551"/>
  <unicode hex="003D"/>
  <outline>
    <contour>
      <point x="50" y="387" type="line"/>
      <point x="501" y="387" type="line"/>
      <point x="501" y="459" type="line"/>
      <point x="50" y="459" type="line"/>
    </contour>
    <contour>
      <point x="50" y="187" type="line"/>
      <point x="501" y="187" type="line"/>
      <point x="501" y="260" type="line"/>
      <point x="50" y="260" type="line"/>
    </contour>
  </outline>
</glyph>
<glyph name="greater.gujr" format="2">
  <advance width="551"/>
  <unicode hex="003E"/>
  <outline>
    <contour>
      <point x="50" y="77" type="line"/>
      <point x="501" y="284" type="line"/>
      <point x="501" y="334" type="line"/>
      <point x="50" y="569" type="line"/>
      <point x="50" y="491" type="line"/>
      <point x="409" y="313" type="line"/>
      <point x="50" y="156" type="line"/>
    </contour>
  </outline>
</glyph>
<glyph name="question.gujr" format="2">
  <advance width="508"/>
  <unicode hex="003F"/>
  <outline>
    <contour>
      <point x="190" y="202" type="line"/>
      <point x="258" y="202" type="line"/>
      <point x="258" y="211" type="line" smooth="yes"/>
      <point x="258" y="268"/>
      <point x="274" y="292"/>
      <point x="341" y="350" type="curve" smooth="yes"/>
      <point x="411" y="411"/>
      <point x="446" y="455"/>
      <point x="446" y="542" type="curve" smooth="yes"/>
      <point x="446" y="656"/>
      <point x="371" y="724"/>
      <point x="250" y="724" type="curve" smooth="yes"/>
      <point x="187" y="724"/>
      <point x="124" y="702"/>
      <point x="71" y="675" type="curve"/>
      <point x="102" y="604" type="line"/>
      <point x="147" y="626"/>
      <point x="196" y="646"/>
      <point x="250" y="646" type="curve" smooth="yes"/>
      <point x="322" y="646"/>
      <point x="361" y="604"/>
      <point x="361" y="541" type="curve" smooth="yes"/>
      <point x="361" y="472"/>
      <point x="335" y="443"/>
      <point x="273" y="390" type="curve" smooth="yes"/>
      <point x="208" y="335"/>
      <point x="190" y="295"/>
      <point x="190" y="220" type="curve" smooth="yes"/>
    </contour>
    <contour>
      <point x="167" y="54" type="curve" smooth="yes"/>
      <point x="167" y="6"/>
      <point x="194" y="-14"/>
      <point x="229" y="-14" type="curve" smooth="yes"/>
      <point x="263" y="-14"/>
      <point x="291" y="6"/>
      <point x="291" y="54" type="curve" smooth="yes"/>
      <point x="291" y="104"/>
      <point x="263" y="122"/>
      <point x="229" y="122" type="curve" smooth="yes"/>
      <point x="194" y="122"/>
      <point x="167" y="104"/>
    </contour>
  </outline>
</glyph>
<glyph name="backslash.gujr" format="2">
  <advance width="429"/>
  <unicode hex="005C"/>
  <outline>
    <contour>
      <point x="305" y="-166" type="line"/>
      <point x="387" y="-166" type="line"/>
      <point x="124" y="832" type="line"/>
      <point x="42" y="832" type="line"/>
    </contour>
  </outline>
</glyph>
<glyph name="asciicircum.gujr" format="2">
  <advance width="551"/>
  <unicode hex="005E"/>
  <outline>
    <contour>
      <point x="29" y="268" type="line"/>
      <point x="108" y="268" type="line"/>
      <point x="278" y="627" type="line"/>
      <point x="443" y="268" type="line"/>
      <point x="521" y="268" type="line"/>
      <point x="303" y="719" type="line"/>
      <point x="253" y="719" type="line"/>
    </contour>
  </outline>
</glyph>
<glyph name="braceright.gujr" format="2">
  <advance width="376"/>
  <unicode hex="007D"/>
  <outline>
    <contour>
      <point x="54" y="-166" type="line"/>
      <point x="152" y="-164"/>
      <point x="224" y="-125"/>
      <point x="224" y="-25" type="curve" smooth="yes"/>
      <point x="224" y="206" type="line" smooth="yes"/>
      <point x="224" y="271"/>
      <point x="267" y="296"/>
      <point x="347" y="296" type="curve"/>
      <point x="347" y="370" type="line"/>
      <point x="267" y="370"/>
      <point x="224" y="395"/>
      <point x="224" y="460" type="curve" smooth="yes"/>
      <point x="224" y="691" type="line" smooth="yes"/>
      <point x="224" y="791"/>
      <point x="152" y="830"/>
      <point x="54" y="832" type="curve"/>
      <point x="54" y="760" type="line"/>
      <point x="109" y="760"/>
      <point x="143" y="746"/>
      <point x="143" y="685" type="curve" smooth="yes"/>
      <point x="143" y="455" type="line" smooth="yes"/>
      <point x="143" y="388"/>
      <point x="180" y="349"/>
      <point x="249" y="335" type="curve"/>
      <point x="249" y="330" type="line"/>
      <point x="180" y="317"/>
      <point x="143" y="279"/>
      <point x="143" y="211" type="curve" smooth="yes"/>
      <point x="143" y="-18" type="line" smooth="yes"/>
      <point x="143" y="-80"/>
      <point x="109" y="-94"/>
      <point x="54" y="-94" type="curve"/>
    </contour>
  </outline>
</glyph>
<glyph name="asciitilde.gujr" format="2">
  <advance width="551"/>
  <unicode hex="007E"/>
  <outline>
    <contour>
      <point x="50" y="335" type="curve"/>
      <point x="50" y="256" type="line"/>
      <point x="82" y="289"/>
      <point x="125" y="315"/>
      <point x="161" y="315" type="curve" smooth="yes"/>
      <point x="191" y="315"/>
      <point x="211" y="309"/>
      <point x="259" y="288" type="curve" smooth="yes"/>
      <point x="320" y="262"/>
      <point x="342" y="257"/>
      <point x="380" y="257" type="curve" smooth="yes"/>
      <point x="428" y="257"/>
      <point x="469" y="275"/>
      <point x="501" y="310" type="curve"/>
      <point x="501" y="389" type="line"/>
      <point x="470" y="356"/>
      <point x="427" y="330"/>
      <point x="390" y="330" type="curve" smooth="yes"/>
      <point x="362" y="330"/>
      <point x="341" y="336"/>
      <point x="292" y="357" type="curve" smooth="yes"/>
      <point x="231" y="383"/>
      <point x="209" y="388"/>
      <point x="171" y="388" type="curve" smooth="yes"/>
      <point x="123" y="388"/>
      <point x="83" y="371"/>
    </contour>
  </outline>
</glyph>
<glyph name="multiply.gujr" format="2">
  <advance width="551"/>
  <unicode hex="00D7"/>
  <outline>
    <contour>
      <point x="120" y="116" type="line"/>
      <point x="275" y="270" type="line"/>
      <point x="430" y="116" type="line"/>
      <point x="480" y="167" type="line"/>
      <point x="326" y="321" type="line"/>
      <point x="481" y="477" type="line"/>
      <point x="430" y="528" type="line"/>
      <point x="275" y="373" type="line"/>
      <point x="120" y="528" type="line"/>
      <point x="69" y="477" type="line"/>
      <point x="224" y="321" type="line"/>
      <point x="70" y="167" type="line"/>
    </contour>
  </outline>
</glyph>
<glyph name="uni0951" format="2">
  <unicode hex="0951"/>
  <outline>
    <contour>
      <point x="-219" y="656" type="line"/>
      <point x="-219" y="896" type="line"/>
      <point x="-290" y="896" type="line"/>
      <point x="-290" y="656" type="line"/>
    </contour>
  </outline>
</glyph>
<glyph name="uni0952" format="2">
  <unicode hex="0952"/>
  <outline>
    <contour>
      <point x="-419" y="-77" type="line"/>
      <point x="-419" y="-148" type="line"/>
      <point x="-90" y="-148" type="line"/>
      <point x="-90" y="-77" type="line"/>
    </contour>
  </outline>
</glyph>
<glyph name="danda.gujr" format="2">
  <advance width="379"/>
  <unicode hex="0964"/>
  <outline>
    <contour>
      <point x="194" y="0" type="line"/>
      <point x="275" y="0" type="line"/>
      <point x="275" y="597" type="line"/>
      <point x="194" y="597" type="line"/>
    </contour>
  </outline>
</glyph>
<glyph name="dbldanda.gujr" format="2">
  <advance width="599"/>
  <unicode hex="0965"/>
  <outline>
    <contour>
      <point x="414" y="0" type="line"/>
      <point x="495" y="0" type="line"/>
      <point x="495" y="597" type="line"/>
      <point x="414" y="597" type="line"/>
    </contour>
    <contour>
      <point x="194" y="0" type="line"/>
      <point x="275" y="0" type="line"/>
      <point x="275" y="597" type="line"/>
      <point x="194" y="597" type="line"/>
    </contour>
  </outline>
</glyph>
<glyph name="candrabindugujr" format="2">
  <unicode hex="0A81"/>
  <outline>
    <contour>
      <point x="-133" y="655" type="curve" smooth="yes"/>
      <point x="-49" y="655"/>
      <point x="23" y="695"/>
      <point x="65" y="787" type="curve"/>
      <point x="-4" y="815" type="line"/>
      <point x="-30" y="759"/>
      <point x="-67" y="725"/>
      <point x="-133" y="725" type="curve" smooth="yes"/>
      <point x="-198" y="725"/>
      <point x="-236" y="759"/>
      <point x="-261" y="815" type="curve"/>
      <point x="-331" y="787" type="line"/>
      <point x="-288" y="693"/>
      <point x="-215" y="655"/>
    </contour>
    <contour>
      <point x="-133" y="773" type="curve" smooth="yes"/>
      <point x="-105" y="773"/>
      <point x="-82" y="797"/>
      <point x="-82" y="828" type="curve" smooth="yes"/>
      <point x="-82" y="858"/>
      <point x="-105" y="882"/>
      <point x="-133" y="882" type="curve" smooth="yes"/>
      <point x="-162" y="882"/>
      <point x="-185" y="858"/>
      <point x="-185" y="828" type="curve" smooth="yes"/>
      <point x="-185" y="797"/>
      <point x="-162" y="773"/>
    </contour>
  </outline>
</glyph>
<glyph name="anusvaragujr" format="2">
  <unicode hex="0A82"/>
  <outline>
    <contour>
      <point x="-133" y="703" type="curve" smooth="yes"/>
      <point x="-102" y="703"/>
      <point x="-77" y="726"/>
      <point x="-77" y="762" type="curve" smooth="yes"/>
      <point x="-77" y="798"/>
      <point x="-102" y="821"/>
      <point x="-133" y="821" type="curve" smooth="yes"/>
      <point x="-165" y="821"/>
      <point x="-189" y="798"/>
      <point x="-189" y="762" type="curve" smooth="yes"/>
      <point x="-189" y="726"/>
      <point x="-165" y="703"/>
    </contour>
  </outline>
</glyph>
<glyph name="visargagujr" format="2">
  <advance width="248"/>
  <unicode hex="0A83"/>
  <outline>
    <contour>
      <point x="124" y="357" type="curve" smooth="yes"/>
      <point x="157" y="357"/>
      <point x="185" y="381"/>
      <point x="185" y="421" type="curve" smooth="yes"/>
      <point x="185" y="462"/>
      <point x="157" y="485"/>
      <point x="124" y="485" type="curve" smooth="yes"/>
      <point x="91" y="485"/>
      <point x="63" y="462"/>
      <point x="63" y="421" type="curve" smooth="yes"/>
      <point x="63" y="381"/>
      <point x="91" y="357"/>
    </contour>
    <contour>
      <point x="124" y="50" type="curve" smooth="yes"/>
      <point x="157" y="50"/>
      <point x="185" y="74"/>
      <point x="185" y="114" type="curve" smooth="yes"/>
      <point x="185" y="154"/>
      <point x="157" y="178"/>
      <point x="124" y="178" type="curve" smooth="yes"/>
      <point x="91" y="178"/>
      <point x="63" y="154"/>
      <point x="63" y="114" type="curve" smooth="yes"/>
      <point x="63" y="74"/>
      <point x="91" y="50"/>
    </contour>
  </outline>
</glyph>
<glyph name="aagujr" format="2">
  <advance width="1148"/>
  <unicode hex="0A86"/>
  <outline>
    <contour>
      <point x="343" y="103" type="curve" smooth="yes"/>
      <point x="473" y="103"/>
      <point x="566" y="184"/>
      <point x="566" y="349" type="curve" smooth="yes"/>
      <point x="566" y="437" type="line"/>
      <point x="486" y="447" type="line"/>
      <point x="486" y="371" type="line" smooth="yes"/>
      <point x="486" y="297"/>
      <point x="479" y="253"/>
      <point x="446" y="216" type="curve" smooth="yes"/>
      <point x="423" y="190"/>
      <point x="387" y="175"/>
      <point x="337" y="175" type="curve" smooth="yes"/>
      <point x="276" y="175"/>
      <point x="225" y="204"/>
      <point x="201" y="256" type="curve"/>
      <point x="187" y="295" type="line"/>
      <point x="158" y="329"/>
      <point x="135" y="346"/>
      <point x="94" y="346" type="curve" smooth="yes"/>
      <point x="54" y="346"/>
      <point x="35" y="323"/>
      <point x="35" y="297" type="curve" smooth="yes"/>
      <point x="35" y="258"/>
      <point x="63" y="237"/>
      <point x="117" y="237" type="curve" smooth="yes"/>
      <point x="244" y="237"/>
      <point x="352" y="317"/>
      <point x="352" y="428" type="curve" smooth="yes"/>
      <point x="352" y="539"/>
      <point x="282" y="603"/>
      <point x="161" y="603" type="curve" smooth="yes"/>
      <point x="113" y="603"/>
      <point x="63" y="590"/>
      <point x="31" y="576" type="curve"/>
      <point x="58" y="508" type="line"/>
      <point x="89" y="522"/>
      <point x="129" y="530"/>
      <point x="158" y="530" type="curve" smooth="yes"/>
      <point x="236" y="530"/>
      <point x="272" y="494"/>
      <point x="272" y="430" type="curve" smooth="yes"/>
      <point x="272" y="363"/>
      <point x="213" y="314"/>
      <point x="138" y="303" type="curve"/>
      <point x="117" y="245" type="line"/>
      <point x="173" y="138"/>
      <point x="250" y="103"/>
    </contour>
    <contour>
      <point x="624" y="228" type="curve" smooth="yes"/>
      <point x="683" y="228"/>
      <point x="716" y="251"/>
      <point x="750" y="291" type="curve"/>
      <point x="733" y="373" type="line"/>
      <point x="703" y="328"/>
      <point x="671" y="300"/>
      <point x="623" y="300" type="curve" smooth="yes"/>
      <point x="591" y="300"/>
      <point x="565" y="313"/>
      <point x="555" y="356" type="curve"/>
      <point x="497" y="333" type="line"/>
      <point x="525" y="251"/>
      <point x="574" y="228"/>
    </contour>
    <contour>
      <point x="856" y="0" type="curve" smooth="yes"/>
      <point x="867" y="0" type="line"/>
      <point x="875" y="73" type="line"/>
      <point x="847" y="73"/>
      <point x="814" y="73"/>
      <point x="800" y="92" type="curve" smooth="yes"/>
      <point x="792" y="103"/>
      <point x="788" y="116"/>
      <point x="788" y="152" type="curve" smooth="yes"/>
      <point x="788" y="592" type="line"/>
      <point x="708" y="603" type="line"/>
      <point x="708" y="148" type="line" smooth="yes"/>
      <point x="708" y="89"/>
      <point x="717" y="60"/>
      <point x="739" y="37" type="curve" smooth="yes"/>
      <point x="762" y="13"/>
      <point x="799" y="0"/>
    </contour>
    <contour>
      <point x="1122" y="0" type="curve" smooth="yes"/>
      <point x="1132" y="0" type="line"/>
      <point x="1140" y="73" type="line"/>
      <point x="1112" y="73"/>
      <point x="1079" y="73"/>
      <point x="1065" y="92" type="curve" smooth="yes"/>
      <point x="1057" y="103"/>
      <point x="1053" y="116"/>
      <point x="1053" y="152" type="curve" smooth="yes"/>
      <point x="1053" y="592" type="line"/>
      <point x="973" y="603" type="line"/>
      <point x="973" y="148" type="line" smooth="yes"/>
      <point x="973" y="89"/>
      <point x="982" y="60"/>
      <point x="1004" y="37" type="curve" smooth="yes"/>
      <point x="1027" y="13"/>
      <point x="1064" y="0"/>
    </contour>
  </outline>
</glyph>
<glyph name="igujr" format="2">
  <advance width="634"/>
  <unicode hex="0A87"/>
  <outline>
    <contour>
      <point x="311" y="-10" type="curve" smooth="yes"/>
      <point x="518" y="-10"/>
      <point x="590" y="107"/>
      <point x="590" y="236" type="curve" smooth="yes"/>
      <point x="590" y="313"/>
      <point x="565" y="370"/>
      <point x="538" y="420" type="curve" smooth="yes"/>
      <point x="499" y="492"/>
      <point x="483" y="522"/>
      <point x="483" y="563" type="curve" smooth="yes"/>
      <point x="483" y="604"/>
      <point x="500" y="627"/>
      <point x="547" y="661" type="curve"/>
      <point x="494" y="728" type="line"/>
      <point x="427" y="680"/>
      <point x="400" y="629"/>
      <point x="400" y="567" type="curve" smooth="yes"/>
      <point x="400" y="508"/>
      <point x="419" y="470"/>
      <point x="457" y="402" type="curve" smooth="yes"/>
      <point x="484" y="353"/>
      <point x="508" y="305"/>
      <point x="508" y="236" type="curve" smooth="yes"/>
      <point x="508" y="129"/>
      <point x="434" y="63"/>
      <point x="314" y="63" type="curve" smooth="yes"/>
      <point x="217" y="63"/>
      <point x="168" y="104"/>
      <point x="168" y="177" type="curve" smooth="yes"/>
      <point x="168" y="253"/>
      <point x="229" y="286"/>
      <point x="300" y="286" type="curve" smooth="yes"/>
      <point x="310" y="286"/>
      <point x="320" y="286"/>
      <point x="329" y="285" type="curve"/>
      <point x="338" y="357" type="line"/>
      <point x="325" y="359"/>
      <point x="311" y="359"/>
      <point x="299" y="359" type="curve" smooth="yes"/>
      <point x="164" y="359"/>
      <point x="88" y="278"/>
      <point x="88" y="176" type="curve" smooth="yes"/>
      <point x="88" y="70"/>
      <point x="164" y="-10"/>
    </contour>
    <contour>
      <point x="166" y="286" type="curve"/>
      <point x="220" y="338" type="line"/>
      <point x="150" y="371"/>
      <point x="125" y="407"/>
      <point x="125" y="456" type="curve" smooth="yes"/>
      <point x="125" y="499"/>
      <point x="157" y="529"/>
      <point x="219" y="529" type="curve" smooth="yes"/>
      <point x="242" y="529"/>
      <point x="270" y="525"/>
      <point x="290" y="520" type="curve"/>
      <point x="304" y="592" type="line"/>
      <point x="278" y="599"/>
      <point x="238" y="603"/>
      <point x="210" y="603" type="curve" smooth="yes"/>
      <point x="102" y="603"/>
      <point x="44" y="537"/>
      <point x="44" y="461" type="curve" smooth="yes"/>
      <point x="44" y="375"/>
      <point x="98" y="324"/>
    </contour>
  </outline>
</glyph>
<glyph name="iigujr" format="2">
  <advance width="634"/>
  <unicode hex="0A88"/>
  <outline>
    <contour>
      <point x="311" y="-10" type="curve" smooth="yes"/>
      <point x="520" y="-10"/>
      <point x="590" y="107"/>
      <point x="590" y="236" type="curve" smooth="yes"/>
      <point x="590" y="334"/>
      <point x="555" y="419"/>
      <point x="504" y="518" type="curve" smooth="yes"/>
      <point x="453" y="617"/>
      <point x="424" y="675"/>
      <point x="424" y="737" type="curve" smooth="yes"/>
      <point x="424" y="802"/>
      <point x="464" y="825"/>
      <point x="506" y="825" type="curve" smooth="yes"/>
      <point x="562" y="825"/>
      <point x="596" y="781"/>
      <point x="617" y="734" type="curve"/>
      <point x="691" y="761" type="line"/>
      <point x="661" y="830"/>
      <point x="610" y="896"/>
      <point x="505" y="896" type="curve" smooth="yes"/>
      <point x="400" y="896"/>
      <point x="341" y="827"/>
      <point x="341" y="739" type="curve" smooth="yes"/>
      <point x="341" y="663"/>
      <point x="369" y="609"/>
      <point x="437" y="476" type="curve" smooth="yes"/>
      <point x="487" y="378"/>
      <point x="508" y="321"/>
      <point x="508" y="236" type="curve" smooth="yes"/>
      <point x="508" y="129"/>
      <point x="439" y="63"/>
      <point x="314" y="63" type="curve" smooth="yes"/>
      <point x="217" y="63"/>
      <point x="168" y="104"/>
      <point x="168" y="177" type="curve" smooth="yes"/>
      <point x="168" y="253"/>
      <point x="229" y="286"/>
      <point x="300" y="286" type="curve" smooth="yes"/>
      <point x="310" y="286"/>
      <point x="320" y="286"/>
      <point x="329" y="285" type="curve"/>
      <point x="338" y="357" type="line"/>
      <point x="325" y="359"/>
      <point x="311" y="359"/>
      <point x="299" y="359" type="curve" smooth="yes"/>
      <point x="164" y="359"/>
      <point x="88" y="278"/>
      <point x="88" y="176" type="curve" smooth="yes"/>
      <point x="88" y="70"/>
      <point x="164" y="-10"/>
    </contour>
    <contour>
      <point x="166" y="286" type="curve"/>
      <point x="220" y="338" type="line"/>
      <point x="150" y="371"/>
      <point x="125" y="407"/>
      <point x="125" y="456" type="curve" smooth="yes"/>
      <point x="125" y="499"/>
      <point x="157" y="529"/>
      <point x="219" y="529" type="curve" smooth="yes"/>
      <point x="242" y="529"/>
      <point x="270" y="525"/>
      <point x="290" y="520" type="curve"/>
      <point x="304" y="592" type="line"/>
      <point x="278" y="599"/>
      <point x="238" y="603"/>
      <point x="210" y="603" type="curve" smooth="yes"/>
      <point x="102" y="603"/>
      <point x="44" y="537"/>
      <point x="44" y="461" type="curve" smooth="yes"/>
      <point x="44" y="375"/>
      <point x="98" y="324"/>
    </contour>
  </outline>
</glyph>
<glyph name="ugujr" format="2">
  <advance width="625"/>
  <unicode hex="0A89"/>
  <outline>
    <contour>
      <point x="367" y="-10" type="curve" smooth="yes"/>
      <point x="498" y="-10"/>
      <point x="576" y="57"/>
      <point x="576" y="167" type="curve" smooth="yes"/>
      <point x="576" y="235"/>
      <point x="537" y="308"/>
      <point x="459" y="352" type="curve"/>
      <point x="388" y="337" type="line"/>
      <point x="389" y="306" type="line"/>
      <point x="453" y="284"/>
      <point x="495" y="235"/>
      <point x="495" y="171" type="curve" smooth="yes"/>
      <point x="495" y="97"/>
      <point x="444" y="63"/>
      <point x="364" y="63" type="curve" smooth="yes"/>
      <point x="231" y="63"/>
      <point x="141" y="161"/>
      <point x="141" y="389" type="curve" smooth="yes"/>
      <point x="141" y="568"/>
      <point x="203" y="760"/>
      <point x="417" y="760" type="curve" smooth="yes"/>
      <point x="447" y="760"/>
      <point x="479" y="757"/>
      <point x="500" y="751" type="curve"/>
      <point x="514" y="823" type="line"/>
      <point x="486" y="830"/>
      <point x="458" y="834"/>
      <point x="414" y="834" type="curve" smooth="yes"/>
      <point x="152" y="834"/>
      <point x="58" y="616"/>
      <point x="58" y="392" type="curve" smooth="yes"/>
      <point x="58" y="116"/>
      <point x="179" y="-10"/>
    </contour>
    <contour>
      <point x="338" y="270" type="line"/>
      <point x="454" y="277"/>
      <point x="575" y="329"/>
      <point x="575" y="449" type="curve" smooth="yes"/>
      <point x="575" y="537"/>
      <point x="519" y="603"/>
      <point x="396" y="603" type="curve" smooth="yes"/>
      <point x="341" y="603"/>
      <point x="292" y="588"/>
      <point x="244" y="567" type="curve"/>
      <point x="270" y="499" type="line"/>
      <point x="315" y="521"/>
      <point x="353" y="529"/>
      <point x="395" y="529" type="curve" smooth="yes"/>
      <point x="457" y="529"/>
      <point x="495" y="498"/>
      <point x="495" y="446" type="curve" smooth="yes"/>
      <point x="495" y="377"/>
      <point x="417" y="348"/>
      <point x="323" y="343" type="curve"/>
    </contour>
  </outline>
</glyph>
<glyph name="uugujr" format="2">
  <advance width="888"/>
  <unicode hex="0A8A"/>
  <outline>
    <contour>
      <point x="362" y="-10" type="curve" smooth="yes"/>
      <point x="498" y="-10"/>
      <point x="576" y="56"/>
      <point x="576" y="167" type="curve" smooth="yes"/>
      <point x="576" y="235"/>
      <point x="537" y="308"/>
      <point x="459" y="352" type="curve"/>
      <point x="388" y="337" type="line"/>
      <point x="389" y="306" type="line"/>
      <point x="453" y="284"/>
      <point x="495" y="235"/>
      <point x="495" y="171" type="curve" smooth="yes"/>
      <point x="495" y="97"/>
      <point x="444" y="63"/>
      <point x="364" y="63" type="curve" smooth="yes"/>
      <point x="230" y="63"/>
      <point x="141" y="161"/>
      <point x="141" y="383" type="curve" smooth="yes"/>
      <point x="141" y="567"/>
      <point x="213" y="759"/>
      <point x="438" y="759" type="curve" smooth="yes"/>
      <point x="574" y="759"/>
      <point x="666" y="675"/>
      <point x="714" y="557" type="curve"/>
      <point x="714" y="148" type="line" smooth="yes"/>
      <point x="714" y="89"/>
      <point x="723" y="60"/>
      <point x="745" y="37" type="curve" smooth="yes"/>
      <point x="768" y="13"/>
      <point x="805" y="0"/>
      <point x="862" y="0" type="curve" smooth="yes"/>
      <point x="873" y="0" type="line"/>
      <point x="880" y="73" type="line"/>
      <point x="853" y="73"/>
      <point x="820" y="73"/>
      <point x="806" y="92" type="curve" smooth="yes"/>
      <point x="798" y="103"/>
      <point x="794" y="116"/>
      <point x="794" y="152" type="curve" smooth="yes"/>
      <point x="794" y="577" type="line"/>
      <point x="727" y="728"/>
      <point x="620" y="834"/>
      <point x="435" y="834" type="curve" smooth="yes"/>
      <point x="164" y="834"/>
      <point x="58" y="615"/>
      <point x="58" y="382" type="curve" smooth="yes"/>
      <point x="58" y="116"/>
      <point x="181" y="-10"/>
    </contour>
    <contour>
      <point x="338" y="270" type="line"/>
      <point x="454" y="277"/>
      <point x="575" y="329"/>
      <point x="575" y="449" type="curve" smooth="yes"/>
      <point x="575" y="537"/>
      <point x="519" y="603"/>
      <point x="396" y="603" type="curve" smooth="yes"/>
      <point x="341" y="603"/>
      <point x="292" y="588"/>
      <point x="244" y="567" type="curve"/>
      <point x="270" y="499" type="line"/>
      <point x="315" y="521"/>
      <point x="353" y="529"/>
      <point x="395" y="529" type="curve" smooth="yes"/>
      <point x="457" y="529"/>
      <point x="495" y="498"/>
      <point x="495" y="446" type="curve" smooth="yes"/>
      <point x="495" y="377"/>
      <point x="417" y="348"/>
      <point x="323" y="343" type="curve"/>
    </contour>
  </outline>
</glyph>
<glyph name="rvocalicgujr" format="2">
  <advance width="831"/>
  <unicode hex="0A8B"/>
  <outline>
    <contour>
      <point x="682" y="79" type="line"/>
      <point x="743" y="109"/>
      <point x="791" y="149"/>
      <point x="791" y="226" type="curve" smooth="yes"/>
      <point x="791" y="281"/>
      <point x="770" y="327"/>
      <point x="715" y="403" type="curve"/>
      <point x="683" y="407" type="line"/>
      <point x="655" y="389"/>
      <point x="645" y="385"/>
      <point x="614" y="385" type="curve" smooth="yes"/>
      <point x="562" y="385"/>
      <point x="516" y="407"/>
      <point x="480" y="446" type="curve"/>
      <point x="471" y="369" type="line"/>
      <point x="516" y="331"/>
      <point x="574" y="313"/>
      <point x="624" y="313" type="curve" smooth="yes"/>
      <point x="704" y="313"/>
      <point x="775" y="354"/>
      <point x="775" y="418" type="curve" smooth="yes"/>
      <point x="775" y="461"/>
      <point x="747" y="490"/>
      <point x="705" y="490" type="curve" smooth="yes"/>
      <point x="669" y="490"/>
      <point x="638" y="471"/>
      <point x="638" y="429" type="curve" smooth="yes"/>
      <point x="638" y="408"/>
      <point x="646" y="391"/>
      <point x="657" y="375" type="curve"/>
      <point x="655" y="365" type="line"/>
      <point x="699" y="310"/>
      <point x="712" y="271"/>
      <point x="712" y="230" type="curve" smooth="yes"/>
      <point x="712" y="180"/>
      <point x="675" y="159"/>
      <point x="641" y="143" type="curve"/>
    </contour>
    <contour>
      <point x="146" y="135" type="line"/>
      <point x="447" y="334" type="line"/>
      <point x="414" y="394" type="line"/>
      <point x="96" y="205" type="line"/>
    </contour>
    <contour>
      <point x="348" y="334" type="curve"/>
      <point x="401" y="383" type="line"/>
      <point x="314" y="494"/>
      <point x="265" y="533"/>
      <point x="161" y="533" type="curve" smooth="yes"/>
      <point x="117" y="533"/>
      <point x="63" y="520"/>
      <point x="11" y="493" type="curve"/>
      <point x="40" y="423" type="line"/>
      <point x="83" y="446"/>
      <point x="116" y="458"/>
      <point x="165" y="458" type="curve" smooth="yes"/>
      <point x="226" y="458"/>
      <point x="277" y="440"/>
    </contour>
    <contour>
      <point x="556" y="0" type="curve" smooth="yes"/>
      <point x="566" y="0" type="line"/>
      <point x="574" y="73" type="line"/>
      <point x="548" y="73"/>
      <point x="514" y="73"/>
      <point x="500" y="92" type="curve" smooth="yes"/>
      <point x="491" y="105"/>
      <point x="487" y="115"/>
      <point x="487" y="152" type="curve" smooth="yes"/>
      <point x="487" y="592" type="line"/>
      <point x="407" y="603" type="line"/>
      <point x="407" y="148" type="line" smooth="yes"/>
      <point x="407" y="89"/>
      <point x="416" y="60"/>
      <point x="438" y="37" type="curve" smooth="yes"/>
      <point x="461" y="13"/>
      <point x="498" y="0"/>
    </contour>
  </outline>
</glyph>
<glyph name="lvocalicgujr" format="2">
  <advance width="697"/>
  <unicode hex="0A8C"/>
  <outline>
    <contour>
      <point x="210" y="36" type="curve"/>
      <point x="264" y="88" type="line"/>
      <point x="175" y="168"/>
      <point x="125" y="232"/>
      <point x="125" y="296" type="curve" smooth="yes"/>
      <point x="125" y="343"/>
      <point x="153" y="377"/>
      <point x="208" y="377" type="curve" smooth="yes"/>
      <point x="258" y="377"/>
      <point x="294" y="351"/>
      <point x="335" y="316" type="curve"/>
      <point x="368" y="382" type="line"/>
      <point x="319" y="426"/>
      <point x="267" y="450"/>
      <point x="203" y="450" type="curve" smooth="yes"/>
      <point x="130" y="450"/>
      <point x="42" y="405"/>
      <point x="42" y="300" type="curve" smooth="yes"/>
      <point x="42" y="202"/>
      <point x="117" y="120"/>
    </contour>
    <contour>
      <point x="581" y="-87" type="curve" smooth="yes"/>
      <point x="635" y="-87"/>
      <point x="681" y="-70"/>
      <point x="716" y="-52" type="curve"/>
      <point x="688" y="18" type="line"/>
      <point x="643" y="-5"/>
      <point x="617" y="-15"/>
      <point x="575" y="-15" type="curve" smooth="yes"/>
      <point x="534" y="-15"/>
      <point x="496" y="5"/>
      <point x="496" y="49" type="curve" smooth="yes"/>
      <point x="496" y="97"/>
      <point x="531" y="125"/>
      <point x="614" y="138" type="curve"/>
      <point x="598" y="205" type="line"/>
      <point x="472" y="186"/>
      <point x="421" y="128"/>
      <point x="421" y="54" type="curve" smooth="yes"/>
      <point x="421" y="-29"/>
      <point x="480" y="-87"/>
    </contour>
    <contour>
      <point x="614" y="138" type="line"/>
      <point x="637" y="180"/>
      <point x="654" y="234"/>
      <point x="654" y="288" type="curve" smooth="yes"/>
      <point x="654" y="406"/>
      <point x="570" y="450"/>
      <point x="504" y="450" type="curve" smooth="yes"/>
      <point x="391" y="450"/>
      <point x="310" y="383"/>
      <point x="278" y="257" type="curve"/>
      <point x="354" y="233" type="line"/>
      <point x="390" y="354"/>
      <point x="444" y="380"/>
      <point x="494" y="380" type="curve" smooth="yes"/>
      <point x="542" y="380"/>
      <point x="574" y="353"/>
      <point x="574" y="292" type="curve" smooth="yes"/>
      <point x="574" y="237"/>
      <point x="551" y="196"/>
      <point x="529" y="158" type="curve"/>
    </contour>
    <contour>
      <point x="454" y="412" type="line"/>
      <point x="534" y="412" type="line"/>
      <point x="534" y="592" type="line"/>
      <point x="454" y="603" type="line"/>
    </contour>
  </outline>
</glyph>
<glyph name="kagujr" format="2">
  <advance width="511"/>
  <unicode hex="0A95"/>
  <outline>
    <contour>
      <point x="259" y="-10" type="curve" smooth="yes"/>
      <point x="402" y="-10"/>
      <point x="453" y="68"/>
      <point x="453" y="142" type="curve" smooth="yes"/>
      <point x="453" y="217"/>
      <point x="405" y="270"/>
      <point x="313" y="322" type="curve"/>
      <point x="285" y="347" type="line"/>
      <point x="212" y="384"/>
      <point x="185" y="418"/>
      <point x="185" y="454" type="curve" smooth="yes"/>
      <point x="185" y="500"/>
      <point x="218" y="529"/>
      <point x="286" y="529" type="curve" smooth="yes"/>
      <point x="321" y="529"/>
      <point x="344" y="525"/>
      <point x="379" y="517" type="curve"/>
      <point x="394" y="589" type="line"/>
      <point x="358" y="598"/>
      <point x="320" y="603"/>
      <point x="277" y="603" type="curve" smooth="yes"/>
      <point x="171" y="603"/>
      <point x="103" y="545"/>
      <point x="103" y="461" type="curve" smooth="yes"/>
      <point x="103" y="393"/>
      <point x="148" y="351"/>
      <point x="219" y="306" type="curve"/>
      <point x="246" y="285" type="line"/>
      <point x="350" y="224"/>
      <point x="371" y="183"/>
      <point x="371" y="144" type="curve" smooth="yes"/>
      <point x="371" y="92"/>
      <point x="335" y="63"/>
      <point x="254" y="63" type="curve" smooth="yes"/>
      <point x="189" y="63"/>
      <point x="128" y="84"/>
      <point x="63" y="135" type="curve"/>
      <point x="18" y="73" type="line"/>
      <point x="78" y="27"/>
      <point x="155" y="-10"/>
    </contour>
    <contour>
      <point x="65" y="211" type="line"/>
      <point x="289" y="297" type="line"/>
      <point x="496" y="368" type="line"/>
      <point x="464" y="438" type="line"/>
      <point x="229" y="350" type="line"/>
      <point x="38" y="282" type="line"/>
    </contour>
  </outline>
</glyph>
<glyph name="khagujr" format="2">
  <advance width="746"/>
  <unicode hex="0A96"/>
  <outline>
    <contour>
      <point x="261" y="161" type="curve" smooth="yes"/>
      <point x="360" y="161"/>
      <point x="429" y="229"/>
      <point x="429" y="326" type="curve" smooth="yes"/>
      <point x="429" y="471" type="line"/>
      <point x="349" y="481" type="line"/>
      <point x="349" y="351" type="line" smooth="yes"/>
      <point x="349" y="296"/>
      <point x="341" y="274"/>
      <point x="327" y="258" type="curve" smooth="yes"/>
      <point x="311" y="240"/>
      <point x="289" y="233"/>
      <point x="262" y="233" type="curve" smooth="yes"/>
      <point x="234" y="233"/>
      <point x="214" y="240"/>
      <point x="200" y="253" type="curve" smooth="yes"/>
      <point x="181" y="271"/>
      <point x="173" y="297"/>
      <point x="173" y="351" type="curve" smooth="yes"/>
      <point x="173" y="443" type="line" smooth="yes"/>
      <point x="173" y="503"/>
      <point x="164" y="532"/>
      <point x="142" y="555" type="curve" smooth="yes"/>
      <point x="119" y="579"/>
      <point x="82" y="592"/>
      <point x="24" y="592" type="curve" smooth="yes"/>
      <point x="14" y="592" type="line"/>
      <point x="6" y="519" type="line"/>
      <point x="34" y="519"/>
      <point x="67" y="519"/>
      <point x="81" y="500" type="curve" smooth="yes"/>
      <point x="89" y="489"/>
      <point x="93" y="476"/>
      <point x="93" y="440" type="curve" smooth="yes"/>
      <point x="93" y="351" type="line" smooth="yes"/>
      <point x="93" y="274"/>
      <point x="107" y="236"/>
      <point x="140" y="203" type="curve" smooth="yes"/>
      <point x="168" y="175"/>
      <point x="208" y="161"/>
    </contour>
    <contour>
      <point x="486" y="262" type="curve" smooth="yes"/>
      <point x="546" y="262"/>
      <point x="579" y="285"/>
      <point x="614" y="325" type="curve"/>
      <point x="597" y="407" type="line"/>
      <point x="566" y="362"/>
      <point x="535" y="334"/>
      <point x="486" y="334" type="curve" smooth="yes"/>
      <point x="454" y="334"/>
      <point x="428" y="347"/>
      <point x="418" y="390" type="curve"/>
      <point x="360" y="367" type="line"/>
      <point x="389" y="285"/>
      <point x="434" y="262"/>
    </contour>
    <contour>
      <point x="720" y="0" type="curve" smooth="yes"/>
      <point x="730" y="0" type="line"/>
      <point x="738" y="73" type="line"/>
      <point x="710" y="73"/>
      <point x="677" y="73"/>
      <point x="664" y="92" type="curve" smooth="yes"/>
      <point x="656" y="104"/>
      <point x="651" y="116"/>
      <point x="651" y="152" type="curve" smooth="yes"/>
      <point x="651" y="592" type="line"/>
      <point x="571" y="603" type="line"/>
      <point x="571" y="148" type="line" smooth="yes"/>
      <point x="571" y="89"/>
      <point x="580" y="60"/>
      <point x="603" y="37" type="curve" smooth="yes"/>
      <point x="626" y="14"/>
      <point x="662" y="0"/>
    </contour>
  </outline>
</glyph>
<glyph name="gagujr" format="2">
  <advance width="654"/>
  <unicode hex="0A97"/>
  <outline>
    <contour>
      <point x="210" y="178" type="curve" smooth="yes"/>
      <point x="288" y="178"/>
      <point x="380" y="213"/>
      <point x="380" y="383" type="curve" smooth="yes"/>
      <point x="380" y="534"/>
      <point x="303" y="603"/>
      <point x="192" y="603" type="curve" smooth="yes"/>
      <point x="149" y="603"/>
      <point x="98" y="592"/>
      <point x="54" y="570" type="curve"/>
      <point x="79" y="503" type="line"/>
      <point x="108" y="519"/>
      <point x="146" y="530"/>
      <point x="188" y="530" type="curve" smooth="yes"/>
      <point x="257" y="530"/>
      <point x="299" y="487"/>
      <point x="299" y="384" type="curve" smooth="yes"/>
      <point x="299" y="289"/>
      <point x="260" y="251"/>
      <point x="206" y="251" type="curve" smooth="yes"/>
      <point x="155" y="251"/>
      <point x="119" y="278"/>
      <point x="74" y="346" type="curve"/>
      <point x="11" y="303" type="line"/>
      <point x="70" y="213"/>
      <point x="136" y="178"/>
    </contour>
    <contour>
      <point x="627" y="0" type="curve" smooth="yes"/>
      <point x="638" y="0" type="line"/>
      <point x="646" y="73" type="line"/>
      <point x="618" y="73"/>
      <point x="585" y="73"/>
      <point x="571" y="92" type="curve" smooth="yes"/>
      <point x="563" y="103"/>
      <point x="559" y="116"/>
      <point x="559" y="152" type="curve" smooth="yes"/>
      <point x="559" y="592" type="line"/>
      <point x="479" y="603" type="line"/>
      <point x="479" y="148" type="line" smooth="yes"/>
      <point x="479" y="89"/>
      <point x="488" y="60"/>
      <point x="510" y="37" type="curve" smooth="yes"/>
      <point x="533" y="13"/>
      <point x="570" y="0"/>
    </contour>
  </outline>
</glyph>
<glyph name="ngagujr" format="2">
  <advance width="490"/>
  <unicode hex="0A99"/>
  <outline>
    <contour>
      <point x="399" y="367" type="curve" smooth="yes"/>
      <point x="431" y="367"/>
      <point x="457" y="390"/>
      <point x="457" y="424" type="curve" smooth="yes"/>
      <point x="457" y="458"/>
      <point x="431" y="480"/>
      <point x="399" y="480" type="curve" smooth="yes"/>
      <point x="368" y="480"/>
      <point x="342" y="458"/>
      <point x="342" y="424" type="curve" smooth="yes"/>
      <point x="342" y="390"/>
      <point x="368" y="367"/>
    </contour>
    <contour>
      <point x="264" y="-10" type="curve" smooth="yes"/>
      <point x="385" y="-10"/>
      <point x="450" y="56"/>
      <point x="450" y="153" type="curve" smooth="yes"/>
      <point x="450" y="239"/>
      <point x="403" y="291"/>
      <point x="300" y="354" type="curve" smooth="yes"/>
      <point x="220" y="403"/>
      <point x="193" y="422"/>
      <point x="193" y="464" type="curve" smooth="yes"/>
      <point x="193" y="505"/>
      <point x="225" y="530"/>
      <point x="285" y="530" type="curve" smooth="yes"/>
      <point x="316" y="530"/>
      <point x="341" y="529"/>
      <point x="376" y="521" type="curve"/>
      <point x="391" y="591" type="line"/>
      <point x="355" y="600"/>
      <point x="320" y="603"/>
      <point x="286" y="603" type="curve" smooth="yes"/>
      <point x="175" y="603"/>
      <point x="112" y="545"/>
      <point x="112" y="466" type="curve" smooth="yes"/>
      <point x="112" y="399"/>
      <point x="144" y="354"/>
      <point x="241" y="296" type="curve" smooth="yes"/>
      <point x="336" y="239"/>
      <point x="365" y="208"/>
      <point x="365" y="150" type="curve" smooth="yes"/>
      <point x="365" y="94"/>
      <point x="325" y="63"/>
      <point x="261" y="63" type="curve" smooth="yes"/>
      <point x="195" y="63"/>
      <point x="142" y="93"/>
      <point x="79" y="188" type="curve"/>
      <point x="9" y="145" type="line"/>
      <point x="68" y="56"/>
      <point x="144" y="-10"/>
    </contour>
  </outline>
</glyph>
<glyph name="cagujr" format="2">
  <advance width="660"/>
  <unicode hex="0A9A"/>
  <outline>
    <contour>
      <point x="326" y="131" type="curve" smooth="yes"/>
      <point x="407" y="131"/>
      <point x="455" y="157"/>
      <point x="495" y="191" type="curve"/>
      <point x="495" y="288" type="line"/>
      <point x="455" y="245"/>
      <point x="411" y="203"/>
      <point x="323" y="203" type="curve" smooth="yes"/>
      <point x="263" y="203"/>
      <point x="233" y="224"/>
      <point x="201" y="257" type="curve"/>
      <point x="187" y="295" type="line"/>
      <point x="158" y="328"/>
      <point x="135" y="346"/>
      <point x="94" y="346" type="curve" smooth="yes"/>
      <point x="54" y="346"/>
      <point x="35" y="322"/>
      <point x="35" y="297" type="curve" smooth="yes"/>
      <point x="35" y="258"/>
      <point x="65" y="237"/>
      <point x="117" y="237" type="curve" smooth="yes"/>
      <point x="245" y="237"/>
      <point x="352" y="317"/>
      <point x="352" y="428" type="curve" smooth="yes"/>
      <point x="352" y="539"/>
      <point x="282" y="603"/>
      <point x="161" y="603" type="curve" smooth="yes"/>
      <point x="113" y="603"/>
      <point x="63" y="590"/>
      <point x="31" y="576" type="curve"/>
      <point x="58" y="508" type="line"/>
      <point x="89" y="522"/>
      <point x="129" y="530"/>
      <point x="158" y="530" type="curve" smooth="yes"/>
      <point x="236" y="530"/>
      <point x="272" y="494"/>
      <point x="272" y="430" type="curve" smooth="yes"/>
      <point x="272" y="363"/>
      <point x="213" y="314"/>
      <point x="138" y="303" type="curve"/>
      <point x="129" y="298" type="line"/>
      <point x="119" y="245" type="line"/>
      <point x="168" y="167"/>
      <point x="245" y="131"/>
    </contour>
    <contour>
      <point x="634" y="0" type="curve" smooth="yes"/>
      <point x="645" y="0" type="line"/>
      <point x="652" y="73" type="line"/>
      <point x="625" y="73"/>
      <point x="592" y="73"/>
      <point x="578" y="92" type="curve" smooth="yes"/>
      <point x="570" y="103"/>
      <point x="566" y="116"/>
      <point x="566" y="152" type="curve" smooth="yes"/>
      <point x="566" y="592" type="line"/>
      <point x="486" y="603" type="line"/>
      <point x="486" y="148" type="line" smooth="yes"/>
      <point x="486" y="89"/>
      <point x="495" y="60"/>
      <point x="517" y="37" type="curve" smooth="yes"/>
      <point x="540" y="13"/>
      <point x="577" y="0"/>
    </contour>
  </outline>
</glyph>
<glyph name="chagujr" format="2">
  <advance width="738"/>
  <unicode hex="0A9B"/>
  <guideline x="656" y="119" angle="0"/>
  <outline>
    <contour>
      <point x="318" y="-10" type="curve" smooth="yes"/>
      <point x="575" y="-10"/>
      <point x="701" y="187"/>
      <point x="701" y="375" type="curve" smooth="yes"/>
      <point x="701" y="547"/>
      <point x="611" y="603"/>
      <point x="528" y="603" type="curve" smooth="yes"/>
      <point x="425" y="603"/>
      <point x="376" y="536"/>
      <point x="376" y="461" type="curve" smooth="yes"/>
      <point x="376" y="344"/>
      <point x="473" y="297"/>
      <point x="571" y="267" type="curve"/>
      <point x="596" y="338" type="line"/>
      <point x="494" y="362"/>
      <point x="455" y="401"/>
      <point x="455" y="455" type="curve" smooth="yes"/>
      <point x="455" y="496"/>
      <point x="478" y="530"/>
      <point x="526" y="530" type="curve" smooth="yes"/>
      <point x="563" y="530"/>
      <point x="619" y="508"/>
      <point x="619" y="382" type="curve" smooth="yes"/>
      <point x="619" y="244"/>
      <point x="527" y="64"/>
      <point x="316" y="64" type="curve" smooth="yes"/>
      <point x="217" y="64"/>
      <point x="168" y="103"/>
      <point x="168" y="177" type="curve" smooth="yes"/>
      <point x="168" y="253"/>
      <point x="229" y="286"/>
      <point x="300" y="286" type="curve" smooth="yes"/>
      <point x="310" y="286"/>
      <point x="319" y="286"/>
      <point x="329" y="285" type="curve"/>
      <point x="338" y="357" type="line"/>
      <point x="325" y="358"/>
      <point x="311" y="359"/>
      <point x="299" y="359" type="curve" smooth="yes"/>
      <point x="164" y="359"/>
      <point x="88" y="278"/>
      <point x="88" y="176" type="curve" smooth="yes"/>
      <point x="88" y="67"/>
      <point x="162" y="-10"/>
    </contour>
    <contour>
      <point x="166" y="286" type="curve"/>
      <point x="220" y="338" type="line"/>
      <point x="150" y="371"/>
      <point x="125" y="407"/>
      <point x="125" y="456" type="curve" smooth="yes"/>
      <point x="125" y="499"/>
      <point x="157" y="529"/>
      <point x="219" y="529" type="curve" smooth="yes"/>
      <point x="248" y="529"/>
      <point x="270" y="525"/>
      <point x="290" y="520" type="curve"/>
      <point x="304" y="592" type="line"/>
      <point x="278" y="599"/>
      <point x="244" y="603"/>
      <point x="210" y="603" type="curve" smooth="yes"/>
      <point x="102" y="603"/>
      <point x="44" y="537"/>
      <point x="44" y="461" type="curve" smooth="yes"/>
      <point x="44" y="375"/>
      <point x="98" y="324"/>
    </contour>
  </outline>
</glyph>
<glyph name="jagujr" format="2">
  <advance width="822"/>
  <unicode hex="0A9C"/>
  <outline>
    <contour>
      <point x="549" y="-10" type="curve" smooth="yes"/>
      <point x="654" y="-10"/>
      <point x="721" y="55"/>
      <point x="721" y="169" type="curve" smooth="yes"/>
      <point x="721" y="267"/>
      <point x="676" y="357"/>
      <point x="605" y="436" type="curve"/>
      <point x="508" y="543"/>
      <point x="390" y="603"/>
      <point x="240" y="603" type="curve" smooth="yes"/>
      <point x="106" y="603"/>
      <point x="33" y="524"/>
      <point x="33" y="430" type="curve" smooth="yes"/>
      <point x="33" y="341"/>
      <point x="89" y="270"/>
      <point x="191" y="270" type="curve" smooth="yes"/>
      <point x="315" y="270"/>
      <point x="356" y="352"/>
      <point x="356" y="428" type="curve" smooth="yes"/>
      <point x="356" y="485"/>
      <point x="332" y="525"/>
      <point x="307" y="555" type="curve"/>
      <point x="236" y="544" type="line"/>
      <point x="261" y="514"/>
      <point x="276" y="476"/>
      <point x="276" y="434" type="curve" smooth="yes"/>
      <point x="276" y="377"/>
      <point x="252" y="343"/>
      <point x="191" y="343" type="curve" smooth="yes"/>
      <point x="145" y="343"/>
      <point x="113" y="372"/>
      <point x="113" y="429" type="curve" smooth="yes"/>
      <point x="113" y="483"/>
      <point x="147" y="533"/>
      <point x="234" y="533" type="curve" smooth="yes"/>
      <point x="369" y="533"/>
      <point x="472" y="479"/>
      <point x="552" y="385" type="curve"/>
      <point x="608" y="324"/>
      <point x="639" y="254"/>
      <point x="639" y="170" type="curve" smooth="yes"/>
      <point x="639" y="95"/>
      <point x="603" y="63"/>
      <point x="547" y="63" type="curve" smooth="yes"/>
      <point x="482" y="63"/>
      <point x="454" y="100"/>
      <point x="454" y="161" type="curve" smooth="yes"/>
      <point x="454" y="224"/>
      <point x="473" y="291"/>
      <point x="585" y="374" type="curve" smooth="yes"/>
      <point x="659" y="429"/>
      <point x="731" y="477"/>
      <point x="827" y="539" type="curve"/>
      <point x="782" y="604" type="line"/>
      <point x="685" y="539"/>
      <point x="621" y="492"/>
      <point x="549" y="437" type="curve"/>
      <point x="431" y="346"/>
      <point x="372" y="266"/>
      <point x="372" y="160" type="curve" smooth="yes"/>
      <point x="372" y="74"/>
      <point x="421" y="-10"/>
    </contour>
  </outline>
</glyph>
<glyph name="ttagujr" format="2">
  <advance width="451"/>
  <unicode hex="0A9F"/>
  <outline>
    <contour>
      <point x="249" y="-10" type="curve" smooth="yes"/>
      <point x="335" y="-10"/>
      <point x="391" y="9"/>
      <point x="454" y="44" type="curve"/>
      <point x="417" y="115" type="line"/>
      <point x="363" y="81"/>
      <point x="315" y="63"/>
      <point x="251" y="63" type="curve" smooth="yes"/>
      <point x="173" y="63"/>
      <point x="129" y="101"/>
      <point x="129" y="154" type="curve" smooth="yes"/>
      <point x="129" y="218"/>
      <point x="165" y="247"/>
      <point x="275" y="307" type="curve" smooth="yes"/>
      <point x="348" y="347"/>
      <point x="403" y="385"/>
      <point x="403" y="469" type="curve" smooth="yes"/>
      <point x="403" y="547"/>
      <point x="350" y="603"/>
      <point x="239" y="603" type="curve" smooth="yes"/>
      <point x="182" y="603"/>
      <point x="132" y="591"/>
      <point x="88" y="572" type="curve"/>
      <point x="113" y="504" type="line"/>
      <point x="153" y="523"/>
      <point x="190" y="530"/>
      <point x="237" y="530" type="curve" smooth="yes"/>
      <point x="288" y="530"/>
      <point x="323" y="512"/>
      <point x="323" y="467" type="curve" smooth="yes"/>
      <point x="323" y="423"/>
      <point x="290" y="402"/>
      <point x="208" y="359" type="curve" smooth="yes"/>
      <point x="107" y="306"/>
      <point x="46" y="253"/>
      <point x="46" y="162" type="curve" smooth="yes"/>
      <point x="46" y="58"/>
      <point x="121" y="-10"/>
    </contour>
  </outline>
</glyph>
<glyph name="tthagujr" format="2">
  <advance width="517"/>
  <unicode hex="0AA0"/>
  <outline>
    <contour>
      <point x="265" y="-10" type="curve" smooth="yes"/>
      <point x="406" y="-10"/>
      <point x="485" y="61"/>
      <point x="485" y="165" type="curve" smooth="yes"/>
      <point x="485" y="259"/>
      <point x="433" y="316"/>
      <point x="328" y="380" type="curve" smooth="yes"/>
      <point x="249" y="428"/>
      <point x="225" y="448"/>
      <point x="225" y="481" type="curve" smooth="yes"/>
      <point x="225" y="511"/>
      <point x="249" y="530"/>
      <point x="304" y="530" type="curve" smooth="yes"/>
      <point x="330" y="530"/>
      <point x="368" y="528"/>
      <point x="399" y="520" type="curve"/>
      <point x="414" y="591" type="line"/>
      <point x="378" y="600"/>
      <point x="336" y="603"/>
      <point x="302" y="603" type="curve" smooth="yes"/>
      <point x="198" y="603"/>
      <point x="145" y="549"/>
      <point x="145" y="483" type="curve" smooth="yes"/>
      <point x="145" y="420"/>
      <point x="195" y="377"/>
      <point x="244" y="348" type="curve"/>
      <point x="260" y="334" type="line"/>
      <point x="364" y="274"/>
      <point x="403" y="238"/>
      <point x="403" y="167" type="curve" smooth="yes"/>
      <point x="403" y="92"/>
      <point x="342" y="63"/>
      <point x="263" y="63" type="curve" smooth="yes"/>
      <point x="175" y="63"/>
      <point x="126" y="103"/>
      <point x="126" y="173" type="curve" smooth="yes"/>
      <point x="126" y="259"/>
      <point x="202" y="306"/>
      <point x="299" y="306" type="curve" smooth="yes"/>
      <point x="309" y="306"/>
      <point x="346" y="305"/>
      <point x="370" y="303" type="curve"/>
      <point x="356" y="348" type="line"/>
      <point x="276" y="367" type="line"/>
      <point x="126" y="354"/>
      <point x="44" y="276"/>
      <point x="44" y="175" type="curve" smooth="yes"/>
      <point x="44" y="68"/>
      <point x="117" y="-10"/>
    </contour>
  </outline>
</glyph>
<glyph name="ddagujr" format="2">
  <advance width="481"/>
  <unicode hex="0AA1"/>
  <outline>
    <contour>
      <point x="264" y="-10" type="curve" smooth="yes"/>
      <point x="385" y="-10"/>
      <point x="450" y="56"/>
      <point x="450" y="153" type="curve" smooth="yes"/>
      <point x="450" y="239"/>
      <point x="403" y="291"/>
      <point x="300" y="354" type="curve" smooth="yes"/>
      <point x="220" y="403"/>
      <point x="193" y="422"/>
      <point x="193" y="464" type="curve" smooth="yes"/>
      <point x="193" y="505"/>
      <point x="225" y="530"/>
      <point x="285" y="530" type="curve" smooth="yes"/>
      <point x="316" y="530"/>
      <point x="341" y="529"/>
      <point x="376" y="521" type="curve"/>
      <point x="391" y="591" type="line"/>
      <point x="355" y="600"/>
      <point x="320" y="603"/>
      <point x="286" y="603" type="curve" smooth="yes"/>
      <point x="175" y="603"/>
      <point x="112" y="545"/>
      <point x="112" y="466" type="curve" smooth="yes"/>
      <point x="112" y="399"/>
      <point x="144" y="354"/>
      <point x="241" y="296" type="curve" smooth="yes"/>
      <point x="336" y="239"/>
      <point x="365" y="208"/>
      <point x="365" y="150" type="curve" smooth="yes"/>
      <point x="365" y="94"/>
      <point x="325" y="63"/>
      <point x="261" y="63" type="curve" smooth="yes"/>
      <point x="195" y="63"/>
      <point x="142" y="93"/>
      <point x="79" y="188" type="curve"/>
      <point x="9" y="145" type="line"/>
      <point x="68" y="56"/>
      <point x="144" y="-10"/>
    </contour>
  </outline>
</glyph>
<glyph name="ddhagujr" format="2">
  <advance width="516"/>
  <unicode hex="0AA2"/>
  <outline>
    <contour>
      <point x="278" y="-10" type="curve" smooth="yes"/>
      <point x="433" y="-10"/>
      <point x="496" y="58"/>
      <point x="496" y="140" type="curve" smooth="yes"/>
      <point x="496" y="220"/>
      <point x="444" y="269"/>
      <point x="360" y="269" type="curve" smooth="yes"/>
      <point x="279" y="269"/>
      <point x="220" y="220"/>
      <point x="220" y="144" type="curve" smooth="yes"/>
      <point x="220" y="92"/>
      <point x="236" y="57"/>
      <point x="264" y="9" type="curve"/>
      <point x="334" y="22" type="line"/>
      <point x="307" y="62"/>
      <point x="294" y="88"/>
      <point x="294" y="127" type="curve" smooth="yes"/>
      <point x="294" y="172"/>
      <point x="321" y="199"/>
      <point x="364" y="199" type="curve" smooth="yes"/>
      <point x="399" y="199"/>
      <point x="420" y="177"/>
      <point x="420" y="141" type="curve" smooth="yes"/>
      <point x="420" y="86"/>
      <point x="366" y="60"/>
      <point x="291" y="60" type="curve" smooth="yes"/>
      <point x="276" y="60" type="line" smooth="yes"/>
      <point x="168" y="60"/>
      <point x="125" y="106"/>
      <point x="125" y="171" type="curve" smooth="yes"/>
      <point x="125" y="228"/>
      <point x="161" y="260"/>
      <point x="239" y="299" type="curve" smooth="yes"/>
      <point x="261" y="310" type="line" smooth="yes"/>
      <point x="351" y="355"/>
      <point x="409" y="392"/>
      <point x="409" y="474" type="curve" smooth="yes"/>
      <point x="409" y="548"/>
      <point x="353" y="603"/>
      <point x="247" y="603" type="curve" smooth="yes"/>
      <point x="187" y="603"/>
      <point x="147" y="591"/>
      <point x="102" y="572" type="curve"/>
      <point x="127" y="505" type="line"/>
      <point x="165" y="522"/>
      <point x="198" y="530"/>
      <point x="245" y="530" type="curve" smooth="yes"/>
      <point x="294" y="530"/>
      <point x="329" y="512"/>
      <point x="329" y="472" type="curve" smooth="yes"/>
      <point x="329" y="438"/>
      <point x="309" y="419"/>
      <point x="233" y="381" type="curve" smooth="yes"/>
      <point x="205" y="367" type="line" smooth="yes"/>
      <point x="103" y="316"/>
      <point x="44" y="268"/>
      <point x="44" y="172" type="curve" smooth="yes"/>
      <point x="44" y="69"/>
      <point x="116" y="-10"/>
    </contour>
  </outline>
</glyph>
<glyph name="tagujr" format="2">
  <advance width="572"/>
  <unicode hex="0AA4"/>
  <outline>
    <contour>
      <point x="209" y="12" type="curve"/>
      <point x="262" y="68" type="line"/>
      <point x="177" y="137"/>
      <point x="125" y="192"/>
      <point x="125" y="261" type="curve" smooth="yes"/>
      <point x="125" y="291"/>
      <point x="136" y="315"/>
      <point x="156" y="331" type="curve" smooth="yes"/>
      <point x="182" y="351"/>
      <point x="209" y="360"/>
      <point x="300" y="360" type="curve" smooth="yes"/>
      <point x="418" y="360" type="line"/>
      <point x="418" y="433" type="line"/>
      <point x="306" y="433" type="line" smooth="yes"/>
      <point x="188" y="433"/>
      <point x="133" y="416"/>
      <point x="93" y="381" type="curve" smooth="yes"/>
      <point x="61" y="353"/>
      <point x="43" y="313"/>
      <point x="43" y="261" type="curve" smooth="yes"/>
      <point x="43" y="165"/>
      <point x="119" y="84"/>
    </contour>
    <contour>
      <point x="546" y="0" type="curve" smooth="yes"/>
      <point x="557" y="0" type="line"/>
      <point x="564" y="73" type="line"/>
      <point x="537" y="73"/>
      <point x="504" y="73"/>
      <point x="490" y="92" type="curve" smooth="yes"/>
      <point x="482" y="103"/>
      <point x="478" y="116"/>
      <point x="478" y="152" type="curve" smooth="yes"/>
      <point x="478" y="592" type="line"/>
      <point x="398" y="603" type="line"/>
      <point x="398" y="148" type="line" smooth="yes"/>
      <point x="398" y="89"/>
      <point x="407" y="60"/>
      <point x="429" y="37" type="curve" smooth="yes"/>
      <point x="452" y="13"/>
      <point x="489" y="0"/>
    </contour>
  </outline>
</glyph>
<glyph name="thagujr" format="2">
  <advance width="625"/>
  <unicode hex="0AA5"/>
  <outline>
    <contour>
      <point x="275" y="146" type="curve" smooth="yes"/>
      <point x="363" y="146"/>
      <point x="415" y="174"/>
      <point x="455" y="205" type="curve"/>
      <point x="455" y="297" type="line"/>
      <point x="413" y="254"/>
      <point x="359" y="218"/>
      <point x="276" y="218" type="curve" smooth="yes"/>
      <point x="205" y="218"/>
      <point x="166" y="249"/>
      <point x="143" y="295" type="curve"/>
      <point x="124" y="270" type="line"/>
      <point x="247" y="317"/>
      <point x="318" y="379"/>
      <point x="318" y="474" type="curve" smooth="yes"/>
      <point x="318" y="538"/>
      <point x="279" y="603"/>
      <point x="178" y="603" type="curve" smooth="yes"/>
      <point x="88" y="603"/>
      <point x="40" y="551"/>
      <point x="40" y="491" type="curve" smooth="yes"/>
      <point x="40" y="443"/>
      <point x="63" y="405"/>
      <point x="116" y="376" type="curve"/>
      <point x="162" y="430" type="line"/>
      <point x="127" y="448"/>
      <point x="117" y="466"/>
      <point x="117" y="489" type="curve" smooth="yes"/>
      <point x="117" y="517"/>
      <point x="140" y="535"/>
      <point x="179" y="535" type="curve" smooth="yes"/>
      <point x="213" y="535"/>
      <point x="240" y="516"/>
      <point x="240" y="477" type="curve" smooth="yes"/>
      <point x="240" y="404"/>
      <point x="174" y="358"/>
      <point x="48" y="321" type="curve"/>
      <point x="86" y="210"/>
      <point x="156" y="146"/>
    </contour>
    <contour>
      <point x="599" y="0" type="curve" smooth="yes"/>
      <point x="609" y="0" type="line"/>
      <point x="617" y="73" type="line"/>
      <point x="589" y="73"/>
      <point x="556" y="73"/>
      <point x="542" y="92" type="curve" smooth="yes"/>
      <point x="534" y="103"/>
      <point x="530" y="116"/>
      <point x="530" y="152" type="curve" smooth="yes"/>
      <point x="530" y="592" type="line"/>
      <point x="450" y="603" type="line"/>
      <point x="450" y="148" type="line" smooth="yes"/>
      <point x="450" y="89"/>
      <point x="459" y="60"/>
      <point x="481" y="37" type="curve" smooth="yes"/>
      <point x="504" y="13"/>
      <point x="541" y="0"/>
    </contour>
  </outline>
</glyph>
<glyph name="dagujr" format="2">
  <advance width="467"/>
  <unicode hex="0AA6"/>
  <outline>
    <contour>
      <point x="298" y="-10" type="curve" smooth="yes"/>
      <point x="390" y="-10"/>
      <point x="473" y="21"/>
      <point x="473" y="90" type="curve" smooth="yes"/>
      <point x="473" y="120"/>
      <point x="453" y="148"/>
      <point x="415" y="148" type="curve" smooth="yes"/>
      <point x="380" y="148"/>
      <point x="357" y="128"/>
      <point x="357" y="94" type="curve" smooth="yes"/>
      <point x="357" y="76"/>
      <point x="361" y="66"/>
      <point x="377" y="47" type="curve"/>
      <point x="378" y="80" type="line"/>
      <point x="359" y="67"/>
      <point x="335" y="63"/>
      <point x="299" y="63" type="curve" smooth="yes"/>
      <point x="214" y="63"/>
      <point x="168" y="101"/>
      <point x="168" y="176" type="curve" smooth="yes"/>
      <point x="168" y="253"/>
      <point x="235" y="286"/>
      <point x="310" y="286" type="curve" smooth="yes"/>
      <point x="331" y="286"/>
      <point x="353" y="284"/>
      <point x="369" y="281" type="curve"/>
      <point x="383" y="353" type="line"/>
      <point x="363" y="356"/>
      <point x="338" y="359"/>
      <point x="308" y="359" type="curve" smooth="yes"/>
      <point x="184" y="359"/>
      <point x="87" y="287"/>
      <point x="87" y="176" type="curve" smooth="yes"/>
      <point x="87" y="67"/>
      <point x="166" y="-10"/>
    </contour>
    <contour>
      <point x="156" y="292" type="curve"/>
      <point x="232" y="333" type="line"/>
      <point x="153" y="366"/>
      <point x="125" y="404"/>
      <point x="125" y="451" type="curve" smooth="yes"/>
      <point x="125" y="494"/>
      <point x="159" y="529"/>
      <point x="244" y="529" type="curve" smooth="yes"/>
      <point x="275" y="529"/>
      <point x="308" y="523"/>
      <point x="329" y="518" type="curve"/>
      <point x="343" y="589" type="line"/>
      <point x="319" y="596"/>
      <point x="270" y="603"/>
      <point x="233" y="603" type="curve" smooth="yes"/>
      <point x="100" y="603"/>
      <point x="44" y="532"/>
      <point x="44" y="457" type="curve" smooth="yes"/>
      <point x="44" y="379"/>
      <point x="93" y="330"/>
    </contour>
  </outline>
</glyph>
<glyph name="nagujr" format="2">
  <advance width="546"/>
  <unicode hex="0AA8"/>
  <outline>
    <contour>
      <point x="520" y="0" type="curve" smooth="yes"/>
      <point x="530" y="0" type="line"/>
      <point x="538" y="73" type="line"/>
      <point x="510" y="73"/>
      <point x="478" y="73"/>
      <point x="464" y="92" type="curve" smooth="yes"/>
      <point x="456" y="103"/>
      <point x="452" y="116"/>
      <point x="452" y="152" type="curve" smooth="yes"/>
      <point x="452" y="592" type="line"/>
      <point x="372" y="603" type="line"/>
      <point x="372" y="148" type="line" smooth="yes"/>
      <point x="372" y="92"/>
      <point x="378" y="63"/>
      <point x="403" y="37" type="curve" smooth="yes"/>
      <point x="431" y="8"/>
      <point x="473" y="0"/>
    </contour>
    <contour>
      <point x="140" y="214" type="curve" smooth="yes"/>
      <point x="171" y="214"/>
      <point x="191" y="232"/>
      <point x="191" y="271" type="curve" smooth="yes"/>
      <point x="191" y="328" type="line"/>
      <point x="408" y="328" type="line"/>
      <point x="408" y="400" type="line"/>
      <point x="84" y="400" type="line" smooth="yes"/>
      <point x="40" y="400"/>
      <point x="24" y="379"/>
      <point x="24" y="348" type="curve" smooth="yes"/>
      <point x="24" y="290"/>
      <point x="91" y="214"/>
    </contour>
  </outline>
</glyph>
<glyph name="pagujr" format="2">
  <advance width="568"/>
  <unicode hex="0AAA"/>
  <outline>
    <contour>
      <point x="264" y="161" type="curve" smooth="yes"/>
      <point x="323" y="161"/>
      <point x="368" y="180"/>
      <point x="405" y="208" type="curve"/>
      <point x="405" y="298" type="line"/>
      <point x="374" y="263"/>
      <point x="325" y="233"/>
      <point x="272" y="233" type="curve" smooth="yes"/>
      <point x="240" y="233"/>
      <point x="217" y="239"/>
      <point x="202" y="253" type="curve" smooth="yes"/>
      <point x="184" y="270"/>
      <point x="173" y="295"/>
      <point x="173" y="357" type="curve" smooth="yes"/>
      <point x="173" y="443" type="line" smooth="yes"/>
      <point x="173" y="503"/>
      <point x="164" y="532"/>
      <point x="142" y="555" type="curve" smooth="yes"/>
      <point x="119" y="579"/>
      <point x="82" y="592"/>
      <point x="24" y="592" type="curve" smooth="yes"/>
      <point x="14" y="592" type="line"/>
      <point x="6" y="519" type="line"/>
      <point x="34" y="519"/>
      <point x="67" y="519"/>
      <point x="81" y="500" type="curve" smooth="yes"/>
      <point x="89" y="489"/>
      <point x="93" y="476"/>
      <point x="93" y="440" type="curve" smooth="yes"/>
      <point x="93" y="350" type="line" smooth="yes"/>
      <point x="93" y="276"/>
      <point x="109" y="237"/>
      <point x="143" y="204" type="curve" smooth="yes"/>
      <point x="170" y="178"/>
      <point x="212" y="161"/>
    </contour>
    <contour>
      <point x="542" y="0" type="curve" smooth="yes"/>
      <point x="552" y="0" type="line"/>
      <point x="560" y="73" type="line"/>
      <point x="532" y="73"/>
      <point x="499" y="73"/>
      <point x="485" y="92" type="curve" smooth="yes"/>
      <point x="477" y="103"/>
      <point x="473" y="116"/>
      <point x="473" y="152" type="curve" smooth="yes"/>
      <point x="473" y="592" type="line"/>
      <point x="393" y="603" type="line"/>
      <point x="393" y="148" type="line" smooth="yes"/>
      <point x="393" y="89"/>
      <point x="402" y="60"/>
      <point x="424" y="37" type="curve" smooth="yes"/>
      <point x="447" y="13"/>
      <point x="484" y="0"/>
    </contour>
  </outline>
</glyph>
<glyph name="bagujr" format="2">
  <advance width="734"/>
  <unicode hex="0AAC"/>
  <outline>
    <contour>
      <point x="233" y="151" type="curve" smooth="yes"/>
      <point x="359" y="151"/>
      <point x="417" y="230"/>
      <point x="417" y="335" type="curve" smooth="yes"/>
      <point x="417" y="437" type="line"/>
      <point x="337" y="447" type="line"/>
      <point x="337" y="369" type="line" smooth="yes"/>
      <point x="337" y="308"/>
      <point x="331" y="281"/>
      <point x="314" y="258" type="curve" smooth="yes"/>
      <point x="297" y="235"/>
      <point x="271" y="223"/>
      <point x="234" y="223" type="curve" smooth="yes"/>
      <point x="181" y="223"/>
      <point x="126" y="256"/>
      <point x="126" y="353" type="curve" smooth="yes"/>
      <point x="126" y="430"/>
      <point x="165" y="494"/>
      <point x="282" y="531" type="curve"/>
      <point x="259" y="603" type="line"/>
      <point x="122" y="562"/>
      <point x="44" y="478"/>
      <point x="44" y="354" type="curve" smooth="yes"/>
      <point x="44" y="229"/>
      <point x="123" y="151"/>
    </contour>
    <contour>
      <point x="475" y="228" type="curve" smooth="yes"/>
      <point x="535" y="228"/>
      <point x="567" y="251"/>
      <point x="602" y="291" type="curve"/>
      <point x="585" y="371" type="line"/>
      <point x="555" y="326"/>
      <point x="523" y="300"/>
      <point x="475" y="300" type="curve" smooth="yes"/>
      <point x="442" y="300"/>
      <point x="417" y="314"/>
      <point x="404" y="357" type="curve"/>
      <point x="349" y="333" type="line"/>
      <point x="377" y="251"/>
      <point x="422" y="228"/>
    </contour>
    <contour>
      <point x="708" y="0" type="curve" smooth="yes"/>
      <point x="718" y="0" type="line"/>
      <point x="726" y="73" type="line"/>
      <point x="698" y="73"/>
      <point x="666" y="73"/>
      <point x="652" y="92" type="curve" smooth="yes"/>
      <point x="644" y="103"/>
      <point x="640" y="116"/>
      <point x="640" y="152" type="curve" smooth="yes"/>
      <point x="640" y="592" type="line"/>
      <point x="560" y="603" type="line"/>
      <point x="560" y="148" type="line" smooth="yes"/>
      <point x="560" y="92"/>
      <point x="566" y="63"/>
      <point x="591" y="37" type="curve" smooth="yes"/>
      <point x="619" y="8"/>
      <point x="661" y="0"/>
    </contour>
  </outline>
</glyph>
<glyph name="magujr" format="2">
  <advance width="594"/>
  <unicode hex="0AAE"/>
  <outline>
    <contour>
      <point x="568" y="0" type="curve" smooth="yes"/>
      <point x="579" y="0" type="line"/>
      <point x="586" y="73" type="line"/>
      <point x="559" y="73"/>
      <point x="526" y="73"/>
      <point x="512" y="92" type="curve" smooth="yes"/>
      <point x="504" y="103"/>
      <point x="500" y="116"/>
      <point x="500" y="152" type="curve" smooth="yes"/>
      <point x="500" y="592" type="line"/>
      <point x="420" y="603" type="line"/>
      <point x="420" y="148" type="line" smooth="yes"/>
      <point x="420" y="89"/>
      <point x="429" y="60"/>
      <point x="451" y="37" type="curve" smooth="yes"/>
      <point x="474" y="13"/>
      <point x="511" y="0"/>
    </contour>
    <contour>
      <point x="166" y="152" type="curve" smooth="yes"/>
      <point x="188" y="152"/>
      <point x="211" y="170"/>
      <point x="211" y="215" type="curve" smooth="yes"/>
      <point x="211" y="244" type="line"/>
      <point x="432" y="244" type="line"/>
      <point x="432" y="316" type="line"/>
      <point x="107" y="316" type="line" smooth="yes"/>
      <point x="67" y="316"/>
      <point x="51" y="297"/>
      <point x="51" y="274" type="curve" smooth="yes"/>
      <point x="51" y="223"/>
      <point x="113" y="152"/>
    </contour>
    <contour>
      <point x="131" y="300" type="line"/>
      <point x="211" y="300" type="line"/>
      <point x="211" y="444" type="line" smooth="yes"/>
      <point x="211" y="503"/>
      <point x="202" y="533"/>
      <point x="180" y="556" type="curve" smooth="yes"/>
      <point x="157" y="580"/>
      <point x="120" y="592"/>
      <point x="63" y="592" type="curve" smooth="yes"/>
      <point x="52" y="592" type="line"/>
      <point x="44" y="520" type="line"/>
      <point x="72" y="520"/>
      <point x="105" y="519"/>
      <point x="119" y="500" type="curve" smooth="yes"/>
      <point x="127" y="489"/>
      <point x="131" y="477"/>
      <point x="131" y="440" type="curve" smooth="yes"/>
    </contour>
  </outline>
</glyph>
<glyph name="yagujr" format="2">
  <advance width="594"/>
  <unicode hex="0AAF"/>
  <outline>
    <contour>
      <point x="271" y="161" type="curve" smooth="yes"/>
      <point x="340" y="161"/>
      <point x="384" y="181"/>
      <point x="421" y="209" type="curve"/>
      <point x="421" y="300" type="line"/>
      <point x="387" y="264"/>
      <point x="338" y="233"/>
      <point x="269" y="233" type="curve" smooth="yes"/>
      <point x="205" y="233"/>
      <point x="159" y="269"/>
      <point x="142" y="309" type="curve"/>
      <point x="125" y="290" type="line"/>
      <point x="203" y="321"/>
      <point x="255" y="373"/>
      <point x="255" y="453" type="curve" smooth="yes"/>
      <point x="255" y="548"/>
      <point x="190" y="603"/>
      <point x="88" y="603" type="curve" smooth="yes"/>
      <point x="51" y="603"/>
      <point x="29" y="598"/>
      <point x="14" y="594" type="curve"/>
      <point x="32" y="526" type="line"/>
      <point x="48" y="529"/>
      <point x="59" y="531"/>
      <point x="83" y="531" type="curve" smooth="yes"/>
      <point x="139" y="531"/>
      <point x="174" y="501"/>
      <point x="174" y="452" type="curve" smooth="yes"/>
      <point x="174" y="391"/>
      <point x="123" y="356"/>
      <point x="43" y="333" type="curve"/>
      <point x="83" y="227"/>
      <point x="157" y="161"/>
    </contour>
    <contour>
      <point x="568" y="0" type="curve" smooth="yes"/>
      <point x="578" y="0" type="line"/>
      <point x="586" y="73" type="line"/>
      <point x="556" y="73"/>
      <point x="529" y="73"/>
      <point x="514" y="90" type="curve" smooth="yes"/>
      <point x="502" y="103"/>
      <point x="499" y="114"/>
      <point x="499" y="152" type="curve" smooth="yes"/>
      <point x="499" y="593" type="line"/>
      <point x="419" y="603" type="line"/>
      <point x="419" y="148" type="line" smooth="yes"/>
      <point x="419" y="89"/>
      <point x="428" y="60"/>
      <point x="451" y="37" type="curve" smooth="yes"/>
      <point x="475" y="13"/>
      <point x="510" y="0"/>
    </contour>
  </outline>
</glyph>
<glyph name="ragujr" format="2">
  <advance width="445"/>
  <unicode hex="0AB0"/>
  <guideline x="29" y="293" angle="90"/>
  <guideline x="396" y="372" angle="90"/>
  <outline>
    <contour>
      <point x="412" y="0" type="curve" smooth="yes"/>
      <point x="427" y="0" type="line"/>
      <point x="436" y="75" type="line"/>
      <point x="422" y="75" type="line" smooth="yes"/>
      <point x="333" y="75"/>
      <point x="280" y="109"/>
      <point x="186" y="246" type="curve"/>
      <point x="199" y="246" type="line"/>
      <point x="155" y="290"/>
      <point x="124" y="301"/>
      <point x="90" y="301" type="curve" smooth="yes"/>
      <point x="54" y="301"/>
      <point x="29" y="282"/>
      <point x="29" y="249" type="curve" smooth="yes"/>
      <point x="29" y="205"/>
      <point x="60" y="188"/>
      <point x="121" y="188" type="curve" smooth="yes"/>
      <point x="255" y="188"/>
      <point x="396" y="274"/>
      <point x="396" y="418" type="curve" smooth="yes"/>
      <point x="396" y="540"/>
      <point x="313" y="603"/>
      <point x="191" y="603" type="curve" smooth="yes"/>
      <point x="135" y="603"/>
      <point x="78" y="589"/>
      <point x="29" y="568" type="curve"/>
      <point x="55" y="499" type="line"/>
      <point x="102" y="521"/>
      <point x="141" y="530"/>
      <point x="189" y="530" type="curve" smooth="yes"/>
      <point x="264" y="530"/>
      <point x="313" y="491"/>
      <point x="313" y="417" type="curve" smooth="yes"/>
      <point x="313" y="319"/>
      <point x="214" y="270"/>
      <point x="124" y="265" type="curve"/>
      <point x="116" y="225" type="line"/>
      <point x="179" y="122"/>
      <point x="264" y="0"/>
    </contour>
  </outline>
</glyph>
<glyph name="lagujr" format="2">
  <advance width="651"/>
  <unicode hex="0AB2"/>
  <outline>
    <contour>
      <point x="279" y="105" type="curve" smooth="yes"/>
      <point x="330" y="105"/>
      <point x="375" y="115"/>
      <point x="411" y="132" type="curve"/>
      <point x="380" y="199" type="line"/>
      <point x="350" y="186"/>
      <point x="319" y="179"/>
      <point x="276" y="179" type="curve" smooth="yes"/>
      <point x="191" y="179"/>
      <point x="126" y="229"/>
      <point x="126" y="333" type="curve" smooth="yes"/>
      <point x="126" y="444"/>
      <point x="195" y="502"/>
      <point x="319" y="528" type="curve"/>
      <point x="299" y="603" type="line"/>
      <point x="136" y="567"/>
      <point x="44" y="471"/>
      <point x="44" y="337" type="curve" smooth="yes"/>
      <point x="44" y="193"/>
      <point x="136" y="105"/>
    </contour>
    <contour>
      <point x="244" y="304" type="line"/>
      <point x="493" y="355" type="line"/>
      <point x="493" y="431" type="line"/>
      <point x="226" y="377" type="line"/>
    </contour>
    <contour>
      <point x="625" y="0" type="curve" smooth="yes"/>
      <point x="635" y="0" type="line"/>
      <point x="643" y="73" type="line"/>
      <point x="615" y="73"/>
      <point x="583" y="73"/>
      <point x="569" y="92" type="curve" smooth="yes"/>
      <point x="561" y="103"/>
      <point x="557" y="116"/>
      <point x="557" y="152" type="curve" smooth="yes"/>
      <point x="557" y="592" type="line"/>
      <point x="477" y="603" type="line"/>
      <point x="477" y="148" type="line" smooth="yes"/>
      <point x="477" y="92"/>
      <point x="483" y="63"/>
      <point x="508" y="37" type="curve" smooth="yes"/>
      <point x="536" y="8"/>
      <point x="578" y="0"/>
    </contour>
  </outline>
</glyph>
<glyph name="vagujr" format="2">
  <advance width="577"/>
  <unicode hex="0AB5"/>
  <outline>
    <contour>
      <point x="244" y="161" type="curve" smooth="yes"/>
      <point x="323" y="161"/>
      <point x="367" y="183"/>
      <point x="408" y="210" type="curve"/>
      <point x="408" y="304" type="line"/>
      <point x="361" y="260"/>
      <point x="318" y="233"/>
      <point x="243" y="233" type="curve" smooth="yes"/>
      <point x="176" y="233"/>
      <point x="125" y="269"/>
      <point x="125" y="346" type="curve" smooth="yes"/>
      <point x="125" y="423"/>
      <point x="177" y="466"/>
      <point x="266" y="466" type="curve" smooth="yes"/>
      <point x="299" y="466"/>
      <point x="323" y="462"/>
      <point x="346" y="458" type="curve"/>
      <point x="359" y="528" type="line"/>
      <point x="335" y="535"/>
      <point x="292" y="539"/>
      <point x="263" y="539" type="curve" smooth="yes"/>
      <point x="137" y="539"/>
      <point x="44" y="470"/>
      <point x="44" y="345" type="curve" smooth="yes"/>
      <point x="44" y="231"/>
      <point x="126" y="161"/>
    </contour>
    <contour>
      <point x="551" y="0" type="curve" smooth="yes"/>
      <point x="562" y="0" type="line"/>
      <point x="569" y="73" type="line"/>
      <point x="542" y="73"/>
      <point x="509" y="73"/>
      <point x="495" y="92" type="curve" smooth="yes"/>
      <point x="487" y="103"/>
      <point x="483" y="116"/>
      <point x="483" y="152" type="curve" smooth="yes"/>
      <point x="483" y="592" type="line"/>
      <point x="403" y="603" type="line"/>
      <point x="403" y="148" type="line" smooth="yes"/>
      <point x="403" y="89"/>
      <point x="412" y="60"/>
      <point x="434" y="37" type="curve" smooth="yes"/>
      <point x="457" y="13"/>
      <point x="494" y="0"/>
    </contour>
  </outline>
</glyph>
<glyph name="shagujr" format="2">
  <advance width="677"/>
  <unicode hex="0AB6"/>
  <outline>
    <contour>
      <point x="387" y="0" type="curve" smooth="yes"/>
      <point x="402" y="0" type="line"/>
      <point x="411" y="75" type="line"/>
      <point x="398" y="75" type="line" smooth="yes"/>
      <point x="311" y="75"/>
      <point x="258" y="139"/>
      <point x="188" y="240" type="curve"/>
      <point x="201" y="241" type="line"/>
      <point x="156" y="285"/>
      <point x="125" y="294"/>
      <point x="91" y="294" type="curve" smooth="yes"/>
      <point x="56" y="294"/>
      <point x="31" y="275"/>
      <point x="31" y="244" type="curve" smooth="yes"/>
      <point x="31" y="201"/>
      <point x="63" y="183"/>
      <point x="126" y="183" type="curve" smooth="yes"/>
      <point x="266" y="183"/>
      <point x="396" y="274"/>
      <point x="396" y="413" type="curve" smooth="yes"/>
      <point x="396" y="541"/>
      <point x="306" y="602"/>
      <point x="214" y="602" type="curve" smooth="yes"/>
      <point x="113" y="602"/>
      <point x="66" y="543"/>
      <point x="66" y="484" type="curve" smooth="yes"/>
      <point x="66" y="405"/>
      <point x="121" y="359"/>
      <point x="232" y="332" type="curve"/>
      <point x="258" y="399" type="line"/>
      <point x="163" y="418"/>
      <point x="144" y="448"/>
      <point x="144" y="482" type="curve" smooth="yes"/>
      <point x="144" y="505"/>
      <point x="162" y="531"/>
      <point x="212" y="531" type="curve" smooth="yes"/>
      <point x="261" y="531"/>
      <point x="314" y="503"/>
      <point x="314" y="417" type="curve" smooth="yes"/>
      <point x="314" y="321"/>
      <point x="245" y="269"/>
      <point x="126" y="254" type="curve"/>
      <point x="118" y="219" type="line"/>
      <point x="181" y="116"/>
      <point x="266" y="0"/>
    </contour>
    <contour>
      <point x="651" y="0" type="curve" smooth="yes"/>
      <point x="661" y="0" type="line"/>
      <point x="669" y="73" type="line"/>
      <point x="641" y="73"/>
      <point x="608" y="73"/>
      <point x="595" y="92" type="curve" smooth="yes"/>
      <point x="587" y="104"/>
      <point x="583" y="116"/>
      <point x="583" y="152" type="curve" smooth="yes"/>
      <point x="583" y="592" type="line"/>
      <point x="502" y="603" type="line"/>
      <point x="502" y="148" type="line" smooth="yes"/>
      <point x="502" y="89"/>
      <point x="511" y="60"/>
      <point x="534" y="37" type="curve" smooth="yes"/>
      <point x="558" y="13"/>
      <point x="593" y="0"/>
    </contour>
  </outline>
</glyph>
<glyph name="sagujr" format="2">
  <advance width="711"/>
  <unicode hex="0AB8"/>
  <outline>
    <contour>
      <point x="413" y="0" type="curve" smooth="yes"/>
      <point x="427" y="0" type="line"/>
      <point x="436" y="75" type="line"/>
      <point x="422" y="75" type="line" smooth="yes"/>
      <point x="333" y="75"/>
      <point x="280" y="109"/>
      <point x="186" y="246" type="curve"/>
      <point x="199" y="246" type="line"/>
      <point x="154" y="290"/>
      <point x="124" y="301"/>
      <point x="90" y="301" type="curve" smooth="yes"/>
      <point x="54" y="301"/>
      <point x="29" y="282"/>
      <point x="29" y="249" type="curve" smooth="yes"/>
      <point x="29" y="206"/>
      <point x="60" y="188"/>
      <point x="121" y="188" type="curve" smooth="yes"/>
      <point x="247" y="188"/>
      <point x="381" y="274"/>
      <point x="381" y="418" type="curve" smooth="yes"/>
      <point x="381" y="540"/>
      <point x="303" y="603"/>
      <point x="186" y="603" type="curve" smooth="yes"/>
      <point x="132" y="603"/>
      <point x="78" y="589"/>
      <point x="29" y="568" type="curve"/>
      <point x="55" y="499" type="line"/>
      <point x="102" y="521"/>
      <point x="137" y="530"/>
      <point x="183" y="530" type="curve" smooth="yes"/>
      <point x="254" y="530"/>
      <point x="300" y="491"/>
      <point x="300" y="416" type="curve" smooth="yes"/>
      <point x="300" y="321"/>
      <point x="212" y="275"/>
      <point x="127" y="265" type="curve"/>
      <point x="116" y="225" type="line"/>
      <point x="179" y="122"/>
      <point x="264" y="0"/>
    </contour>
    <contour>
      <point x="435" y="286" type="curve" smooth="yes"/>
      <point x="501" y="286"/>
      <point x="538" y="302"/>
      <point x="577" y="329" type="curve"/>
      <point x="562" y="400" type="line"/>
      <point x="520" y="369"/>
      <point x="490" y="357"/>
      <point x="432" y="357" type="curve" smooth="yes"/>
      <point x="391" y="357"/>
      <point x="353" y="372"/>
      <point x="325" y="389" type="curve"/>
      <point x="316" y="318" type="line"/>
      <point x="347" y="297"/>
      <point x="391" y="286"/>
    </contour>
    <contour>
      <point x="685" y="0" type="curve" smooth="yes"/>
      <point x="695" y="0" type="line"/>
      <point x="703" y="73" type="line"/>
      <point x="675" y="73"/>
      <point x="643" y="73"/>
      <point x="629" y="92" type="curve" smooth="yes"/>
      <point x="621" y="103"/>
      <point x="617" y="116"/>
      <point x="617" y="152" type="curve" smooth="yes"/>
      <point x="617" y="592" type="line"/>
      <point x="537" y="603" type="line"/>
      <point x="537" y="148" type="line" smooth="yes"/>
      <point x="537" y="92"/>
      <point x="543" y="63"/>
      <point x="568" y="37" type="curve" smooth="yes"/>
      <point x="596" y="8"/>
      <point x="638" y="0"/>
    </contour>
  </outline>
</glyph>
<glyph name="hagujr" format="2">
  <advance width="633"/>
  <unicode hex="0AB9"/>
  <outline>
    <contour>
      <point x="396" y="-10" type="curve" smooth="yes"/>
      <point x="491" y="-10"/>
      <point x="548" y="2"/>
      <point x="628" y="35" type="curve"/>
      <point x="595" y="106" type="line"/>
      <point x="530" y="76"/>
      <point x="467" y="63"/>
      <point x="394" y="63" type="curve" smooth="yes"/>
      <point x="228" y="63"/>
      <point x="130" y="155"/>
      <point x="130" y="289" type="curve" smooth="yes"/>
      <point x="130" y="345"/>
      <point x="142" y="392"/>
      <point x="161" y="433" type="curve"/>
      <point x="85" y="468" type="line"/>
      <point x="60" y="421"/>
      <point x="46" y="364"/>
      <point x="46" y="289" type="curve" smooth="yes"/>
      <point x="46" y="129"/>
      <point x="158" y="-10"/>
    </contour>
    <contour>
      <point x="422" y="161" type="curve" smooth="yes"/>
      <point x="517" y="161"/>
      <point x="577" y="205"/>
      <point x="577" y="285" type="curve" smooth="yes"/>
      <point x="577" y="350"/>
      <point x="544" y="394"/>
      <point x="436" y="433" type="curve" smooth="yes"/>
      <point x="370" y="457"/>
      <point x="353" y="471"/>
      <point x="353" y="494" type="curve" smooth="yes"/>
      <point x="353" y="518"/>
      <point x="373" y="530"/>
      <point x="415" y="530" type="curve" smooth="yes"/>
      <point x="452" y="530"/>
      <point x="482" y="526"/>
      <point x="511" y="518" type="curve"/>
      <point x="526" y="590" type="line"/>
      <point x="499" y="596"/>
      <point x="460" y="602"/>
      <point x="427" y="602" type="curve" smooth="yes"/>
      <point x="325" y="602"/>
      <point x="273" y="560"/>
      <point x="273" y="493" type="curve" smooth="yes"/>
      <point x="273" y="434"/>
      <point x="315" y="397"/>
      <point x="400" y="366" type="curve" smooth="yes"/>
      <point x="477" y="338"/>
      <point x="497" y="320"/>
      <point x="497" y="284" type="curve" smooth="yes"/>
      <point x="497" y="246"/>
      <point x="465" y="233"/>
      <point x="423" y="233" type="curve" smooth="yes"/>
      <point x="358" y="233"/>
      <point x="303" y="267"/>
      <point x="257" y="332" type="curve"/>
      <point x="189" y="291" type="line"/>
      <point x="256" y="197"/>
      <point x="338" y="161"/>
    </contour>
  </outline>
</glyph>
<glyph name="nuktagujr" format="2">
  <unicode hex="0ABC"/>
  <outline>
    <contour>
      <point x="-257" y="-192" type="curve" smooth="yes"/>
      <point x="-227" y="-192"/>
      <point x="-202" y="-167"/>
      <point x="-202" y="-134" type="curve" smooth="yes"/>
      <point x="-202" y="-102"/>
      <point x="-227" y="-76"/>
      <point x="-257" y="-76" type="curve" smooth="yes"/>
      <point x="-288" y="-76"/>
      <point x="-313" y="-102"/>
      <point x="-313" y="-134" type="curve" smooth="yes"/>
      <point x="-313" y="-167"/>
      <point x="-288" y="-192"/>
    </contour>
  </outline>
</glyph>
<glyph name="avagrahagujr" format="2">
  <advance width="471"/>
  <unicode hex="0ABD"/>
  <outline>
    <contour>
      <point x="262" y="38" type="curve" smooth="yes"/>
      <point x="360" y="38"/>
      <point x="430" y="87"/>
      <point x="430" y="180" type="curve" smooth="yes"/>
      <point x="430" y="250"/>
      <point x="398" y="297"/>
      <point x="308" y="370" type="curve" smooth="yes"/>
      <point x="226" y="436"/>
      <point x="208" y="454"/>
      <point x="208" y="484" type="curve" smooth="yes"/>
      <point x="208" y="497"/>
      <point x="213" y="505"/>
      <point x="221" y="511" type="curve" smooth="yes"/>
      <point x="228" y="516"/>
      <point x="237" y="520"/>
      <point x="272" y="520" type="curve" smooth="yes"/>
      <point x="417" y="520" type="line"/>
      <point x="417" y="592" type="line"/>
      <point x="282" y="592" type="line" smooth="yes"/>
      <point x="215" y="592"/>
      <point x="186" y="582"/>
      <point x="165" y="565" type="curve" smooth="yes"/>
      <point x="140" y="545"/>
      <point x="127" y="521"/>
      <point x="127" y="490" type="curve" smooth="yes"/>
      <point x="127" y="441"/>
      <point x="146" y="399"/>
      <point x="237" y="326" type="curve" smooth="yes"/>
      <point x="324" y="257"/>
      <point x="347" y="226"/>
      <point x="347" y="180" type="curve" smooth="yes"/>
      <point x="347" y="132"/>
      <point x="311" y="111"/>
      <point x="262" y="111" type="curve" smooth="yes"/>
      <point x="199" y="111"/>
      <point x="148" y="139"/>
      <point x="83" y="235" type="curve"/>
      <point x="12" y="193" type="line"/>
      <point x="70" y="104"/>
      <point x="145" y="38"/>
    </contour>
  </outline>
</glyph>
<glyph name="aavowelsigngujr" format="2">
  <advance width="265"/>
  <unicode hex="0ABE"/>
  <guideline x="253" y="37" angle="263.746"/>
  <outline>
    <contour>
      <point x="239" y="0" type="curve" smooth="yes"/>
      <point x="249" y="0" type="line"/>
      <point x="257" y="73" type="line"/>
      <point x="227" y="73"/>
      <point x="200" y="73"/>
      <point x="185" y="90" type="curve" smooth="yes"/>
      <point x="173" y="103"/>
      <point x="170" y="114"/>
      <point x="170" y="152" type="curve" smooth="yes"/>
      <point x="170" y="593" type="line"/>
      <point x="90" y="603" type="line"/>
      <point x="90" y="148" type="line" smooth="yes"/>
      <point x="90" y="89"/>
      <point x="99" y="60"/>
      <point x="122" y="37" type="curve" smooth="yes"/>
      <point x="146" y="13"/>
      <point x="181" y="0"/>
    </contour>
  </outline>
</glyph>
<glyph name="iivowelsigngujr" format="2">
  <advance width="265"/>
  <unicode hex="0AC0"/>
  <outline>
    <contour>
      <point x="239" y="0" type="curve" smooth="yes"/>
      <point x="249" y="0" type="line"/>
      <point x="257" y="73" type="line"/>
      <point x="230" y="73"/>
      <point x="197" y="73"/>
      <point x="183" y="92" type="curve" smooth="yes"/>
      <point x="174" y="105"/>
      <point x="170" y="115"/>
      <point x="170" y="152" type="curve" smooth="yes"/>
      <point x="170" y="614" type="line"/>
      <point x="152" y="762"/>
      <point x="80" y="896"/>
      <point x="-41" y="896" type="curve" smooth="yes"/>
      <point x="-135" y="896"/>
      <point x="-191" y="837"/>
      <point x="-191" y="739" type="curve" smooth="yes"/>
      <point x="-191" y="717"/>
      <point x="-188" y="686"/>
      <point x="-184" y="668" type="curve"/>
      <point x="-107" y="668" type="line"/>
      <point x="-111" y="688"/>
      <point x="-112" y="710"/>
      <point x="-112" y="729" type="curve" smooth="yes"/>
      <point x="-112" y="796"/>
      <point x="-81" y="824"/>
      <point x="-41" y="824" type="curve" smooth="yes"/>
      <point x="21" y="824"/>
      <point x="70" y="744"/>
      <point x="90" y="611" type="curve"/>
      <point x="90" y="148" type="line" smooth="yes"/>
      <point x="90" y="99"/>
      <point x="95" y="64"/>
      <point x="122" y="37" type="curve" smooth="yes"/>
      <point x="150" y="8"/>
      <point x="192" y="0"/>
    </contour>
  </outline>
</glyph>
<glyph name="uvowelsigngujr" format="2">
  <unicode hex="0AC1"/>
  <outline>
    <contour>
      <point x="-162" y="-268" type="curve" smooth="yes"/>
      <point x="-44" y="-268"/>
      <point x="17" y="-213"/>
      <point x="17" y="-135" type="curve" smooth="yes"/>
      <point x="17" y="-54"/>
      <point x="-39" y="0"/>
      <point x="-142" y="0" type="curve" smooth="yes"/>
      <point x="-179" y="0"/>
      <point x="-218" y="-8"/>
      <point x="-253" y="-23" type="curve"/>
      <point x="-227" y="-90" type="line"/>
      <point x="-199" y="-76"/>
      <point x="-173" y="-68"/>
      <point x="-137" y="-68" type="curve" smooth="yes"/>
      <point x="-91" y="-68"/>
      <point x="-57" y="-87"/>
      <point x="-57" y="-127" type="curve" smooth="yes"/>
      <point x="-57" y="-172"/>
      <point x="-88" y="-196"/>
      <point x="-162" y="-196" type="curve" smooth="yes"/>
      <point x="-260" y="-196"/>
      <point x="-322" y="-154"/>
      <point x="-399" y="-57" type="curve"/>
      <point x="-461" y="-100" type="line"/>
      <point x="-382" y="-203"/>
      <point x="-292" y="-268"/>
    </contour>
  </outline>
</glyph>
<glyph name="rvocalicvowelsigngujr" format="2">
  <unicode hex="0AC3"/>
  <outline>
    <contour>
      <point x="25" y="-233" type="curve"/>
      <point x="-2" y="-163" type="line"/>
      <point x="-48" y="-186"/>
      <point x="-74" y="-195"/>
      <point x="-116" y="-195" type="curve" smooth="yes"/>
      <point x="-157" y="-195"/>
      <point x="-195" y="-176"/>
      <point x="-195" y="-132" type="curve" smooth="yes"/>
      <point x="-195" y="-88"/>
      <point x="-166" y="-60"/>
      <point x="-94" y="-49" type="curve"/>
      <point x="-94" y="18" type="line"/>
      <point x="-210" y="11"/>
      <point x="-270" y="-52"/>
      <point x="-270" y="-126" type="curve" smooth="yes"/>
      <point x="-270" y="-210"/>
      <point x="-210" y="-268"/>
      <point x="-110" y="-268" type="curve" smooth="yes"/>
      <point x="-56" y="-268"/>
      <point x="-10" y="-250"/>
    </contour>
  </outline>
</glyph>
<glyph name="rrvocalicvowelsigngujr" format="2">
  <unicode hex="0AC4"/>
  <outline>
    <contour>
      <point x="-71" y="-394" type="curve" smooth="yes"/>
      <point x="-17" y="-394"/>
      <point x="27" y="-377"/>
      <point x="62" y="-359" type="curve"/>
      <point x="37" y="-296" type="line"/>
      <point x="-9" y="-316"/>
      <point x="-34" y="-324"/>
      <point x="-76" y="-324" type="curve" smooth="yes"/>
      <point x="-126" y="-324"/>
      <point x="-157" y="-308"/>
      <point x="-157" y="-271" type="curve" smooth="yes"/>
      <point x="-157" y="-254"/>
      <point x="-151" y="-239"/>
      <point x="-133" y="-226" type="curve"/>
      <point x="-167" y="-231" type="line"/>
      <point x="-149" y="-236"/>
      <point x="-130" y="-238"/>
      <point x="-110" y="-238" type="curve" smooth="yes"/>
      <point x="-56" y="-238"/>
      <point x="-12" y="-222"/>
      <point x="23" y="-204" type="curve"/>
      <point x="-2" y="-141" type="line"/>
      <point x="-48" y="-161"/>
      <point x="-73" y="-169"/>
      <point x="-115" y="-169" type="curve" smooth="yes"/>
      <point x="-164" y="-169"/>
      <point x="-196" y="-152"/>
      <point x="-196" y="-115" type="curve" smooth="yes"/>
      <point x="-196" y="-82"/>
      <point x="-166" y="-57"/>
      <point x="-94" y="-49" type="curve"/>
      <point x="-94" y="18" type="line"/>
      <point x="-210" y="11"/>
      <point x="-270" y="-44"/>
      <point x="-270" y="-107" type="curve" smooth="yes"/>
      <point x="-270" y="-157"/>
      <point x="-241" y="-200"/>
      <point x="-192" y="-221" type="curve"/>
      <point x="-198" y="-188" type="line"/>
      <point x="-221" y="-211"/>
      <point x="-231" y="-236"/>
      <point x="-231" y="-262" type="curve" smooth="yes"/>
      <point x="-231" y="-338"/>
      <point x="-177" y="-394"/>
    </contour>
  </outline>
</glyph>
<glyph name="ecandravowelsigngujr" format="2">
  <unicode hex="0AC5"/>
  <outline>
    <contour>
      <point x="-130" y="641" type="curve" smooth="yes"/>
      <point x="-96" y="641"/>
      <point x="-70" y="646"/>
      <point x="-49" y="653" type="curve"/>
      <point x="-73" y="724" type="line"/>
      <point x="-84" y="720"/>
      <point x="-105" y="715"/>
      <point x="-130" y="715" type="curve" smooth="yes"/>
      <point x="-214" y="715"/>
      <point x="-268" y="759"/>
      <point x="-342" y="868" type="curve"/>
      <point x="-403" y="829" type="line"/>
      <point x="-336" y="727"/>
      <point x="-250" y="641"/>
    </contour>
  </outline>
</glyph>
<glyph name="evowelsigngujr" format="2">
  <unicode hex="0AC7"/>
  <outline>
    <contour>
      <point x="-173" y="641" type="curve"/>
      <point x="-102" y="641" type="line"/>
      <point x="-151" y="851"/>
      <point x="-216" y="896"/>
      <point x="-309" y="896" type="curve" smooth="yes"/>
      <point x="-333" y="896"/>
      <point x="-362" y="893"/>
      <point x="-390" y="884" type="curve"/>
      <point x="-366" y="815" type="line"/>
      <point x="-349" y="821"/>
      <point x="-329" y="824"/>
      <point x="-314" y="824" type="curve" smooth="yes"/>
      <point x="-245" y="824"/>
      <point x="-210" y="773"/>
    </contour>
  </outline>
</glyph>
<glyph name="aivowelsigngujr" format="2">
  <unicode hex="0AC8"/>
  <outline>
    <contour>
      <point x="-165" y="641" type="curve"/>
      <point x="-101" y="641" type="line"/>
      <point x="-137" y="839"/>
      <point x="-195" y="896"/>
      <point x="-290" y="896" type="curve" smooth="yes"/>
      <point x="-314" y="896"/>
      <point x="-343" y="893"/>
      <point x="-370" y="884" type="curve"/>
      <point x="-347" y="816" type="line"/>
      <point x="-330" y="823"/>
      <point x="-309" y="826"/>
      <point x="-295" y="826" type="curve" smooth="yes"/>
      <point x="-226" y="826"/>
      <point x="-197" y="783"/>
    </contour>
    <contour>
      <point x="-210" y="624" type="curve"/>
      <point x="-169" y="665" type="line"/>
      <point x="-255" y="749"/>
      <point x="-313" y="781"/>
      <point x="-390" y="781" type="curve" smooth="yes"/>
      <point x="-423" y="781"/>
      <point x="-449" y="776"/>
      <point x="-470" y="770" type="curve"/>
      <point x="-447" y="701" type="line"/>
      <point x="-435" y="706"/>
      <point x="-414" y="711"/>
      <point x="-389" y="711" type="curve" smooth="yes"/>
      <point x="-330" y="711"/>
      <point x="-282" y="687"/>
    </contour>
  </outline>
</glyph>
<glyph name="viramagujr" format="2">
  <unicode hex="0ACD"/>
  <outline>
    <contour>
      <point x="86" y="-258" type="curve"/>
      <point x="149" y="-220" type="line"/>
      <point x="78" y="-117"/>
      <point x="8" y="-50"/>
      <point x="-101" y="-50" type="curve" smooth="yes"/>
      <point x="-135" y="-50"/>
      <point x="-161" y="-55"/>
      <point x="-182" y="-62" type="curve"/>
      <point x="-158" y="-133" type="line"/>
      <point x="-146" y="-129"/>
      <point x="-126" y="-124"/>
      <point x="-101" y="-124" type="curve" smooth="yes"/>
      <point x="-35" y="-124"/>
      <point x="12" y="-150"/>
    </contour>
  </outline>
</glyph>
<glyph name="omgujr" format="2">
  <advance width="890"/>
  <unicode hex="0AD0"/>
  <outline>
    <contour>
      <point x="256" y="-10" type="curve" smooth="yes"/>
      <point x="377" y="-10"/>
      <point x="449" y="61"/>
      <point x="449" y="164" type="curve" smooth="yes"/>
      <point x="449" y="191"/>
      <point x="443" y="218"/>
      <point x="434" y="245" type="curve"/>
      <point x="405" y="234" type="line"/>
      <point x="419" y="226"/>
      <point x="432" y="221"/>
      <point x="446" y="221" type="curve" smooth="yes"/>
      <point x="508" y="221"/>
      <point x="543" y="254"/>
      <point x="573" y="304" type="curve" smooth="yes"/>
      <point x="599" y="348" type="line" smooth="yes"/>
      <point x="631" y="402"/>
      <point x="654" y="421"/>
      <point x="691" y="421" type="curve" smooth="yes"/>
      <point x="735" y="421"/>
      <point x="767" y="385"/>
      <point x="767" y="315" type="curve" smooth="yes"/>
      <point x="767" y="244"/>
      <point x="722" y="209"/>
      <point x="675" y="209" type="curve" smooth="yes"/>
      <point x="633" y="209"/>
      <point x="605" y="226"/>
      <point x="575" y="253" type="curve"/>
      <point x="524" y="198" type="line"/>
      <point x="567" y="160"/>
      <point x="611" y="138"/>
      <point x="675" y="138" type="curve" smooth="yes"/>
      <point x="779" y="138"/>
      <point x="848" y="207"/>
      <point x="848" y="314" type="curve" smooth="yes"/>
      <point x="848" y="439"/>
      <point x="771" y="494"/>
      <point x="694" y="494" type="curve" smooth="yes"/>
      <point x="622" y="494"/>
      <point x="582" y="465"/>
      <point x="535" y="390" type="curve" smooth="yes"/>
      <point x="505" y="342" type="line" smooth="yes"/>
      <point x="481" y="304"/>
      <point x="462" y="291"/>
      <point x="436" y="291" type="curve" smooth="yes"/>
      <point x="422" y="291"/>
      <point x="409" y="294"/>
      <point x="395" y="302" type="curve"/>
      <point x="390" y="308"/>
      <point x="385" y="313"/>
      <point x="379" y="318" type="curve"/>
      <point x="414" y="347"/>
      <point x="436" y="388"/>
      <point x="436" y="442" type="curve" smooth="yes"/>
      <point x="436" y="534"/>
      <point x="382" y="603"/>
      <point x="246" y="603" type="curve" smooth="yes"/>
      <point x="188" y="603"/>
      <point x="135" y="589"/>
      <point x="84" y="567" type="curve"/>
      <point x="110" y="499" type="line"/>
      <point x="160" y="521"/>
      <point x="191" y="529"/>
      <point x="244" y="529" type="curve" smooth="yes"/>
      <point x="318" y="529"/>
      <point x="355" y="495"/>
      <point x="355" y="440" type="curve" smooth="yes"/>
      <point x="355" y="364"/>
      <point x="280" y="337"/>
      <point x="168" y="328" type="curve"/>
      <point x="183" y="251" type="line"/>
      <point x="230" y="255"/>
      <point x="274" y="264"/>
      <point x="312" y="280" type="curve"/>
      <point x="347" y="253"/>
      <point x="368" y="215"/>
      <point x="368" y="166" type="curve" smooth="yes"/>
      <point x="368" y="94"/>
      <point x="320" y="63"/>
      <point x="253" y="63" type="curve" smooth="yes"/>
      <point x="193" y="63"/>
      <point x="144" y="92"/>
      <point x="82" y="187" type="curve"/>
      <point x="12" y="145" type="line"/>
      <point x="69" y="56"/>
      <point x="139" y="-10"/>
    </contour>
    <contour>
      <point x="451" y="631" type="curve" smooth="yes"/>
      <point x="535" y="631"/>
      <point x="606" y="672"/>
      <point x="648" y="764" type="curve"/>
      <point x="579" y="792" type="line"/>
      <point x="554" y="735"/>
      <point x="516" y="702"/>
      <point x="451" y="702" type="curve" smooth="yes"/>
      <point x="385" y="702"/>
      <point x="348" y="735"/>
      <point x="322" y="792" type="curve"/>
      <point x="253" y="764" type="line"/>
      <point x="295" y="669"/>
      <point x="368" y="631"/>
    </contour>
    <contour>
      <point x="450" y="750" type="curve" smooth="yes"/>
      <point x="479" y="750"/>
      <point x="502" y="774"/>
      <point x="502" y="804" type="curve" smooth="yes"/>
      <point x="502" y="834"/>
      <point x="479" y="859"/>
      <point x="450" y="859" type="curve" smooth="yes"/>
      <point x="422" y="859"/>
      <point x="398" y="834"/>
      <point x="398" y="804" type="curve" smooth="yes"/>
      <point x="398" y="774"/>
      <point x="422" y="750"/>
    </contour>
  </outline>
</glyph>
<glyph name="rrvocalicgujr" format="2">
  <advance width="895"/>
  <unicode hex="0AE0"/>
  <outline>
    <contour>
      <point x="556" y="0" type="curve" smooth="yes"/>
      <point x="566" y="0" type="line"/>
      <point x="574" y="73" type="line"/>
      <point x="541" y="73"/>
      <point x="517" y="73"/>
      <point x="502" y="90" type="curve" smooth="yes"/>
      <point x="490" y="103"/>
      <point x="487" y="114"/>
      <point x="487" y="152" type="curve" smooth="yes"/>
      <point x="487" y="592" type="line"/>
      <point x="407" y="602" type="line"/>
      <point x="407" y="148" type="line" smooth="yes"/>
      <point x="407" y="89"/>
      <point x="416" y="60"/>
      <point x="439" y="37" type="curve" smooth="yes"/>
      <point x="463" y="13"/>
      <point x="498" y="0"/>
    </contour>
    <contour>
      <point x="146" y="135" type="line"/>
      <point x="447" y="334" type="line"/>
      <point x="414" y="394" type="line"/>
      <point x="96" y="205" type="line"/>
    </contour>
    <contour>
      <point x="348" y="334" type="curve"/>
      <point x="401" y="383" type="line"/>
      <point x="314" y="494"/>
      <point x="265" y="533"/>
      <point x="161" y="533" type="curve" smooth="yes"/>
      <point x="117" y="533"/>
      <point x="63" y="520"/>
      <point x="11" y="493" type="curve"/>
      <point x="40" y="423" type="line"/>
      <point x="83" y="446"/>
      <point x="116" y="458"/>
      <point x="165" y="458" type="curve" smooth="yes"/>
      <point x="226" y="458"/>
      <point x="277" y="440"/>
    </contour>
    <contour>
      <point x="780" y="0" type="curve" smooth="yes"/>
      <point x="834" y="0"/>
      <point x="880" y="17"/>
      <point x="915" y="35" type="curve"/>
      <point x="888" y="105" type="line"/>
      <point x="842" y="82"/>
      <point x="816" y="72"/>
      <point x="774" y="72" type="curve" smooth="yes"/>
      <point x="733" y="72"/>
      <point x="695" y="92"/>
      <point x="695" y="136" type="curve" smooth="yes"/>
      <point x="695" y="180"/>
      <point x="724" y="208"/>
      <point x="808" y="219" type="curve"/>
      <point x="778" y="285" type="line"/>
      <point x="676" y="272"/>
      <point x="620" y="215"/>
      <point x="620" y="141" type="curve" smooth="yes"/>
      <point x="620" y="58"/>
      <point x="680" y="0"/>
    </contour>
    <contour>
      <point x="808" y="219" type="line"/>
      <point x="794" y="267"/>
      <point x="777" y="310"/>
      <point x="756" y="349" type="curve"/>
      <point x="776" y="367"/>
      <point x="787" y="390"/>
      <point x="787" y="418" type="curve" smooth="yes"/>
      <point x="787" y="461"/>
      <point x="759" y="490"/>
      <point x="717" y="490" type="curve" smooth="yes"/>
      <point x="681" y="490"/>
      <point x="648" y="471"/>
      <point x="648" y="429" type="curve" smooth="yes"/>
      <point x="648" y="405"/>
      <point x="658" y="387"/>
      <point x="674" y="369" type="curve"/>
      <point x="678" y="392" type="line"/>
      <point x="663" y="388"/>
      <point x="647" y="385"/>
      <point x="623" y="385" type="curve" smooth="yes"/>
      <point x="568" y="385"/>
      <point x="520" y="407"/>
      <point x="483" y="446" type="curve"/>
      <point x="474" y="369" type="line"/>
      <point x="520" y="331"/>
      <point x="581" y="313"/>
      <point x="633" y="313" type="curve" smooth="yes"/>
      <point x="665" y="313"/>
      <point x="693" y="319"/>
      <point x="717" y="325" type="curve"/>
      <point x="685" y="342" type="line"/>
      <point x="704" y="306"/>
      <point x="719" y="269"/>
      <point x="730" y="233" type="curve"/>
    </contour>
  </outline>
</glyph>
<glyph name="llvocalicgujr" format="2">
  <advance width="697"/>
  <unicode hex="0AE1"/>
  <outline>
    <contour>
      <point x="583" y="-18" type="curve" smooth="yes"/>
      <point x="637" y="-18"/>
      <point x="682" y="-1"/>
      <point x="716" y="16" type="curve"/>
      <point x="691" y="79" type="line"/>
      <point x="646" y="60"/>
      <point x="620" y="51"/>
      <point x="578" y="51" type="curve" smooth="yes"/>
      <point x="530" y="51"/>
      <point x="497" y="68"/>
      <point x="497" y="104" type="curve" smooth="yes"/>
      <point x="497" y="138"/>
      <point x="524" y="168"/>
      <point x="632" y="177" type="curve"/>
      <point x="644" y="205"/>
      <point x="654" y="241"/>
      <point x="654" y="288" type="curve" smooth="yes"/>
      <point x="654" y="406"/>
      <point x="570" y="450"/>
      <point x="504" y="450" type="curve" smooth="yes"/>
      <point x="391" y="450"/>
      <point x="310" y="383"/>
      <point x="278" y="257" type="curve"/>
      <point x="354" y="233" type="line"/>
      <point x="390" y="354"/>
      <point x="444" y="380"/>
      <point x="494" y="380" type="curve" smooth="yes"/>
      <point x="542" y="380"/>
      <point x="574" y="353"/>
      <point x="574" y="292" type="curve" smooth="yes"/>
      <point x="574" y="271"/>
      <point x="570" y="252"/>
      <point x="565" y="235" type="curve"/>
      <point x="469" y="218"/>
      <point x="423" y="169"/>
      <point x="423" y="113" type="curve" smooth="yes"/>
      <point x="423" y="35"/>
      <point x="490" y="-18"/>
    </contour>
    <contour>
      <point x="210" y="36" type="curve"/>
      <point x="264" y="88" type="line"/>
      <point x="175" y="168"/>
      <point x="125" y="232"/>
      <point x="125" y="296" type="curve" smooth="yes"/>
      <point x="125" y="343"/>
      <point x="153" y="377"/>
      <point x="208" y="377" type="curve" smooth="yes"/>
      <point x="258" y="377"/>
      <point x="294" y="351"/>
      <point x="335" y="316" type="curve"/>
      <point x="368" y="382" type="line"/>
      <point x="319" y="426"/>
      <point x="267" y="450"/>
      <point x="203" y="450" type="curve" smooth="yes"/>
      <point x="130" y="450"/>
      <point x="42" y="405"/>
      <point x="42" y="300" type="curve" smooth="yes"/>
      <point x="42" y="202"/>
      <point x="117" y="120"/>
    </contour>
    <contour>
      <point x="622" y="-173" type="curve" smooth="yes"/>
      <point x="676" y="-173"/>
      <point x="721" y="-157"/>
      <point x="755" y="-139" type="curve"/>
      <point x="730" y="-76" type="line"/>
      <point x="685" y="-96"/>
      <point x="659" y="-104"/>
      <point x="617" y="-104" type="curve" smooth="yes"/>
      <point x="567" y="-104"/>
      <point x="536" y="-87"/>
      <point x="536" y="-50" type="curve" smooth="yes"/>
      <point x="536" y="-33"/>
      <point x="544" y="-16"/>
      <point x="563" y="-4" type="curve"/>
      <point x="487" y="24" type="line"/>
      <point x="472" y="5"/>
      <point x="462" y="-18"/>
      <point x="462" y="-42" type="curve" smooth="yes"/>
      <point x="462" y="-118"/>
      <point x="516" y="-173"/>
    </contour>
    <contour>
      <point x="454" y="412" type="line"/>
      <point x="534" y="412" type="line"/>
      <point x="534" y="592" type="line"/>
      <point x="454" y="603" type="line"/>
    </contour>
  </outline>
</glyph>
<glyph name="lvocalicvowelsigngujr" format="2">
  <unicode hex="0AE2"/>
  <outline>
    <contour>
      <point x="-67" y="-394" type="curve" smooth="yes"/>
      <point x="-24" y="-394"/>
      <point x="11" y="-381"/>
      <point x="39" y="-367" type="curve"/>
      <point x="19" y="-305" type="line"/>
      <point x="-16" y="-323"/>
      <point x="-34" y="-330"/>
      <point x="-66" y="-330" type="curve" smooth="yes"/>
      <point x="-97" y="-330"/>
      <point x="-126" y="-316"/>
      <point x="-126" y="-284" type="curve" smooth="yes"/>
      <point x="-126" y="-250"/>
      <point x="-97" y="-229"/>
      <point x="-21" y="-221" type="curve"/>
      <point x="-3" y="-190"/>
      <point x="9" y="-154"/>
      <point x="9" y="-115" type="curve" smooth="yes"/>
      <point x="9" y="-31"/>
      <point x="-59" y="0"/>
      <point x="-111" y="0" type="curve" smooth="yes"/>
      <point x="-209" y="0"/>
      <point x="-268" y="-66"/>
      <point x="-292" y="-157" type="curve"/>
      <point x="-223" y="-175" type="line"/>
      <point x="-197" y="-83"/>
      <point x="-158" y="-63"/>
      <point x="-122" y="-63" type="curve" smooth="yes"/>
      <point x="-87" y="-63"/>
      <point x="-63" y="-80"/>
      <point x="-63" y="-118" type="curve" smooth="yes"/>
      <point x="-63" y="-146"/>
      <point x="-76" y="-171"/>
      <point x="-91" y="-191" type="curve"/>
      <point x="-39" y="-160" type="line"/>
      <point x="-148" y="-173"/>
      <point x="-193" y="-220"/>
      <point x="-193" y="-281" type="curve" smooth="yes"/>
      <point x="-193" y="-348"/>
      <point x="-146" y="-394"/>
    </contour>
    <contour>
      <point x="-341" y="-345" type="curve"/>
      <point x="-291" y="-297" type="line"/>
      <point x="-376" y="-219"/>
      <point x="-405" y="-177"/>
      <point x="-405" y="-128" type="curve" smooth="yes"/>
      <point x="-405" y="-93"/>
      <point x="-380" y="-65"/>
      <point x="-339" y="-65" type="curve" smooth="yes"/>
      <point x="-306" y="-65"/>
      <point x="-279" y="-81"/>
      <point x="-253" y="-102" type="curve"/>
      <point x="-215" y="-54" type="line"/>
      <point x="-256" y="-19"/>
      <point x="-293" y="0"/>
      <point x="-347" y="0" type="curve" smooth="yes"/>
      <point x="-408" y="0"/>
      <point x="-477" y="-37"/>
      <point x="-477" y="-127" type="curve" smooth="yes"/>
      <point x="-477" y="-201"/>
      <point x="-429" y="-269"/>
    </contour>
  </outline>
</glyph>
<glyph name="zerogujr" format="2">
  <advance width="551"/>
  <unicode hex="0AE6"/>
  <outline>
    <contour>
      <point x="276" y="98" type="curve" smooth="yes"/>
      <point x="395" y="98"/>
      <point x="485" y="183"/>
      <point x="485" y="305" type="curve" smooth="yes"/>
      <point x="485" y="427"/>
      <point x="401" y="513"/>
      <point x="275" y="513" type="curve" smooth="yes"/>
      <point x="152" y="513"/>
      <point x="65" y="425"/>
      <point x="65" y="306" type="curve" smooth="yes"/>
      <point x="65" y="184"/>
      <point x="151" y="98"/>
    </contour>
    <contour>
      <point x="273" y="172" type="curve" smooth="yes"/>
      <point x="197" y="172"/>
      <point x="147" y="226"/>
      <point x="147" y="304" type="curve" smooth="yes"/>
      <point x="147" y="382"/>
      <point x="201" y="438"/>
      <point x="277" y="438" type="curve" smooth="yes"/>
      <point x="354" y="438"/>
      <point x="403" y="386"/>
      <point x="403" y="308" type="curve" smooth="yes"/>
      <point x="403" y="229"/>
      <point x="350" y="172"/>
    </contour>
  </outline>
</glyph>
<glyph name="onegujr" format="2">
  <advance width="551"/>
  <unicode hex="0AE7"/>
  <outline>
    <contour>
      <point x="484" y="0" type="curve" smooth="yes"/>
      <point x="495" y="0" type="line"/>
      <point x="502" y="73" type="line"/>
      <point x="475" y="73"/>
      <point x="442" y="73"/>
      <point x="428" y="92" type="curve" smooth="yes"/>
      <point x="420" y="103"/>
      <point x="416" y="116"/>
      <point x="416" y="152" type="curve" smooth="yes"/>
      <point x="416" y="411" type="line" smooth="yes"/>
      <point x="416" y="489"/>
      <point x="398" y="537"/>
      <point x="359" y="569" type="curve" smooth="yes"/>
      <point x="334" y="590"/>
      <point x="299" y="603"/>
      <point x="251" y="603" type="curve" smooth="yes"/>
      <point x="146" y="603"/>
      <point x="85" y="528"/>
      <point x="85" y="442" type="curve" smooth="yes"/>
      <point x="85" y="343"/>
      <point x="159" y="278"/>
      <point x="256" y="278" type="curve" smooth="yes"/>
      <point x="306" y="278"/>
      <point x="341" y="292"/>
      <point x="380" y="314" type="curve"/>
      <point x="364" y="396" type="line"/>
      <point x="336" y="368"/>
      <point x="301" y="351"/>
      <point x="258" y="351" type="curve" smooth="yes"/>
      <point x="203" y="351"/>
      <point x="166" y="382"/>
      <point x="166" y="437" type="curve" smooth="yes"/>
      <point x="166" y="494"/>
      <point x="199" y="530"/>
      <point x="252" y="530" type="curve" smooth="yes"/>
      <point x="277" y="530"/>
      <point x="295" y="522"/>
      <point x="308" y="509" type="curve" smooth="yes"/>
      <point x="329" y="487"/>
      <point x="336" y="451"/>
      <point x="336" y="394" type="curve" smooth="yes"/>
      <point x="336" y="148" type="line" smooth="yes"/>
      <point x="336" y="89"/>
      <point x="345" y="60"/>
      <point x="367" y="37" type="curve" smooth="yes"/>
      <point x="390" y="13"/>
      <point x="427" y="0"/>
    </contour>
  </outline>
</glyph>
<glyph name="twogujr" format="2">
  <advance width="551"/>
  <unicode hex="0AE8"/>
  <outline>
    <contour>
      <point x="420" y="0" type="curve" smooth="yes"/>
      <point x="453" y="0"/>
      <point x="488" y="5"/>
      <point x="527" y="26" type="curve"/>
      <point x="500" y="95" type="line"/>
      <point x="479" y="84"/>
      <point x="451" y="75"/>
      <point x="424" y="75" type="curve" smooth="yes"/>
      <point x="345" y="75"/>
      <point x="313" y="119"/>
      <point x="240" y="246" type="curve"/>
      <point x="247" y="250" type="line"/>
      <point x="202" y="294"/>
      <point x="171" y="303"/>
      <point x="137" y="303" type="curve" smooth="yes"/>
      <point x="102" y="303"/>
      <point x="77" y="284"/>
      <point x="77" y="252" type="curve" smooth="yes"/>
      <point x="77" y="209"/>
      <point x="107" y="192"/>
      <point x="168" y="192" type="curve" smooth="yes"/>
      <point x="303" y="192"/>
      <point x="443" y="274"/>
      <point x="443" y="413" type="curve" smooth="yes"/>
      <point x="443" y="540"/>
      <point x="360" y="603"/>
      <point x="238" y="603" type="curve" smooth="yes"/>
      <point x="183" y="603"/>
      <point x="125" y="588"/>
      <point x="77" y="567" type="curve"/>
      <point x="102" y="499" type="line"/>
      <point x="149" y="521"/>
      <point x="188" y="529"/>
      <point x="236" y="529" type="curve" smooth="yes"/>
      <point x="312" y="529"/>
      <point x="360" y="491"/>
      <point x="360" y="414" type="curve" smooth="yes"/>
      <point x="360" y="319"/>
      <point x="262" y="274"/>
      <point x="171" y="269" type="curve"/>
      <point x="168" y="225" type="line"/>
      <point x="228" y="105"/>
      <point x="288" y="0"/>
    </contour>
  </outline>
</glyph>
<glyph name="threegujr" format="2">
  <advance width="551"/>
  <unicode hex="0AE9"/>
  <outline>
    <contour>
      <point x="281" y="-10" type="curve" smooth="yes"/>
      <point x="403" y="-10"/>
      <point x="474" y="61"/>
      <point x="474" y="164" type="curve" smooth="yes"/>
      <point x="474" y="235"/>
      <point x="435" y="308"/>
      <point x="357" y="352" type="curve"/>
      <point x="286" y="337" type="line"/>
      <point x="287" y="306" type="line"/>
      <point x="351" y="284"/>
      <point x="394" y="235"/>
      <point x="394" y="166" type="curve" smooth="yes"/>
      <point x="394" y="94"/>
      <point x="345" y="63"/>
      <point x="279" y="63" type="curve" smooth="yes"/>
      <point x="218" y="63"/>
      <point x="169" y="92"/>
      <point x="107" y="187" type="curve"/>
      <point x="38" y="145" type="line"/>
      <point x="94" y="56"/>
      <point x="164" y="-10"/>
    </contour>
    <contour>
      <point x="208" y="251" type="line"/>
      <point x="343" y="264"/>
      <point x="461" y="315"/>
      <point x="461" y="442" type="curve" smooth="yes"/>
      <point x="461" y="534"/>
      <point x="407" y="603"/>
      <point x="271" y="603" type="curve" smooth="yes"/>
      <point x="213" y="603"/>
      <point x="160" y="589"/>
      <point x="110" y="567" type="curve"/>
      <point x="135" y="499" type="line"/>
      <point x="186" y="521"/>
      <point x="217" y="529"/>
      <point x="269" y="529" type="curve" smooth="yes"/>
      <point x="343" y="529"/>
      <point x="381" y="495"/>
      <point x="381" y="440" type="curve" smooth="yes"/>
      <point x="381" y="364"/>
      <point x="305" y="337"/>
      <point x="193" y="328" type="curve"/>
    </contour>
  </outline>
</glyph>
<glyph name="fourgujr" format="2">
  <advance width="551"/>
  <unicode hex="0AEA"/>
  <outline>
    <contour>
      <point x="268" y="-10" type="curve" smooth="yes"/>
      <point x="381" y="-10"/>
      <point x="421" y="64"/>
      <point x="421" y="136" type="curve" smooth="yes"/>
      <point x="421" y="208"/>
      <point x="399" y="267"/>
      <point x="325" y="348" type="curve"/>
      <point x="379" y="399"/>
      <point x="449" y="461"/>
      <point x="543" y="544" type="curve"/>
      <point x="490" y="603" type="line"/>
      <point x="402" y="524"/>
      <point x="333" y="458"/>
      <point x="275" y="400" type="curve"/>
      <point x="217" y="462"/>
      <point x="149" y="526"/>
      <point x="60" y="603" type="curve"/>
      <point x="8" y="544" type="line"/>
      <point x="102" y="462"/>
      <point x="173" y="399"/>
      <point x="223" y="348" type="curve"/>
      <point x="139" y="261"/>
      <point x="113" y="207"/>
      <point x="113" y="137" type="curve" smooth="yes"/>
      <point x="113" y="65"/>
      <point x="160" y="-10"/>
    </contour>
    <contour>
      <point x="267" y="62" type="curve" smooth="yes"/>
      <point x="220" y="62"/>
      <point x="193" y="91"/>
      <point x="193" y="136" type="curve" smooth="yes"/>
      <point x="193" y="187"/>
      <point x="207" y="222"/>
      <point x="272" y="293" type="curve"/>
      <point x="327" y="229"/>
      <point x="341" y="188"/>
      <point x="341" y="138" type="curve" smooth="yes"/>
      <point x="341" y="95"/>
      <point x="317" y="62"/>
    </contour>
  </outline>
</glyph>
<glyph name="fivegujr" format="2">
  <advance width="551"/>
  <unicode hex="0AEB"/>
  <outline>
    <contour>
      <point x="248" y="161" type="curve" smooth="yes"/>
      <point x="302" y="161"/>
      <point x="340" y="176"/>
      <point x="374" y="200" type="curve"/>
      <point x="374" y="292" type="line"/>
      <point x="347" y="258"/>
      <point x="305" y="233"/>
      <point x="260" y="233" type="curve" smooth="yes"/>
      <point x="233" y="233"/>
      <point x="214" y="238"/>
      <point x="201" y="251" type="curve" smooth="yes"/>
      <point x="186" y="266"/>
      <point x="176" y="289"/>
      <point x="176" y="345" type="curve" smooth="yes"/>
      <point x="176" y="443" type="line" smooth="yes"/>
      <point x="176" y="503"/>
      <point x="167" y="532"/>
      <point x="145" y="555" type="curve" smooth="yes"/>
      <point x="122" y="579"/>
      <point x="85" y="592"/>
      <point x="28" y="592" type="curve" smooth="yes"/>
      <point x="18" y="592" type="line"/>
      <point x="10" y="519" type="line"/>
      <point x="38" y="519"/>
      <point x="70" y="519"/>
      <point x="84" y="500" type="curve" smooth="yes"/>
      <point x="92" y="489"/>
      <point x="96" y="476"/>
      <point x="96" y="440" type="curve" smooth="yes"/>
      <point x="96" y="341" type="line" smooth="yes"/>
      <point x="96" y="271"/>
      <point x="110" y="232"/>
      <point x="140" y="201" type="curve" smooth="yes"/>
      <point x="164" y="176"/>
      <point x="202" y="161"/>
    </contour>
    <contour>
      <point x="516" y="0" type="curve" smooth="yes"/>
      <point x="526" y="0" type="line"/>
      <point x="534" y="73" type="line"/>
      <point x="506" y="73"/>
      <point x="473" y="73"/>
      <point x="459" y="92" type="curve" smooth="yes"/>
      <point x="451" y="103"/>
      <point x="447" y="116"/>
      <point x="447" y="152" type="curve" smooth="yes"/>
      <point x="447" y="592" type="line"/>
      <point x="367" y="603" type="line"/>
      <point x="367" y="148" type="line" smooth="yes"/>
      <point x="367" y="89"/>
      <point x="376" y="60"/>
      <point x="398" y="37" type="curve" smooth="yes"/>
      <point x="421" y="13"/>
      <point x="458" y="0"/>
    </contour>
  </outline>
</glyph>
<glyph name="sixgujr" format="2">
  <advance width="551"/>
  <unicode hex="0AEC"/>
  <outline>
    <contour>
      <point x="451" y="-163" type="line"/>
      <point x="479" y="-126"/>
      <point x="498" y="-93"/>
      <point x="498" y="-47" type="curve" smooth="yes"/>
      <point x="498" y="13"/>
      <point x="462" y="56"/>
      <point x="345" y="92" type="curve" smooth="yes"/>
      <point x="245" y="123"/>
      <point x="217" y="161"/>
      <point x="217" y="210" type="curve" smooth="yes"/>
      <point x="217" y="282"/>
      <point x="272" y="311"/>
      <point x="346" y="311" type="curve" smooth="yes"/>
      <point x="384" y="311"/>
      <point x="406" y="309"/>
      <point x="426" y="305" type="curve"/>
      <point x="440" y="377" type="line"/>
      <point x="417" y="381"/>
      <point x="392" y="384"/>
      <point x="351" y="384" type="curve" smooth="yes"/>
      <point x="214" y="384"/>
      <point x="135" y="312"/>
      <point x="135" y="213" type="curve" smooth="yes"/>
      <point x="135" y="125"/>
      <point x="178" y="68"/>
      <point x="310" y="21" type="curve" smooth="yes"/>
      <point x="388" y="-7"/>
      <point x="414" y="-21"/>
      <point x="414" y="-56" type="curve" smooth="yes"/>
      <point x="414" y="-79"/>
      <point x="401" y="-99"/>
      <point x="386" y="-117" type="curve"/>
    </contour>
    <contour>
      <point x="216" y="285" type="curve"/>
      <point x="272" y="338" type="line"/>
      <point x="202" y="371"/>
      <point x="176" y="407"/>
      <point x="176" y="451" type="curve" smooth="yes"/>
      <point x="176" y="494"/>
      <point x="212" y="529"/>
      <point x="301" y="529" type="curve" smooth="yes"/>
      <point x="339" y="529"/>
      <point x="374" y="522"/>
      <point x="399" y="516" type="curve"/>
      <point x="413" y="588" type="line"/>
      <point x="385" y="595"/>
      <point x="341" y="603"/>
      <point x="297" y="603" type="curve" smooth="yes"/>
      <point x="150" y="603"/>
      <point x="94" y="532"/>
      <point x="94" y="457" type="curve" smooth="yes"/>
      <point x="94" y="375"/>
      <point x="151" y="323"/>
    </contour>
  </outline>
</glyph>
<glyph name="sevengujr" format="2">
  <advance width="551"/>
  <unicode hex="0AED"/>
  <outline>
    <contour>
      <point x="295" y="-9" type="curve" smooth="yes"/>
      <point x="425" y="-9"/>
      <point x="511" y="71"/>
      <point x="511" y="284" type="curve" smooth="yes"/>
      <point x="511" y="494"/>
      <point x="418" y="603"/>
      <point x="292" y="603" type="curve" smooth="yes"/>
      <point x="178" y="603"/>
      <point x="124" y="532"/>
      <point x="124" y="451" type="curve" smooth="yes"/>
      <point x="124" y="326"/>
      <point x="225" y="261"/>
      <point x="406" y="261" type="curve"/>
      <point x="408" y="335" type="line"/>
      <point x="289" y="335"/>
      <point x="207" y="362"/>
      <point x="207" y="448" type="curve" smooth="yes"/>
      <point x="207" y="496"/>
      <point x="238" y="530"/>
      <point x="290" y="530" type="curve" smooth="yes"/>
      <point x="384" y="530"/>
      <point x="427" y="411"/>
      <point x="427" y="296" type="curve" smooth="yes"/>
      <point x="427" y="146"/>
      <point x="396" y="64"/>
      <point x="292" y="64" type="curve" smooth="yes"/>
      <point x="185" y="64"/>
      <point x="134" y="143"/>
      <point x="107" y="286" type="curve"/>
      <point x="25" y="275" type="line"/>
      <point x="63" y="66"/>
      <point x="158" y="-9"/>
    </contour>
  </outline>
</glyph>
<glyph name="eightgujr" format="2">
  <advance width="551"/>
  <unicode hex="0AEE"/>
  <outline>
    <contour>
      <point x="268" y="-10" type="curve" smooth="yes"/>
      <point x="368" y="-10"/>
      <point x="441" y="20"/>
      <point x="497" y="55" type="curve"/>
      <point x="460" y="124" type="line"/>
      <point x="402" y="89"/>
      <point x="350" y="63"/>
      <point x="272" y="63" type="curve" smooth="yes"/>
      <point x="205" y="63"/>
      <point x="154" y="96"/>
      <point x="154" y="160" type="curve" smooth="yes"/>
      <point x="154" y="212"/>
      <point x="181" y="251"/>
      <point x="269" y="337" type="curve" smooth="yes"/>
      <point x="479" y="543" type="line"/>
      <point x="417" y="603" type="line"/>
      <point x="179" y="362" type="line" smooth="yes"/>
      <point x="93" y="275"/>
      <point x="72" y="228"/>
      <point x="72" y="162" type="curve" smooth="yes"/>
      <point x="72" y="51"/>
      <point x="165" y="-10"/>
    </contour>
  </outline>
</glyph>
<glyph name="ninegujr" format="2">
  <advance width="551"/>
  <unicode hex="0AEF"/>
  <outline>
    <contour>
      <point x="346" y="-10" type="curve" smooth="yes"/>
      <point x="417" y="-10"/>
      <point x="474" y="3"/>
      <point x="520" y="20" type="curve"/>
      <point x="490" y="91" type="line"/>
      <point x="447" y="76"/>
      <point x="404" y="65"/>
      <point x="343" y="65" type="curve" smooth="yes"/>
      <point x="225" y="65"/>
      <point x="132" y="128"/>
      <point x="132" y="266" type="curve" smooth="yes"/>
      <point x="132" y="397"/>
      <point x="199" y="475"/>
      <point x="373" y="528" type="curve"/>
      <point x="350" y="602" type="line"/>
      <point x="169" y="551"/>
      <point x="48" y="439"/>
      <point x="48" y="275" type="curve" smooth="yes"/>
      <point x="48" y="105"/>
      <point x="157" y="-10"/>
    </contour>
    <contour>
      <point x="248" y="229" type="line"/>
      <point x="497" y="289" type="line"/>
      <point x="478" y="364" type="line"/>
      <point x="228" y="307" type="line"/>
    </contour>
  </outline>
</glyph>
<glyph name="uni0AF0" format="2">
  <advance width="383"/>
  <unicode hex="0AF0"/>
  <outline>
    <contour>
      <point x="192" y="199" type="curve" smooth="yes"/>
      <point x="276" y="199"/>
      <point x="340" y="257"/>
      <point x="340" y="338" type="curve" smooth="yes"/>
      <point x="340" y="419"/>
      <point x="276" y="477"/>
      <point x="192" y="477" type="curve" smooth="yes"/>
      <point x="103" y="477"/>
      <point x="43" y="416"/>
      <point x="43" y="338" type="curve" smooth="yes"/>
      <point x="43" y="254"/>
      <point x="110" y="199"/>
    </contour>
    <contour>
      <point x="191" y="264" type="curve" smooth="yes"/>
      <point x="147" y="264"/>
      <point x="112" y="292"/>
      <point x="112" y="338" type="curve" smooth="yes"/>
      <point x="112" y="380"/>
      <point x="143" y="411"/>
      <point x="191" y="411" type="curve" smooth="yes"/>
      <point x="238" y="411"/>
      <point x="271" y="382"/>
      <point x="271" y="338" type="curve" smooth="yes"/>
      <point x="271" y="293"/>
      <point x="238" y="264"/>
    </contour>
  </outline>
</glyph>
<glyph name="zhagujr" format="2">
  <advance width="822"/>
  <unicode hex="0AF9"/>
  <outline>
    <contour>
      <point x="213" y="103" type="curve" smooth="yes"/>
      <point x="242" y="103"/>
      <point x="264" y="126"/>
      <point x="264" y="155" type="curve" smooth="yes"/>
      <point x="264" y="184"/>
      <point x="242" y="207"/>
      <point x="213" y="207" type="curve" smooth="yes"/>
      <point x="186" y="207"/>
      <point x="165" y="184"/>
      <point x="165" y="155" type="curve" smooth="yes"/>
      <point x="165" y="126"/>
      <point x="186" y="103"/>
    </contour>
    <contour>
      <point x="124" y="-13" type="curve" smooth="yes"/>
      <point x="151" y="-13"/>
      <point x="173" y="11"/>
      <point x="173" y="39" type="curve" smooth="yes"/>
      <point x="173" y="68"/>
      <point x="151" y="92"/>
      <point x="124" y="92" type="curve" smooth="yes"/>
      <point x="97" y="92"/>
      <point x="75" y="68"/>
      <point x="75" y="39" type="curve" smooth="yes"/>
      <point x="75" y="11"/>
      <point x="97" y="-13"/>
    </contour>
    <contour>
      <point x="272" y="-38" type="curve" smooth="yes"/>
      <point x="299" y="-38"/>
      <point x="322" y="-14"/>
      <point x="322" y="15" type="curve" smooth="yes"/>
      <point x="322" y="43"/>
      <point x="299" y="67"/>
      <point x="272" y="67" type="curve" smooth="yes"/>
      <point x="246" y="67"/>
      <point x="223" y="43"/>
      <point x="223" y="15" type="curve" smooth="yes"/>
      <point x="223" y="-14"/>
      <point x="246" y="-38"/>
    </contour>
    <component base="jagujr"/>
  </outline>
</glyph>
<glyph name="uni0AFA" format="2">
  <unicode hex="0AFA"/>
  <outline>
    <contour>
      <point x="-176" y="625" type="line"/>
      <point x="-105" y="652"/>
      <point x="-53" y="697"/>
      <point x="-53" y="773" type="curve" smooth="yes"/>
      <point x="-53" y="840"/>
      <point x="-99" y="896"/>
      <point x="-194" y="896" type="curve" smooth="yes"/>
      <point x="-242" y="896"/>
      <point x="-272" y="888"/>
      <point x="-310" y="872" type="curve"/>
      <point x="-288" y="809" type="line"/>
      <point x="-259" y="822"/>
      <point x="-232" y="830"/>
      <point x="-197" y="830" type="curve" smooth="yes"/>
      <point x="-149" y="830"/>
      <point x="-126" y="803"/>
      <point x="-126" y="772" type="curve" smooth="yes"/>
      <point x="-126" y="731"/>
      <point x="-160" y="706"/>
      <point x="-212" y="688" type="curve"/>
    </contour>
  </outline>
</glyph>
<glyph name="uni0AFB" format="2">
  <unicode hex="0AFB"/>
  <outline>
    <contour>
      <point x="-163" y="829" type="curve"/>
      <point x="-221" y="829" type="line"/>
      <point x="-223" y="766"/>
      <point x="-237" y="740"/>
      <point x="-270" y="740" type="curve" smooth="yes"/>
      <point x="-300" y="740"/>
      <point x="-318" y="758"/>
      <point x="-320" y="830" type="curve"/>
      <point x="-387" y="827" type="line"/>
      <point x="-383" y="715"/>
      <point x="-342" y="680"/>
      <point x="-276" y="680" type="curve" smooth="yes"/>
      <point x="-210" y="680"/>
      <point x="-182" y="723"/>
    </contour>
    <contour>
      <point x="-159" y="829" type="curve"/>
      <point x="-217" y="829" type="line"/>
      <point x="-198" y="723"/>
      <point x="-170" y="680"/>
      <point x="-104" y="680" type="curve" smooth="yes"/>
      <point x="-39" y="680"/>
      <point x="3" y="715"/>
      <point x="7" y="827" type="curve"/>
      <point x="-61" y="830" type="line"/>
      <point x="-62" y="758"/>
      <point x="-80" y="740"/>
      <point x="-110" y="740" type="curve" smooth="yes"/>
      <point x="-143" y="740"/>
      <point x="-157" y="766"/>
    </contour>
  </outline>
</glyph>
<glyph name="uni0AFC" format="2">
  <unicode hex="0AFC"/>
  <outline>
    <contour>
      <point x="-25" y="850" type="line"/>
      <point x="-119" y="783"/>
      <point x="-149" y="766"/>
      <point x="-214" y="766" type="curve" smooth="yes"/>
      <point x="-256" y="766"/>
      <point x="-285" y="780"/>
      <point x="-318" y="808" type="curve"/>
      <point x="-358" y="763" type="line"/>
      <point x="-328" y="738"/>
      <point x="-280" y="719"/>
      <point x="-239" y="719" type="curve"/>
      <point x="-235" y="719"/>
      <point x="-231" y="719"/>
      <point x="-227" y="720" type="curve"/>
      <point x="-230" y="721" type="line"/>
      <point x="-252" y="713"/>
      <point x="-271" y="710"/>
      <point x="-300" y="710" type="curve" smooth="yes"/>
      <point x="-348" y="710"/>
      <point x="-382" y="721"/>
      <point x="-420" y="747" type="curve"/>
      <point x="-455" y="691" type="line"/>
      <point x="-420" y="669"/>
      <point x="-365" y="654"/>
      <point x="-307" y="654" type="curve" smooth="yes"/>
      <point x="-213" y="654"/>
      <point x="-141" y="687"/>
      <point x="14" y="800" type="curve"/>
    </contour>
  </outline>
</glyph>
<glyph name="uni0AFD" format="2">
  <unicode hex="0AFD"/>
  <outline>
    <contour>
      <point x="-256" y="787" type="curve" smooth="yes"/>
      <point x="-227" y="787"/>
      <point x="-205" y="807"/>
      <point x="-205" y="839" type="curve" smooth="yes"/>
      <point x="-205" y="870"/>
      <point x="-227" y="891"/>
      <point x="-256" y="891" type="curve" smooth="yes"/>
      <point x="-283" y="891"/>
      <point x="-304" y="870"/>
      <point x="-304" y="839" type="curve" smooth="yes"/>
      <point x="-304" y="807"/>
      <point x="-283" y="787"/>
    </contour>
    <contour>
      <point x="-329" y="663" type="curve" smooth="yes"/>
      <point x="-302" y="663"/>
      <point x="-280" y="684"/>
      <point x="-280" y="715" type="curve" smooth="yes"/>
      <point x="-280" y="747"/>
      <point x="-302" y="768"/>
      <point x="-329" y="768" type="curve" smooth="yes"/>
      <point x="-356" y="768"/>
      <point x="-378" y="747"/>
      <point x="-378" y="715" type="curve" smooth="yes"/>
      <point x="-378" y="684"/>
      <point x="-356" y="663"/>
    </contour>
    <contour>
      <point x="-181" y="663" type="curve" smooth="yes"/>
      <point x="-154" y="663"/>
      <point x="-131" y="684"/>
      <point x="-131" y="716" type="curve" smooth="yes"/>
      <point x="-131" y="747"/>
      <point x="-154" y="768"/>
      <point x="-181" y="768" type="curve" smooth="yes"/>
      <point x="-207" y="768"/>
      <point x="-230" y="747"/>
      <point x="-230" y="716" type="curve" smooth="yes"/>
      <point x="-230" y="684"/>
      <point x="-207" y="663"/>
    </contour>
  </outline>
</glyph>
<glyph name="uni0AFE" format="2">
  <unicode hex="0AFE"/>
  <outline>
    <contour>
      <point x="-359" y="763" type="curve" smooth="yes"/>
      <point x="-359" y="705"/>
      <point x="-316" y="663"/>
      <point x="-254" y="663" type="curve" smooth="yes"/>
      <point x="-193" y="663"/>
      <point x="-150" y="704"/>
      <point x="-150" y="763" type="curve" smooth="yes"/>
      <point x="-150" y="821"/>
      <point x="-193" y="862"/>
      <point x="-255" y="862" type="curve" smooth="yes"/>
      <point x="-316" y="862"/>
      <point x="-359" y="822"/>
    </contour>
    <contour>
      <point x="-310" y="762" type="curve" smooth="yes"/>
      <point x="-310" y="795"/>
      <point x="-287" y="817"/>
      <point x="-254" y="817" type="curve" smooth="yes"/>
      <point x="-221" y="817"/>
      <point x="-199" y="796"/>
      <point x="-199" y="764" type="curve" smooth="yes"/>
      <point x="-199" y="731"/>
      <point x="-223" y="708"/>
      <point x="-256" y="708" type="curve" smooth="yes"/>
      <point x="-289" y="708"/>
      <point x="-310" y="730"/>
    </contour>
  </outline>
</glyph>
<glyph name="uni0AFF" format="2">
  <unicode hex="0AFF"/>
  <outline>
    <contour>
      <point x="-465" y="763" type="curve" smooth="yes"/>
      <point x="-465" y="705"/>
      <point x="-425" y="663"/>
      <point x="-365" y="663" type="curve" smooth="yes"/>
      <point x="-306" y="663"/>
      <point x="-266" y="704"/>
      <point x="-266" y="763" type="curve" smooth="yes"/>
      <point x="-266" y="821"/>
      <point x="-306" y="862"/>
      <point x="-366" y="862" type="curve" smooth="yes"/>
      <point x="-425" y="862"/>
      <point x="-465" y="822"/>
    </contour>
    <contour>
      <point x="-417" y="762" type="curve" smooth="yes"/>
      <point x="-417" y="795"/>
      <point x="-396" y="817"/>
      <point x="-365" y="817" type="curve" smooth="yes"/>
      <point x="-334" y="817"/>
      <point x="-314" y="796"/>
      <point x="-314" y="764" type="curve" smooth="yes"/>
      <point x="-314" y="731"/>
      <point x="-336" y="708"/>
      <point x="-367" y="708" type="curve" smooth="yes"/>
      <point x="-398" y="708"/>
      <point x="-417" y="730"/>
    </contour>
    <contour>
      <point x="-244" y="763" type="curve" smooth="yes"/>
      <point x="-244" y="705"/>
      <point x="-204" y="663"/>
      <point x="-144" y="663" type="curve" smooth="yes"/>
      <point x="-85" y="663"/>
      <point x="-45" y="704"/>
      <point x="-45" y="763" type="curve" smooth="yes"/>
      <point x="-45" y="821"/>
      <point x="-85" y="862"/>
      <point x="-145" y="862" type="curve" smooth="yes"/>
      <point x="-204" y="862"/>
      <point x="-244" y="822"/>
    </contour>
    <contour>
      <point x="-196" y="762" type="curve" smooth="yes"/>
      <point x="-196" y="795"/>
      <point x="-175" y="817"/>
      <point x="-144" y="817" type="curve" smooth="yes"/>
      <point x="-113" y="817"/>
      <point x="-93" y="796"/>
      <point x="-93" y="764" type="curve" smooth="yes"/>
      <point x="-93" y="731"/>
      <point x="-115" y="708"/>
      <point x="-146" y="708" type="curve" smooth="yes"/>
      <point x="-177" y="708"/>
      <point x="-196" y="730"/>
    </contour>
  </outline>
</glyph>
<glyph name="quotedblleft.gujr" format="2">
  <advance width="500"/>
  <unicode hex="201C"/>
  <outline>
    <contour>
      <point x="90" y="484" type="line"/>
      <point x="187" y="484" type="line"/>
      <point x="197" y="553"/>
      <point x="216" y="649"/>
      <point x="236" y="729" type="curve"/>
      <point x="169" y="729" type="line"/>
      <point x="136" y="656"/>
      <point x="102" y="566"/>
      <point x="83" y="495" type="curve"/>
    </contour>
    <contour>
      <point x="278" y="484" type="line"/>
      <point x="375" y="484" type="line"/>
      <point x="385" y="553"/>
      <point x="404" y="649"/>
      <point x="424" y="729" type="curve"/>
      <point x="357" y="729" type="line"/>
      <point x="324" y="656"/>
      <point x="290" y="566"/>
      <point x="271" y="495" type="curve"/>
    </contour>
  </outline>
</glyph>
<glyph name="minus.gujr" format="2">
  <advance width="551"/>
  <unicode hex="2212"/>
  <outline>
    <contour>
      <point x="50" y="286" type="line"/>
      <point x="501" y="286" type="line"/>
      <point x="501" y="359" type="line"/>
      <point x="50" y="359" type="line"/>
    </contour>
  </outline>
</glyph>
<glyph name="aivowelsignanusvaragujr" format="2">
  <outline>
    <contour>
      <point x="-165" y="641" type="curve"/>
      <point x="-101" y="641" type="line"/>
      <point x="-137" y="839"/>
      <point x="-195" y="896"/>
      <point x="-290" y="896" type="curve" smooth="yes"/>
      <point x="-314" y="896"/>
      <point x="-343" y="893"/>
      <point x="-370" y="884" type="curve"/>
      <point x="-347" y="816" type="line"/>
      <point x="-330" y="823"/>
      <point x="-309" y="826"/>
      <point x="-295" y="826" type="curve" smooth="yes"/>
      <point x="-226" y="826"/>
      <point x="-197" y="783"/>
    </contour>
    <contour>
      <point x="-210" y="624" type="curve"/>
      <point x="-169" y="665" type="line"/>
      <point x="-255" y="749"/>
      <point x="-313" y="781"/>
      <point x="-390" y="781" type="curve" smooth="yes"/>
      <point x="-423" y="781"/>
      <point x="-449" y="776"/>
      <point x="-470" y="770" type="curve"/>
      <point x="-447" y="701" type="line"/>
      <point x="-435" y="706"/>
      <point x="-414" y="711"/>
      <point x="-389" y="711" type="curve" smooth="yes"/>
      <point x="-330" y="711"/>
      <point x="-282" y="687"/>
    </contour>
    <contour>
      <point x="-68" y="748" type="curve" smooth="yes"/>
      <point x="-38" y="748"/>
      <point x="-13" y="774"/>
      <point x="-13" y="806" type="curve" smooth="yes"/>
      <point x="-13" y="838"/>
      <point x="-38" y="864"/>
      <point x="-68" y="864" type="curve" smooth="yes"/>
      <point x="-98" y="864"/>
      <point x="-123" y="838"/>
      <point x="-123" y="806" type="curve" smooth="yes"/>
      <point x="-123" y="774"/>
      <point x="-98" y="748"/>
    </contour>
  </outline>
</glyph>
<glyph name="aivowelsignrephgujr" format="2">
  <outline>
    <contour>
      <point x="-171" y="641" type="curve"/>
      <point x="-107" y="641" type="line"/>
      <point x="-118" y="703"/>
      <point x="-131" y="750"/>
      <point x="-147" y="788" type="curve"/>
      <point x="-173" y="820" type="line"/>
      <point x="-199" y="877"/>
      <point x="-242" y="896"/>
      <point x="-296" y="896" type="curve" smooth="yes"/>
      <point x="-320" y="896"/>
      <point x="-349" y="893"/>
      <point x="-376" y="884" type="curve"/>
      <point x="-353" y="816" type="line"/>
      <point x="-336" y="823"/>
      <point x="-315" y="826"/>
      <point x="-301" y="826" type="curve" smooth="yes"/>
      <point x="-232" y="826"/>
      <point x="-203" y="783"/>
    </contour>
    <contour>
      <point x="-216" y="624" type="curve"/>
      <point x="-175" y="665" type="line"/>
      <point x="-261" y="749"/>
      <point x="-319" y="781"/>
      <point x="-396" y="781" type="curve" smooth="yes"/>
      <point x="-430" y="781"/>
      <point x="-455" y="776"/>
      <point x="-476" y="770" type="curve"/>
      <point x="-453" y="701" type="line"/>
      <point x="-441" y="706"/>
      <point x="-420" y="711"/>
      <point x="-395" y="711" type="curve" smooth="yes"/>
      <point x="-336" y="711"/>
      <point x="-288" y="687"/>
    </contour>
    <contour>
      <point x="-117" y="671" type="line"/>
      <point x="-125" y="695"/>
      <point x="-130" y="719"/>
      <point x="-130" y="742" type="curve" smooth="yes"/>
      <point x="-130" y="792"/>
      <point x="-102" y="829"/>
      <point x="-47" y="829" type="curve" smooth="yes"/>
      <point x="-19" y="829"/>
      <point x="6" y="820"/>
      <point x="29" y="808" type="curve"/>
      <point x="51" y="872" type="line"/>
      <point x="24" y="886"/>
      <point x="-11" y="896"/>
      <point x="-55" y="896" type="curve" smooth="yes"/>
      <point x="-133" y="896"/>
      <point x="-186" y="851"/>
      <point x="-186" y="753" type="curve"/>
    </contour>
  </outline>
</glyph>
<glyph name="badagujr" format="2">
  <advance width="943"/>
  <outline>
    <contour>
      <point x="233" y="151" type="curve" smooth="yes"/>
      <point x="359" y="151"/>
      <point x="417" y="230"/>
      <point x="417" y="335" type="curve" smooth="yes"/>
      <point x="417" y="437" type="line"/>
      <point x="337" y="447" type="line"/>
      <point x="337" y="369" type="line" smooth="yes"/>
      <point x="337" y="308"/>
      <point x="331" y="281"/>
      <point x="314" y="258" type="curve" smooth="yes"/>
      <point x="297" y="235"/>
      <point x="271" y="223"/>
      <point x="234" y="223" type="curve" smooth="yes"/>
      <point x="181" y="223"/>
      <point x="126" y="256"/>
      <point x="126" y="353" type="curve" smooth="yes"/>
      <point x="126" y="430"/>
      <point x="165" y="494"/>
      <point x="282" y="531" type="curve"/>
      <point x="259" y="603" type="line"/>
      <point x="122" y="562"/>
      <point x="44" y="478"/>
      <point x="44" y="354" type="curve" smooth="yes"/>
      <point x="44" y="229"/>
      <point x="123" y="151"/>
    </contour>
    <contour>
      <point x="484" y="228" type="curve" smooth="yes"/>
      <point x="513" y="228"/>
      <point x="539" y="232"/>
      <point x="565" y="242" type="curve"/>
      <point x="549" y="312" type="line"/>
      <point x="527" y="304"/>
      <point x="509" y="300"/>
      <point x="481" y="300" type="curve" smooth="yes"/>
      <point x="442" y="300"/>
      <point x="417" y="314"/>
      <point x="404" y="357" type="curve"/>
      <point x="349" y="333" type="line"/>
      <point x="377" y="251"/>
      <point x="422" y="228"/>
    </contour>
    <contour>
      <point x="774" y="-10" type="curve" smooth="yes"/>
      <point x="866" y="-10"/>
      <point x="949" y="21"/>
      <point x="949" y="90" type="curve" smooth="yes"/>
      <point x="949" y="120"/>
      <point x="929" y="148"/>
      <point x="891" y="148" type="curve" smooth="yes"/>
      <point x="856" y="148"/>
      <point x="833" y="128"/>
      <point x="833" y="94" type="curve" smooth="yes"/>
      <point x="833" y="76"/>
      <point x="837" y="66"/>
      <point x="853" y="47" type="curve"/>
      <point x="854" y="80" type="line"/>
      <point x="835" y="67"/>
      <point x="811" y="63"/>
      <point x="775" y="63" type="curve" smooth="yes"/>
      <point x="690" y="63"/>
      <point x="644" y="101"/>
      <point x="644" y="176" type="curve" smooth="yes"/>
      <point x="644" y="253"/>
      <point x="711" y="286"/>
      <point x="786" y="286" type="curve" smooth="yes"/>
      <point x="807" y="286"/>
      <point x="829" y="284"/>
      <point x="845" y="281" type="curve"/>
      <point x="859" y="353" type="line"/>
      <point x="839" y="356"/>
      <point x="814" y="359"/>
      <point x="784" y="359" type="curve" smooth="yes"/>
      <point x="660" y="359"/>
      <point x="563" y="287"/>
      <point x="563" y="176" type="curve" smooth="yes"/>
      <point x="563" y="67"/>
      <point x="642" y="-10"/>
    </contour>
    <contour>
      <point x="632" y="292" type="curve"/>
      <point x="708" y="333" type="line"/>
      <point x="629" y="366"/>
      <point x="601" y="404"/>
      <point x="601" y="451" type="curve" smooth="yes"/>
      <point x="601" y="494"/>
      <point x="635" y="529"/>
      <point x="720" y="529" type="curve" smooth="yes"/>
      <point x="751" y="529"/>
      <point x="784" y="523"/>
      <point x="805" y="518" type="curve"/>
      <point x="819" y="589" type="line"/>
      <point x="795" y="596"/>
      <point x="746" y="603"/>
      <point x="709" y="603" type="curve" smooth="yes"/>
      <point x="576" y="603"/>
      <point x="520" y="532"/>
      <point x="520" y="457" type="curve" smooth="yes"/>
      <point x="520" y="379"/>
      <point x="569" y="330"/>
    </contour>
  </outline>
</glyph>
<glyph name="baprehalfgujr" format="2">
  <advance width="549"/>
  <outline>
    <contour>
      <point x="233" y="151" type="curve" smooth="yes"/>
      <point x="359" y="151"/>
      <point x="417" y="230"/>
      <point x="417" y="335" type="curve" smooth="yes"/>
      <point x="417" y="437" type="line"/>
      <point x="337" y="447" type="line"/>
      <point x="337" y="369" type="line" smooth="yes"/>
      <point x="337" y="308"/>
      <point x="331" y="281"/>
      <point x="314" y="258" type="curve" smooth="yes"/>
      <point x="297" y="235"/>
      <point x="271" y="223"/>
      <point x="234" y="223" type="curve" smooth="yes"/>
      <point x="181" y="223"/>
      <point x="126" y="256"/>
      <point x="126" y="353" type="curve" smooth="yes"/>
      <point x="126" y="430"/>
      <point x="165" y="494"/>
      <point x="282" y="531" type="curve"/>
      <point x="259" y="603" type="line"/>
      <point x="122" y="562"/>
      <point x="44" y="478"/>
      <point x="44" y="354" type="curve" smooth="yes"/>
      <point x="44" y="229"/>
      <point x="123" y="151"/>
    </contour>
    <contour>
      <point x="475" y="228" type="curve" smooth="yes"/>
      <point x="522" y="228"/>
      <point x="545" y="239"/>
      <point x="574" y="259" type="curve"/>
      <point x="545" y="326" type="line"/>
      <point x="527" y="311"/>
      <point x="506" y="300"/>
      <point x="475" y="300" type="curve" smooth="yes"/>
      <point x="442" y="300"/>
      <point x="417" y="314"/>
      <point x="404" y="357" type="curve"/>
      <point x="349" y="333" type="line"/>
      <point x="377" y="251"/>
      <point x="422" y="228"/>
    </contour>
  </outline>
</glyph>
<glyph name="baraprehalfgujr" format="2">
  <advance width="549"/>
  <outline>
    <contour>
      <point x="233" y="151" type="curve" smooth="yes"/>
      <point x="359" y="151"/>
      <point x="417" y="230"/>
      <point x="417" y="335" type="curve" smooth="yes"/>
      <point x="417" y="437" type="line"/>
      <point x="337" y="447" type="line"/>
      <point x="337" y="369" type="line" smooth="yes"/>
      <point x="337" y="308"/>
      <point x="331" y="281"/>
      <point x="314" y="258" type="curve" smooth="yes"/>
      <point x="297" y="235"/>
      <point x="271" y="223"/>
      <point x="234" y="223" type="curve" smooth="yes"/>
      <point x="181" y="223"/>
      <point x="126" y="256"/>
      <point x="126" y="353" type="curve" smooth="yes"/>
      <point x="126" y="430"/>
      <point x="165" y="494"/>
      <point x="282" y="531" type="curve"/>
      <point x="259" y="603" type="line"/>
      <point x="122" y="562"/>
      <point x="44" y="478"/>
      <point x="44" y="354" type="curve" smooth="yes"/>
      <point x="44" y="229"/>
      <point x="123" y="151"/>
    </contour>
    <contour>
      <point x="337" y="-8" type="line"/>
      <point x="560" y="135" type="line"/>
      <point x="560" y="220" type="line"/>
      <point x="289" y="60" type="line"/>
    </contour>
    <contour>
      <point x="475" y="266" type="curve" smooth="yes"/>
      <point x="521" y="266"/>
      <point x="542" y="275"/>
      <point x="574" y="297" type="curve"/>
      <point x="545" y="364" type="line"/>
      <point x="527" y="349"/>
      <point x="506" y="338"/>
      <point x="475" y="338" type="curve" smooth="yes"/>
      <point x="442" y="338"/>
      <point x="417" y="352"/>
      <point x="404" y="395" type="curve"/>
      <point x="349" y="371" type="line"/>
      <point x="377" y="289"/>
      <point x="422" y="266"/>
    </contour>
  </outline>
</glyph>
<glyph name="barastemgujr" format="2">
  <advance width="734"/>
  <outline>
    <contour>
      <point x="233" y="151" type="curve" smooth="yes"/>
      <point x="359" y="151"/>
      <point x="417" y="230"/>
      <point x="417" y="335" type="curve" smooth="yes"/>
      <point x="417" y="437" type="line"/>
      <point x="337" y="447" type="line"/>
      <point x="337" y="369" type="line" smooth="yes"/>
      <point x="337" y="308"/>
      <point x="331" y="281"/>
      <point x="314" y="258" type="curve" smooth="yes"/>
      <point x="297" y="235"/>
      <point x="271" y="223"/>
      <point x="234" y="223" type="curve" smooth="yes"/>
      <point x="181" y="223"/>
      <point x="126" y="256"/>
      <point x="126" y="353" type="curve" smooth="yes"/>
      <point x="126" y="430"/>
      <point x="165" y="494"/>
      <point x="282" y="531" type="curve"/>
      <point x="259" y="603" type="line"/>
      <point x="122" y="562"/>
      <point x="44" y="478"/>
      <point x="44" y="354" type="curve" smooth="yes"/>
      <point x="44" y="229"/>
      <point x="123" y="151"/>
    </contour>
    <contour>
      <point x="337" y="-8" type="line"/>
      <point x="619" y="177" type="line"/>
      <point x="582" y="231" type="line"/>
      <point x="562" y="219" type="line"/>
      <point x="289" y="60" type="line"/>
    </contour>
    <contour>
      <point x="475" y="267" type="curve" smooth="yes"/>
      <point x="535" y="267"/>
      <point x="567" y="290"/>
      <point x="602" y="330" type="curve"/>
      <point x="585" y="410" type="line"/>
      <point x="555" y="365"/>
      <point x="523" y="339"/>
      <point x="475" y="339" type="curve" smooth="yes"/>
      <point x="442" y="339"/>
      <point x="417" y="353"/>
      <point x="404" y="396" type="curve"/>
      <point x="349" y="372" type="line"/>
      <point x="377" y="290"/>
      <point x="422" y="267"/>
    </contour>
    <contour>
      <point x="560" y="-43" type="line"/>
      <point x="640" y="-43" type="line"/>
      <point x="640" y="592" type="line"/>
      <point x="560" y="603" type="line"/>
    </contour>
  </outline>
</glyph>
<glyph name="bastemgujr" format="2">
  <advance width="734"/>
  <outline>
    <contour>
      <point x="233" y="151" type="curve" smooth="yes"/>
      <point x="359" y="151"/>
      <point x="417" y="230"/>
      <point x="417" y="335" type="curve" smooth="yes"/>
      <point x="417" y="437" type="line"/>
      <point x="337" y="447" type="line"/>
      <point x="337" y="369" type="line" smooth="yes"/>
      <point x="337" y="308"/>
      <point x="331" y="281"/>
      <point x="314" y="258" type="curve" smooth="yes"/>
      <point x="297" y="235"/>
      <point x="271" y="223"/>
      <point x="234" y="223" type="curve" smooth="yes"/>
      <point x="181" y="223"/>
      <point x="126" y="256"/>
      <point x="126" y="353" type="curve" smooth="yes"/>
      <point x="126" y="430"/>
      <point x="165" y="494"/>
      <point x="282" y="531" type="curve"/>
      <point x="259" y="603" type="line"/>
      <point x="122" y="562"/>
      <point x="44" y="478"/>
      <point x="44" y="354" type="curve" smooth="yes"/>
      <point x="44" y="229"/>
      <point x="123" y="151"/>
    </contour>
    <contour>
      <point x="475" y="228" type="curve" smooth="yes"/>
      <point x="535" y="228"/>
      <point x="567" y="251"/>
      <point x="602" y="291" type="curve"/>
      <point x="585" y="371" type="line"/>
      <point x="555" y="326"/>
      <point x="523" y="300"/>
      <point x="475" y="300" type="curve" smooth="yes"/>
      <point x="442" y="300"/>
      <point x="417" y="314"/>
      <point x="404" y="357" type="curve"/>
      <point x="349" y="333" type="line"/>
      <point x="377" y="251"/>
      <point x="422" y="228"/>
    </contour>
    <contour>
      <point x="560" y="-43" type="line"/>
      <point x="640" y="-43" type="line"/>
      <point x="640" y="592" type="line"/>
      <point x="560" y="603" type="line"/>
    </contour>
  </outline>
</glyph>
<glyph name="bharagujr" format="2">
  <advance width="809"/>
  <outline>
    <contour>
      <point x="234" y="48" type="curve"/>
      <point x="290" y="102" type="line"/>
      <point x="199" y="182"/>
      <point x="126" y="262"/>
      <point x="126" y="382" type="curve" smooth="yes"/>
      <point x="126" y="456"/>
      <point x="162" y="530"/>
      <point x="255" y="530" type="curve" smooth="yes"/>
      <point x="296" y="530"/>
      <point x="323" y="517"/>
      <point x="341" y="494" type="curve" smooth="yes"/>
      <point x="361" y="468"/>
      <point x="369" y="431"/>
      <point x="369" y="372" type="curve" smooth="yes"/>
      <point x="369" y="339" type="line"/>
      <point x="449" y="339" type="line"/>
      <point x="449" y="377" type="line" smooth="yes"/>
      <point x="449" y="469"/>
      <point x="428" y="520"/>
      <point x="389" y="556" type="curve" smooth="yes"/>
      <point x="356" y="586"/>
      <point x="313" y="603"/>
      <point x="255" y="603" type="curve" smooth="yes"/>
      <point x="130" y="603"/>
      <point x="45" y="515"/>
      <point x="45" y="384" type="curve" smooth="yes"/>
      <point x="45" y="242"/>
      <point x="126" y="144"/>
    </contour>
    <contour>
      <point x="411" y="-8" type="line"/>
      <point x="693" y="177" type="line"/>
      <point x="654" y="232" type="line"/>
      <point x="634" y="220" type="line"/>
      <point x="363" y="60" type="line"/>
    </contour>
    <contour>
      <point x="403" y="201" type="curve" smooth="yes"/>
      <point x="427" y="201"/>
      <point x="449" y="219"/>
      <point x="449" y="263" type="curve" smooth="yes"/>
      <point x="449" y="293" type="line"/>
      <point x="660" y="293" type="line"/>
      <point x="660" y="365" type="line"/>
      <point x="345" y="365" type="line" smooth="yes"/>
      <point x="305" y="365"/>
      <point x="289" y="346"/>
      <point x="289" y="323" type="curve" smooth="yes"/>
      <point x="289" y="272"/>
      <point x="351" y="201"/>
    </contour>
    <contour>
      <point x="783" y="0" type="curve" smooth="yes"/>
      <point x="793" y="0" type="line"/>
      <point x="801" y="73" type="line"/>
      <point x="767" y="73"/>
      <point x="744" y="73"/>
      <point x="729" y="90" type="curve" smooth="yes"/>
      <point x="717" y="103"/>
      <point x="714" y="114"/>
      <point x="714" y="152" type="curve" smooth="yes"/>
      <point x="714" y="592" type="line"/>
      <point x="634" y="602" type="line"/>
      <point x="634" y="148" type="line" smooth="yes"/>
      <point x="634" y="89"/>
      <point x="643" y="60"/>
      <point x="666" y="37" type="curve" smooth="yes"/>
      <point x="690" y="13"/>
      <point x="725" y="0"/>
    </contour>
  </outline>
</glyph>
<glyph name="bharastemgujr" format="2">
  <advance width="809"/>
  <outline>
    <contour>
      <point x="234" y="48" type="curve"/>
      <point x="290" y="102" type="line"/>
      <point x="199" y="182"/>
      <point x="126" y="262"/>
      <point x="126" y="382" type="curve" smooth="yes"/>
      <point x="126" y="456"/>
      <point x="162" y="530"/>
      <point x="255" y="530" type="curve" smooth="yes"/>
      <point x="296" y="530"/>
      <point x="323" y="517"/>
      <point x="341" y="494" type="curve" smooth="yes"/>
      <point x="361" y="468"/>
      <point x="369" y="431"/>
      <point x="369" y="372" type="curve" smooth="yes"/>
      <point x="369" y="339" type="line"/>
      <point x="449" y="339" type="line"/>
      <point x="449" y="377" type="line" smooth="yes"/>
      <point x="449" y="469"/>
      <point x="428" y="520"/>
      <point x="389" y="556" type="curve" smooth="yes"/>
      <point x="356" y="586"/>
      <point x="313" y="603"/>
      <point x="255" y="603" type="curve" smooth="yes"/>
      <point x="130" y="603"/>
      <point x="45" y="515"/>
      <point x="45" y="384" type="curve" smooth="yes"/>
      <point x="45" y="242"/>
      <point x="126" y="144"/>
    </contour>
    <contour>
      <point x="411" y="-8" type="line"/>
      <point x="693" y="177" type="line"/>
      <point x="654" y="232" type="line"/>
      <point x="634" y="220" type="line"/>
      <point x="363" y="60" type="line"/>
    </contour>
    <contour>
      <point x="403" y="201" type="curve" smooth="yes"/>
      <point x="427" y="201"/>
      <point x="449" y="219"/>
      <point x="449" y="263" type="curve" smooth="yes"/>
      <point x="449" y="293" type="line"/>
      <point x="660" y="293" type="line"/>
      <point x="660" y="365" type="line"/>
      <point x="345" y="365" type="line" smooth="yes"/>
      <point x="305" y="365"/>
      <point x="289" y="346"/>
      <point x="289" y="323" type="curve" smooth="yes"/>
      <point x="289" y="272"/>
      <point x="353" y="201"/>
    </contour>
    <contour>
      <point x="634" y="-43" type="line"/>
      <point x="714" y="-43" type="line"/>
      <point x="714" y="592" type="line"/>
      <point x="634" y="603" type="line"/>
    </contour>
  </outline>
</glyph>
<glyph name="caprehalfgujr" format="2">
  <advance width="469"/>
  <outline>
    <contour>
      <point x="326" y="131" type="curve" smooth="yes"/>
      <point x="410" y="131"/>
      <point x="457" y="157"/>
      <point x="511" y="198" type="curve"/>
      <point x="470" y="263" type="line"/>
      <point x="431" y="227"/>
      <point x="390" y="203"/>
      <point x="323" y="203" type="curve" smooth="yes"/>
      <point x="263" y="203"/>
      <point x="233" y="224"/>
      <point x="201" y="257" type="curve"/>
      <point x="187" y="295" type="line"/>
      <point x="158" y="328"/>
      <point x="135" y="346"/>
      <point x="94" y="346" type="curve" smooth="yes"/>
      <point x="54" y="346"/>
      <point x="35" y="322"/>
      <point x="35" y="299" type="curve" smooth="yes"/>
      <point x="35" y="258"/>
      <point x="65" y="237"/>
      <point x="117" y="237" type="curve" smooth="yes"/>
      <point x="245" y="237"/>
      <point x="352" y="317"/>
      <point x="352" y="428" type="curve" smooth="yes"/>
      <point x="352" y="539"/>
      <point x="282" y="603"/>
      <point x="161" y="603" type="curve" smooth="yes"/>
      <point x="113" y="603"/>
      <point x="63" y="590"/>
      <point x="31" y="576" type="curve"/>
      <point x="58" y="508" type="line"/>
      <point x="89" y="522"/>
      <point x="129" y="530"/>
      <point x="158" y="530" type="curve" smooth="yes"/>
      <point x="236" y="530"/>
      <point x="272" y="494"/>
      <point x="272" y="430" type="curve" smooth="yes"/>
      <point x="272" y="363"/>
      <point x="213" y="314"/>
      <point x="138" y="303" type="curve"/>
      <point x="129" y="298" type="line"/>
      <point x="119" y="245" type="line"/>
      <point x="168" y="167"/>
      <point x="245" y="131"/>
    </contour>
  </outline>
</glyph>
<glyph name="carastemgujr" format="2">
  <advance width="661"/>
  <outline>
    <contour>
      <point x="318" y="138" type="curve" smooth="yes"/>
      <point x="399" y="138"/>
      <point x="447" y="161"/>
      <point x="487" y="191" type="curve"/>
      <point x="487" y="279" type="line"/>
      <point x="449" y="241"/>
      <point x="407" y="203"/>
      <point x="323" y="203" type="curve" smooth="yes"/>
      <point x="263" y="203"/>
      <point x="233" y="224"/>
      <point x="201" y="257" type="curve"/>
      <point x="187" y="295" type="line"/>
      <point x="158" y="328"/>
      <point x="135" y="346"/>
      <point x="94" y="346" type="curve" smooth="yes"/>
      <point x="54" y="346"/>
      <point x="35" y="322"/>
      <point x="35" y="297" type="curve" smooth="yes"/>
      <point x="35" y="258"/>
      <point x="65" y="237"/>
      <point x="117" y="237" type="curve" smooth="yes"/>
      <point x="245" y="237"/>
      <point x="352" y="317"/>
      <point x="352" y="428" type="curve" smooth="yes"/>
      <point x="352" y="539"/>
      <point x="282" y="603"/>
      <point x="161" y="603" type="curve" smooth="yes"/>
      <point x="113" y="603"/>
      <point x="63" y="590"/>
      <point x="31" y="576" type="curve"/>
      <point x="58" y="508" type="line"/>
      <point x="89" y="522"/>
      <point x="129" y="530"/>
      <point x="158" y="530" type="curve" smooth="yes"/>
      <point x="236" y="530"/>
      <point x="272" y="494"/>
      <point x="272" y="430" type="curve" smooth="yes"/>
      <point x="272" y="363"/>
      <point x="213" y="314"/>
      <point x="138" y="303" type="curve"/>
      <point x="129" y="298" type="line"/>
      <point x="119" y="245" type="line"/>
      <point x="168" y="167"/>
      <point x="238" y="138"/>
    </contour>
    <contour>
      <point x="176" y="-21" type="line"/>
      <point x="506" y="200" type="line"/>
      <point x="418" y="221" type="line"/>
      <point x="396" y="194" type="line"/>
      <point x="125" y="48" type="line"/>
    </contour>
    <contour>
      <point x="487" y="-43" type="line"/>
      <point x="566" y="-43" type="line"/>
      <point x="566" y="592" type="line"/>
      <point x="486" y="603" type="line"/>
    </contour>
  </outline>
</glyph>
<glyph name="castemgujr" format="2">
  <advance width="660"/>
  <outline>
    <contour>
      <point x="326" y="131" type="curve" smooth="yes"/>
      <point x="407" y="131"/>
      <point x="455" y="157"/>
      <point x="495" y="191" type="curve"/>
      <point x="495" y="288" type="line"/>
      <point x="455" y="245"/>
      <point x="411" y="203"/>
      <point x="323" y="203" type="curve" smooth="yes"/>
      <point x="263" y="203"/>
      <point x="233" y="224"/>
      <point x="201" y="257" type="curve"/>
      <point x="187" y="295" type="line"/>
      <point x="158" y="328"/>
      <point x="135" y="346"/>
      <point x="94" y="346" type="curve" smooth="yes"/>
      <point x="54" y="346"/>
      <point x="35" y="322"/>
      <point x="35" y="297" type="curve" smooth="yes"/>
      <point x="35" y="258"/>
      <point x="65" y="237"/>
      <point x="117" y="237" type="curve" smooth="yes"/>
      <point x="245" y="237"/>
      <point x="352" y="317"/>
      <point x="352" y="428" type="curve" smooth="yes"/>
      <point x="352" y="539"/>
      <point x="282" y="603"/>
      <point x="161" y="603" type="curve" smooth="yes"/>
      <point x="113" y="603"/>
      <point x="63" y="590"/>
      <point x="31" y="576" type="curve"/>
      <point x="58" y="508" type="line"/>
      <point x="89" y="522"/>
      <point x="129" y="530"/>
      <point x="158" y="530" type="curve" smooth="yes"/>
      <point x="236" y="530"/>
      <point x="272" y="494"/>
      <point x="272" y="430" type="curve" smooth="yes"/>
      <point x="272" y="363"/>
      <point x="213" y="314"/>
      <point x="138" y="303" type="curve"/>
      <point x="129" y="298" type="line"/>
      <point x="119" y="245" type="line"/>
      <point x="168" y="167"/>
      <point x="245" y="131"/>
    </contour>
    <contour>
      <point x="487" y="-43" type="line"/>
      <point x="566" y="-43" type="line"/>
      <point x="566" y="592" type="line"/>
      <point x="486" y="603" type="line"/>
    </contour>
  </outline>
</glyph>
<glyph name="chasquishgujr" format="2">
  <advance width="727"/>
  <outline>
    <contour>
      <point x="318" y="118" type="curve" smooth="yes"/>
      <point x="575" y="118"/>
      <point x="690" y="275"/>
      <point x="690" y="417" type="curve" smooth="yes"/>
      <point x="690" y="551"/>
      <point x="610" y="603"/>
      <point x="522" y="603" type="curve" smooth="yes"/>
      <point x="425" y="603"/>
      <point x="376" y="545"/>
      <point x="376" y="479" type="curve" smooth="yes"/>
      <point x="376" y="386"/>
      <point x="450" y="338"/>
      <point x="557" y="316" type="curve"/>
      <point x="580" y="385" type="line"/>
      <point x="473" y="406"/>
      <point x="456" y="449"/>
      <point x="456" y="479" type="curve" smooth="yes"/>
      <point x="456" y="508"/>
      <point x="479" y="531"/>
      <point x="521" y="531" type="curve" smooth="yes"/>
      <point x="556" y="531"/>
      <point x="609" y="514"/>
      <point x="609" y="424" type="curve" smooth="yes"/>
      <point x="609" y="310"/>
      <point x="521" y="191"/>
      <point x="316" y="191" type="curve" smooth="yes"/>
      <point x="217" y="191"/>
      <point x="168" y="217"/>
      <point x="168" y="267" type="curve" smooth="yes"/>
      <point x="168" y="318"/>
      <point x="211" y="341"/>
      <point x="275" y="341" type="curve" smooth="yes"/>
      <point x="287" y="341"/>
      <point x="302" y="341"/>
      <point x="317" y="340" type="curve"/>
      <point x="326" y="412" type="line"/>
      <point x="313" y="413"/>
      <point x="292" y="414"/>
      <point x="276" y="414" type="curve" smooth="yes"/>
      <point x="156" y="414"/>
      <point x="88" y="349"/>
      <point x="88" y="271" type="curve" smooth="yes"/>
      <point x="88" y="182"/>
      <point x="160" y="118"/>
    </contour>
    <contour>
      <point x="166" y="323" type="curve"/>
      <point x="220" y="374" type="line"/>
      <point x="150" y="400"/>
      <point x="125" y="431"/>
      <point x="125" y="470" type="curve" smooth="yes"/>
      <point x="125" y="506"/>
      <point x="153" y="530"/>
      <point x="219" y="530" type="curve" smooth="yes"/>
      <point x="242" y="530"/>
      <point x="270" y="526"/>
      <point x="290" y="521" type="curve"/>
      <point x="304" y="592" type="line"/>
      <point x="278" y="599"/>
      <point x="238" y="603"/>
      <point x="210" y="603" type="curve" smooth="yes"/>
      <point x="100" y="603"/>
      <point x="44" y="544"/>
      <point x="44" y="478" type="curve" smooth="yes"/>
      <point x="44" y="400"/>
      <point x="101" y="357"/>
    </contour>
  </outline>
</glyph>
<glyph name="chavagujr" format="2">
  <advance width="731"/>
  <outline>
    <contour>
      <point x="318" y="67" type="curve" smooth="yes"/>
      <point x="573" y="67"/>
      <point x="694" y="245"/>
      <point x="694" y="399" type="curve" smooth="yes"/>
      <point x="694" y="549"/>
      <point x="610" y="603"/>
      <point x="522" y="603" type="curve" smooth="yes"/>
      <point x="425" y="603"/>
      <point x="376" y="541"/>
      <point x="376" y="470" type="curve" smooth="yes"/>
      <point x="376" y="366"/>
      <point x="465" y="318"/>
      <point x="563" y="296" type="curve"/>
      <point x="586" y="366" type="line"/>
      <point x="479" y="388"/>
      <point x="456" y="430"/>
      <point x="456" y="472" type="curve" smooth="yes"/>
      <point x="456" y="503"/>
      <point x="479" y="531"/>
      <point x="524" y="531" type="curve" smooth="yes"/>
      <point x="560" y="531"/>
      <point x="613" y="512"/>
      <point x="613" y="404" type="curve" smooth="yes"/>
      <point x="613" y="284"/>
      <point x="523" y="140"/>
      <point x="316" y="140" type="curve" smooth="yes"/>
      <point x="217" y="140"/>
      <point x="168" y="171"/>
      <point x="168" y="231" type="curve" smooth="yes"/>
      <point x="168" y="292"/>
      <point x="218" y="319"/>
      <point x="285" y="319" type="curve" smooth="yes"/>
      <point x="298" y="319"/>
      <point x="313" y="318"/>
      <point x="322" y="317" type="curve"/>
      <point x="331" y="390" type="line"/>
      <point x="318" y="391"/>
      <point x="299" y="392"/>
      <point x="285" y="392" type="curve" smooth="yes"/>
      <point x="158" y="392"/>
      <point x="88" y="320"/>
      <point x="88" y="234" type="curve" smooth="yes"/>
      <point x="88" y="137"/>
      <point x="164" y="67"/>
    </contour>
    <contour>
      <point x="166" y="308" type="curve"/>
      <point x="220" y="360" type="line"/>
      <point x="150" y="389"/>
      <point x="125" y="421"/>
      <point x="125" y="464" type="curve" smooth="yes"/>
      <point x="125" y="503"/>
      <point x="155" y="530"/>
      <point x="219" y="530" type="curve" smooth="yes"/>
      <point x="242" y="530"/>
      <point x="270" y="525"/>
      <point x="290" y="521" type="curve"/>
      <point x="304" y="592" type="line"/>
      <point x="278" y="599"/>
      <point x="238" y="603"/>
      <point x="210" y="603" type="curve" smooth="yes"/>
      <point x="101" y="603"/>
      <point x="44" y="542"/>
      <point x="44" y="471" type="curve" smooth="yes"/>
      <point x="44" y="390"/>
      <point x="100" y="344"/>
    </contour>
    <contour>
      <point x="389" y="-219" type="curve" smooth="yes"/>
      <point x="461" y="-219"/>
      <point x="506" y="-189"/>
      <point x="537" y="-164" type="curve"/>
      <point x="507" y="-100" type="line"/>
      <point x="477" y="-132"/>
      <point x="439" y="-153"/>
      <point x="390" y="-153" type="curve" smooth="yes"/>
      <point x="343" y="-153"/>
      <point x="309" y="-134"/>
      <point x="309" y="-88" type="curve" smooth="yes"/>
      <point x="309" y="-49"/>
      <point x="338" y="-26"/>
      <point x="396" y="-26" type="curve" smooth="yes"/>
      <point x="418" y="-26"/>
      <point x="440" y="-30"/>
      <point x="459" y="-36" type="curve"/>
      <point x="465" y="29" type="line"/>
      <point x="448" y="35"/>
      <point x="417" y="40"/>
      <point x="387" y="40" type="curve" smooth="yes"/>
      <point x="294" y="40"/>
      <point x="234" y="-13"/>
      <point x="234" y="-87" type="curve" smooth="yes"/>
      <point x="234" y="-168"/>
      <point x="294" y="-219"/>
    </contour>
    <contour>
      <point x="642" y="-268" type="curve" smooth="yes"/>
      <point x="651" y="-268" type="line"/>
      <point x="659" y="-197" type="line"/>
      <point x="632" y="-197"/>
      <point x="601" y="-196"/>
      <point x="588" y="-178" type="curve" smooth="yes"/>
      <point x="580" y="-167"/>
      <point x="577" y="-154"/>
      <point x="577" y="-118" type="curve" smooth="yes"/>
      <point x="577" y="188" type="line"/>
      <point x="503" y="125" type="line"/>
      <point x="503" y="-119" type="line" smooth="yes"/>
      <point x="503" y="-179"/>
      <point x="510" y="-208"/>
      <point x="531" y="-231" type="curve" smooth="yes"/>
      <point x="553" y="-255"/>
      <point x="587" y="-268"/>
    </contour>
  </outline>
</glyph>
<glyph name="chayastemgujr" format="2">
  <advance width="1312"/>
  <outline>
    <contour>
      <point x="318" y="-10" type="curve" smooth="yes"/>
      <point x="575" y="-10"/>
      <point x="701" y="187"/>
      <point x="701" y="375" type="curve" smooth="yes"/>
      <point x="701" y="547"/>
      <point x="611" y="603"/>
      <point x="528" y="603" type="curve" smooth="yes"/>
      <point x="425" y="603"/>
      <point x="376" y="536"/>
      <point x="376" y="461" type="curve" smooth="yes"/>
      <point x="376" y="344"/>
      <point x="473" y="297"/>
      <point x="571" y="267" type="curve"/>
      <point x="596" y="338" type="line"/>
      <point x="494" y="362"/>
      <point x="455" y="401"/>
      <point x="455" y="455" type="curve" smooth="yes"/>
      <point x="455" y="496"/>
      <point x="478" y="530"/>
      <point x="526" y="530" type="curve" smooth="yes"/>
      <point x="563" y="530"/>
      <point x="619" y="508"/>
      <point x="619" y="382" type="curve" smooth="yes"/>
      <point x="619" y="244"/>
      <point x="527" y="64"/>
      <point x="316" y="64" type="curve" smooth="yes"/>
      <point x="217" y="64"/>
      <point x="168" y="103"/>
      <point x="168" y="177" type="curve" smooth="yes"/>
      <point x="168" y="253"/>
      <point x="229" y="286"/>
      <point x="300" y="286" type="curve" smooth="yes"/>
      <point x="310" y="286"/>
      <point x="319" y="286"/>
      <point x="329" y="285" type="curve"/>
      <point x="338" y="357" type="line"/>
      <point x="325" y="358"/>
      <point x="311" y="359"/>
      <point x="299" y="359" type="curve" smooth="yes"/>
      <point x="164" y="359"/>
      <point x="88" y="278"/>
      <point x="88" y="176" type="curve" smooth="yes"/>
      <point x="88" y="67"/>
      <point x="162" y="-10"/>
    </contour>
    <contour>
      <point x="166" y="286" type="curve"/>
      <point x="220" y="338" type="line"/>
      <point x="150" y="371"/>
      <point x="125" y="407"/>
      <point x="125" y="456" type="curve" smooth="yes"/>
      <point x="125" y="499"/>
      <point x="157" y="529"/>
      <point x="219" y="529" type="curve" smooth="yes"/>
      <point x="248" y="529"/>
      <point x="270" y="525"/>
      <point x="290" y="520" type="curve"/>
      <point x="304" y="592" type="line"/>
      <point x="278" y="599"/>
      <point x="244" y="603"/>
      <point x="210" y="603" type="curve" smooth="yes"/>
      <point x="102" y="603"/>
      <point x="44" y="537"/>
      <point x="44" y="461" type="curve" smooth="yes"/>
      <point x="44" y="375"/>
      <point x="98" y="324"/>
    </contour>
    <contour>
      <point x="989" y="122" type="curve" smooth="yes"/>
      <point x="1058" y="122"/>
      <point x="1101" y="142"/>
      <point x="1138" y="169" type="curve"/>
      <point x="1163" y="216" type="line"/>
      <point x="1139" y="261" type="line"/>
      <point x="1105" y="225"/>
      <point x="1056" y="194"/>
      <point x="986" y="194" type="curve" smooth="yes"/>
      <point x="922" y="194"/>
      <point x="876" y="228"/>
      <point x="859" y="265" type="curve"/>
      <point x="844" y="244" type="line"/>
      <point x="921" y="273"/>
      <point x="973" y="322"/>
      <point x="973" y="396" type="curve" smooth="yes"/>
      <point x="973" y="442"/>
      <point x="958" y="474"/>
      <point x="927" y="497" type="curve" smooth="yes"/>
      <point x="899" y="518"/>
      <point x="866" y="531"/>
      <point x="777" y="531" type="curve" smooth="yes"/>
      <point x="656" y="531" type="line"/>
      <point x="656" y="459" type="line"/>
      <point x="772" y="459" type="line" smooth="yes"/>
      <point x="826" y="459"/>
      <point x="852" y="456"/>
      <point x="871" y="441" type="curve" smooth="yes"/>
      <point x="884" y="431"/>
      <point x="892" y="416"/>
      <point x="892" y="392" type="curve" smooth="yes"/>
      <point x="892" y="337"/>
      <point x="840" y="305"/>
      <point x="761" y="284" type="curve"/>
      <point x="800" y="184"/>
      <point x="875" y="122"/>
    </contour>
    <contour>
      <point x="1137" y="-43" type="line"/>
      <point x="1217" y="-43" type="line"/>
      <point x="1217" y="592" type="line"/>
      <point x="1137" y="603" type="line"/>
    </contour>
  </outline>
</glyph>
<glyph name="dabagujr" format="2">
  <advance width="639"/>
  <outline>
    <contour>
      <point x="395" y="46" type="curve" smooth="yes"/>
      <point x="478" y="46"/>
      <point x="605" y="64"/>
      <point x="605" y="147" type="curve" smooth="yes"/>
      <point x="605" y="182"/>
      <point x="584" y="209"/>
      <point x="542" y="209" type="curve" smooth="yes"/>
      <point x="505" y="209"/>
      <point x="480" y="187"/>
      <point x="480" y="153" type="curve" smooth="yes"/>
      <point x="480" y="138"/>
      <point x="483" y="123"/>
      <point x="488" y="117" type="curve"/>
      <point x="542" y="153" type="line"/>
      <point x="500" y="128"/>
      <point x="456" y="117"/>
      <point x="401" y="117" type="curve" smooth="yes"/>
      <point x="320" y="117"/>
      <point x="275" y="155"/>
      <point x="275" y="214" type="curve" smooth="yes"/>
      <point x="275" y="275"/>
      <point x="318" y="302"/>
      <point x="407" y="348" type="curve" smooth="yes"/>
      <point x="513" y="403"/>
      <point x="554" y="439"/>
      <point x="554" y="504" type="curve" smooth="yes"/>
      <point x="554" y="544"/>
      <point x="538" y="575"/>
      <point x="513" y="603" type="curve"/>
      <point x="447" y="564" type="line"/>
      <point x="460" y="550"/>
      <point x="471" y="531"/>
      <point x="471" y="513" type="curve" smooth="yes"/>
      <point x="471" y="475"/>
      <point x="451" y="460"/>
      <point x="345" y="404" type="curve" smooth="yes"/>
      <point x="252" y="355"/>
      <point x="193" y="307"/>
      <point x="193" y="215" type="curve" smooth="yes"/>
      <point x="193" y="119"/>
      <point x="271" y="46"/>
    </contour>
    <contour>
      <point x="614" y="-90" type="line"/>
      <point x="676" y="-54" type="line"/>
      <point x="554" y="128" type="line"/>
      <point x="499" y="92" type="line"/>
    </contour>
    <contour>
      <point x="219" y="-129" type="curve" smooth="yes"/>
      <point x="355" y="-129"/>
      <point x="460" y="-49"/>
      <point x="524" y="71" type="curve"/>
      <point x="439" y="76" type="line"/>
      <point x="388" y="7"/>
      <point x="334" y="-57"/>
      <point x="219" y="-57" type="curve" smooth="yes"/>
      <point x="152" y="-57"/>
      <point x="104" y="-26"/>
      <point x="104" y="35" type="curve" smooth="yes"/>
      <point x="104" y="97"/>
      <point x="155" y="140"/>
      <point x="233" y="147" type="curve"/>
      <point x="233" y="219" type="line"/>
      <point x="114" y="208"/>
      <point x="24" y="136"/>
      <point x="24" y="38" type="curve" smooth="yes"/>
      <point x="24" y="-63"/>
      <point x="103" y="-129"/>
    </contour>
    <contour>
      <point x="318" y="-93" type="line"/>
      <point x="357" y="-49" type="line"/>
      <point x="159" y="128" type="line"/>
      <point x="105" y="98" type="line"/>
    </contour>
  </outline>
</glyph>
<glyph name="dabhagujr" format="2">
  <advance width="581"/>
  <outline>
    <contour>
      <point x="351" y="90" type="curve" smooth="yes"/>
      <point x="423" y="90"/>
      <point x="548" y="112"/>
      <point x="548" y="192" type="curve" smooth="yes"/>
      <point x="548" y="227"/>
      <point x="527" y="254"/>
      <point x="485" y="254" type="curve" smooth="yes"/>
      <point x="448" y="254"/>
      <point x="423" y="231"/>
      <point x="423" y="198" type="curve" smooth="yes"/>
      <point x="423" y="183"/>
      <point x="426" y="167"/>
      <point x="430" y="162" type="curve"/>
      <point x="486" y="197" type="line"/>
      <point x="444" y="174"/>
      <point x="399" y="162"/>
      <point x="346" y="162" type="curve" smooth="yes"/>
      <point x="263" y="162"/>
      <point x="219" y="195"/>
      <point x="219" y="243" type="curve" smooth="yes"/>
      <point x="219" y="295"/>
      <point x="253" y="317"/>
      <point x="350" y="361" type="curve" smooth="yes"/>
      <point x="446" y="404"/>
      <point x="497" y="440"/>
      <point x="497" y="504" type="curve" smooth="yes"/>
      <point x="497" y="544"/>
      <point x="481" y="575"/>
      <point x="457" y="603" type="curve"/>
      <point x="390" y="564" type="line"/>
      <point x="404" y="550"/>
      <point x="414" y="531"/>
      <point x="414" y="513" type="curve" smooth="yes"/>
      <point x="414" y="482"/>
      <point x="401" y="468"/>
      <point x="288" y="416" type="curve" smooth="yes"/>
      <point x="196" y="374"/>
      <point x="136" y="330"/>
      <point x="136" y="244" type="curve" smooth="yes"/>
      <point x="136" y="152"/>
      <point x="210" y="90"/>
    </contour>
    <contour>
      <point x="126" y="-254" type="curve"/>
      <point x="179" y="-200" type="line"/>
      <point x="108" y="-147"/>
      <point x="84" y="-106"/>
      <point x="84" y="-62" type="curve" smooth="yes"/>
      <point x="84" y="-23"/>
      <point x="110" y="1"/>
      <point x="148" y="1" type="curve" smooth="yes"/>
      <point x="191" y="1"/>
      <point x="218" y="-24"/>
      <point x="254" y="-79" type="curve"/>
      <point x="251" y="-41" type="line"/>
      <point x="220" y="-63" type="line" smooth="yes"/>
      <point x="197" y="-79"/>
      <point x="189" y="-91"/>
      <point x="189" y="-108" type="curve" smooth="yes"/>
      <point x="189" y="-147"/>
      <point x="253" y="-176"/>
      <point x="301" y="-176" type="curve" smooth="yes"/>
      <point x="335" y="-176"/>
      <point x="359" y="-161"/>
      <point x="359" y="-132" type="curve" smooth="yes"/>
      <point x="359" y="-116"/>
      <point x="353" y="-105"/>
      <point x="347" y="-95" type="curve" smooth="yes"/>
      <point x="312" y="-41" type="line"/>
      <point x="300" y="-93" type="line"/>
      <point x="522" y="57" type="line"/>
      <point x="497" y="92" type="line"/>
      <point x="470" y="100" type="line"/>
      <point x="279" y="-24" type="line"/>
      <point x="307" y="-27" type="line"/>
      <point x="266" y="35"/>
      <point x="216" y="70"/>
      <point x="147" y="70" type="curve" smooth="yes"/>
      <point x="74" y="70"/>
      <point x="9" y="24"/>
      <point x="9" y="-57" type="curve" smooth="yes"/>
      <point x="9" y="-134"/>
      <point x="59" y="-193"/>
    </contour>
    <contour>
      <point x="565" y="-86" type="line"/>
      <point x="628" y="-54" type="line"/>
      <point x="498" y="156" type="line"/>
      <point x="436" y="128" type="line"/>
    </contour>
  </outline>
</glyph>
<glyph name="dadagujr" format="2">
  <advance width="467"/>
  <outline>
    <contour>
      <point x="298" y="-10" type="curve" smooth="yes"/>
      <point x="367" y="-10"/>
      <point x="444" y="21"/>
      <point x="444" y="90" type="curve" smooth="yes"/>
      <point x="444" y="120"/>
      <point x="424" y="148"/>
      <point x="385" y="148" type="curve" smooth="yes"/>
      <point x="351" y="148"/>
      <point x="328" y="128"/>
      <point x="328" y="94" type="curve" smooth="yes"/>
      <point x="328" y="83"/>
      <point x="332" y="68"/>
      <point x="336" y="61" type="curve"/>
      <point x="363" y="72" type="line"/>
      <point x="346" y="65"/>
      <point x="326" y="63"/>
      <point x="299" y="63" type="curve" smooth="yes"/>
      <point x="214" y="63"/>
      <point x="168" y="101"/>
      <point x="168" y="176" type="curve" smooth="yes"/>
      <point x="168" y="253"/>
      <point x="235" y="286"/>
      <point x="310" y="286" type="curve" smooth="yes"/>
      <point x="331" y="286"/>
      <point x="353" y="284"/>
      <point x="369" y="281" type="curve"/>
      <point x="383" y="353" type="line"/>
      <point x="363" y="356"/>
      <point x="338" y="359"/>
      <point x="308" y="359" type="curve" smooth="yes"/>
      <point x="171" y="359"/>
      <point x="87" y="278"/>
      <point x="87" y="176" type="curve" smooth="yes"/>
      <point x="87" y="67"/>
      <point x="166" y="-10"/>
    </contour>
    <contour>
      <point x="508" y="-140" type="line"/>
      <point x="530" y="-66" type="line"/>
      <point x="523" y="-65" type="line" smooth="yes"/>
      <point x="463" y="-56"/>
      <point x="434" y="-12"/>
      <point x="407" y="90" type="curve"/>
      <point x="337" y="64" type="line"/>
      <point x="386" y="-93"/>
      <point x="436" y="-121"/>
      <point x="500" y="-138" type="curve" smooth="yes"/>
    </contour>
    <contour>
      <point x="166" y="287" type="curve"/>
      <point x="220" y="338" type="line"/>
      <point x="150" y="371"/>
      <point x="125" y="407"/>
      <point x="125" y="451" type="curve" smooth="yes"/>
      <point x="125" y="494"/>
      <point x="159" y="529"/>
      <point x="244" y="529" type="curve" smooth="yes"/>
      <point x="275" y="529"/>
      <point x="308" y="523"/>
      <point x="329" y="518" type="curve"/>
      <point x="343" y="589" type="line"/>
      <point x="319" y="596"/>
      <point x="270" y="603"/>
      <point x="233" y="603" type="curve" smooth="yes"/>
      <point x="100" y="603"/>
      <point x="44" y="532"/>
      <point x="44" y="457" type="curve" smooth="yes"/>
      <point x="44" y="375"/>
      <point x="98" y="325"/>
    </contour>
  </outline>
</glyph>
